G04 EAGLE Gerber RS-274X export*
G75*
%MOMM*%
%FSLAX34Y34*%
%LPD*%
%INTop Copper*%
%IPPOS*%
%AMOC8*
5,1,8,0,0,1.08239X$1,22.5*%
G01*
G04 Define Apertures*
%ADD10C,1.524000*%
%ADD11C,1.524000*%
%ADD12R,1.650000X1.650000*%
%ADD13C,1.650000*%
%ADD14C,0.508000*%
%ADD15C,0.254000*%
G36*
X365747Y10176D02*
X365548Y10160D01*
X47837Y10160D01*
X47237Y10310D01*
X46848Y10633D01*
X46616Y11082D01*
X46577Y11586D01*
X46737Y12065D01*
X48832Y15694D01*
X50546Y22089D01*
X50546Y28711D01*
X48832Y35106D01*
X45522Y40840D01*
X40840Y45522D01*
X35106Y48832D01*
X28711Y50546D01*
X22089Y50546D01*
X15694Y48832D01*
X12065Y46737D01*
X11470Y46568D01*
X10972Y46652D01*
X10546Y46925D01*
X10261Y47342D01*
X10160Y47837D01*
X10160Y485563D01*
X10310Y486163D01*
X10633Y486552D01*
X11082Y486784D01*
X11586Y486823D01*
X12065Y486663D01*
X15694Y484568D01*
X22089Y482854D01*
X28711Y482854D01*
X35106Y484568D01*
X40840Y487878D01*
X45522Y492560D01*
X48832Y498294D01*
X50546Y504689D01*
X50546Y511311D01*
X48832Y517706D01*
X46737Y521335D01*
X46568Y521930D01*
X46652Y522428D01*
X46925Y522854D01*
X47342Y523139D01*
X47837Y523240D01*
X365548Y523240D01*
X365747Y523224D01*
X373819Y521946D01*
X374197Y521823D01*
X381479Y518113D01*
X381800Y517879D01*
X387579Y512100D01*
X387813Y511779D01*
X391523Y504497D01*
X391646Y504119D01*
X392924Y496047D01*
X392940Y495848D01*
X392940Y37552D01*
X392924Y37353D01*
X391646Y29281D01*
X391523Y28903D01*
X387813Y21621D01*
X387579Y21300D01*
X381800Y15521D01*
X381479Y15287D01*
X374197Y11577D01*
X373819Y11454D01*
X365747Y10176D01*
G37*
%LPC*%
G36*
X325366Y457454D02*
X331988Y457454D01*
X338383Y459168D01*
X344117Y462478D01*
X348799Y467160D01*
X352109Y472894D01*
X353823Y479289D01*
X353823Y485911D01*
X352109Y492306D01*
X348799Y498040D01*
X344117Y502722D01*
X338383Y506032D01*
X331988Y507746D01*
X325366Y507746D01*
X318971Y506032D01*
X313237Y502722D01*
X308555Y498040D01*
X305245Y492306D01*
X303531Y485911D01*
X303531Y479289D01*
X305245Y472894D01*
X308555Y467160D01*
X313237Y462478D01*
X318971Y459168D01*
X325366Y457454D01*
G37*
G36*
X137001Y60452D02*
X297545Y60452D01*
X369064Y131971D01*
X369064Y205486D01*
X369149Y205944D01*
X369422Y206370D01*
X369839Y206655D01*
X370334Y206756D01*
X374439Y206756D01*
X377800Y208148D01*
X380372Y210720D01*
X381764Y214081D01*
X381764Y217719D01*
X380372Y221080D01*
X377800Y223652D01*
X374439Y225044D01*
X355561Y225044D01*
X352200Y223652D01*
X349628Y221080D01*
X348236Y217719D01*
X348236Y214081D01*
X349628Y210720D01*
X352200Y208148D01*
X355561Y206756D01*
X359666Y206756D01*
X360124Y206671D01*
X360550Y206398D01*
X360835Y205981D01*
X360936Y205486D01*
X360936Y135864D01*
X360843Y135387D01*
X360564Y134966D01*
X294550Y68952D01*
X294148Y68681D01*
X293652Y68580D01*
X287778Y68580D01*
X287339Y68658D01*
X286909Y68924D01*
X286616Y69336D01*
X286508Y69830D01*
X286600Y70327D01*
X286880Y70748D01*
X287152Y71020D01*
X288544Y74381D01*
X288544Y78019D01*
X287152Y81380D01*
X284580Y83952D01*
X281219Y85344D01*
X277581Y85344D01*
X275979Y84681D01*
X275514Y84584D01*
X275017Y84677D01*
X274595Y84956D01*
X268088Y91463D01*
X267816Y91866D01*
X267716Y92362D01*
X267716Y106267D01*
X267794Y106706D01*
X268060Y107136D01*
X268472Y107428D01*
X268966Y107537D01*
X269463Y107444D01*
X269884Y107165D01*
X270644Y106405D01*
X270912Y106011D01*
X271016Y105517D01*
X270919Y105021D01*
X270256Y103419D01*
X270256Y99781D01*
X271648Y96420D01*
X274220Y93848D01*
X277581Y92456D01*
X281219Y92456D01*
X284580Y93848D01*
X287152Y96420D01*
X288544Y99781D01*
X288544Y103419D01*
X287152Y106780D01*
X284580Y109352D01*
X281219Y110744D01*
X277581Y110744D01*
X275979Y110081D01*
X275514Y109984D01*
X275017Y110077D01*
X274595Y110356D01*
X272152Y112799D01*
X271881Y113202D01*
X271780Y113697D01*
X271780Y118622D01*
X271858Y119061D01*
X272124Y119491D01*
X272536Y119784D01*
X273030Y119892D01*
X273527Y119800D01*
X273948Y119520D01*
X274220Y119248D01*
X277581Y117856D01*
X281219Y117856D01*
X284580Y119248D01*
X287152Y121820D01*
X288544Y125181D01*
X288544Y128819D01*
X287881Y130421D01*
X287784Y130886D01*
X287877Y131383D01*
X288156Y131805D01*
X296672Y140321D01*
X296672Y393079D01*
X288156Y401595D01*
X287888Y401989D01*
X287784Y402483D01*
X287881Y402979D01*
X288544Y404581D01*
X288544Y408219D01*
X287152Y411580D01*
X284580Y414152D01*
X281219Y415544D01*
X277581Y415544D01*
X274220Y414152D01*
X273948Y413880D01*
X273582Y413625D01*
X273090Y413508D01*
X272592Y413593D01*
X272166Y413865D01*
X271881Y414282D01*
X271780Y414778D01*
X271780Y419703D01*
X271873Y420179D01*
X272152Y420601D01*
X274595Y423044D01*
X274989Y423312D01*
X275483Y423416D01*
X275979Y423319D01*
X277581Y422656D01*
X281219Y422656D01*
X284580Y424048D01*
X287152Y426620D01*
X288544Y429981D01*
X288544Y433619D01*
X287152Y436980D01*
X284580Y439552D01*
X281219Y440944D01*
X277581Y440944D01*
X274220Y439552D01*
X271648Y436980D01*
X270256Y433619D01*
X270256Y429981D01*
X270919Y428379D01*
X271016Y427914D01*
X270923Y427417D01*
X270644Y426995D01*
X269884Y426235D01*
X269518Y425980D01*
X269026Y425864D01*
X268528Y425949D01*
X268102Y426221D01*
X267816Y426638D01*
X267716Y427133D01*
X267716Y441039D01*
X267809Y441515D01*
X268088Y441937D01*
X274595Y448444D01*
X274989Y448712D01*
X275483Y448816D01*
X275979Y448719D01*
X277581Y448056D01*
X281219Y448056D01*
X284580Y449448D01*
X287152Y452020D01*
X288544Y455381D01*
X288544Y459019D01*
X287152Y462380D01*
X284580Y464952D01*
X281219Y466344D01*
X277581Y466344D01*
X274220Y464952D01*
X271648Y462380D01*
X270256Y459019D01*
X270256Y455381D01*
X270919Y453779D01*
X271016Y453314D01*
X270923Y452817D01*
X270644Y452395D01*
X262128Y443879D01*
X262128Y89521D01*
X270644Y81005D01*
X270912Y80611D01*
X271016Y80117D01*
X270919Y79621D01*
X270256Y78019D01*
X270256Y74381D01*
X271648Y71020D01*
X271920Y70748D01*
X272175Y70382D01*
X272292Y69890D01*
X272207Y69392D01*
X271935Y68966D01*
X271518Y68681D01*
X271022Y68580D01*
X140893Y68580D01*
X140417Y68673D01*
X139995Y68952D01*
X136282Y72665D01*
X136015Y73059D01*
X135910Y73553D01*
X136007Y74050D01*
X136144Y74381D01*
X136144Y78019D01*
X134752Y81380D01*
X132180Y83952D01*
X128819Y85344D01*
X125181Y85344D01*
X121820Y83952D01*
X119248Y81380D01*
X119111Y81048D01*
X118850Y80650D01*
X118433Y80365D01*
X117937Y80264D01*
X103809Y80264D01*
X103333Y80357D01*
X102911Y80636D01*
X46146Y137401D01*
X45875Y137804D01*
X45774Y138299D01*
X45774Y148601D01*
X45867Y149077D01*
X46146Y149499D01*
X102820Y206173D01*
X102820Y426747D01*
X102913Y427223D01*
X103192Y427645D01*
X123465Y447918D01*
X123859Y448186D01*
X124353Y448290D01*
X124850Y448193D01*
X125181Y448056D01*
X128819Y448056D01*
X132180Y449448D01*
X134752Y452020D01*
X136144Y455381D01*
X136144Y459019D01*
X134752Y462380D01*
X132180Y464952D01*
X128819Y466344D01*
X125181Y466344D01*
X121820Y464952D01*
X119248Y462380D01*
X117856Y459019D01*
X117856Y455381D01*
X117993Y455050D01*
X118090Y454584D01*
X117997Y454087D01*
X117718Y453665D01*
X94692Y430640D01*
X94692Y210066D01*
X94599Y209589D01*
X94320Y209168D01*
X40399Y155246D01*
X39996Y154975D01*
X39501Y154874D01*
X27119Y154874D01*
X26226Y153981D01*
X26226Y136219D01*
X27119Y135326D01*
X36201Y135326D01*
X36677Y135233D01*
X37099Y134954D01*
X99917Y72136D01*
X117937Y72136D01*
X118405Y72047D01*
X118828Y71771D01*
X119111Y71352D01*
X119248Y71020D01*
X121820Y68448D01*
X125181Y67056D01*
X128819Y67056D01*
X129151Y67193D01*
X129616Y67290D01*
X130113Y67197D01*
X130535Y66918D01*
X137001Y60452D01*
G37*
G36*
X116840Y433070D02*
X125730Y433070D01*
X125730Y441960D01*
X124979Y441960D01*
X121245Y440413D01*
X118387Y437555D01*
X116840Y433821D01*
X116840Y433070D01*
G37*
G36*
X128270Y433070D02*
X137160Y433070D01*
X137160Y433821D01*
X135613Y437555D01*
X132755Y440413D01*
X129021Y441960D01*
X128270Y441960D01*
X128270Y433070D01*
G37*
G36*
X34056Y252726D02*
X37944Y252726D01*
X41537Y254214D01*
X44286Y256963D01*
X44571Y257652D01*
X44832Y258050D01*
X45249Y258335D01*
X45745Y258436D01*
X55082Y258436D01*
X55559Y258343D01*
X55980Y258064D01*
X57588Y256456D01*
X62276Y256456D01*
X76108Y270288D01*
X76108Y384230D01*
X67936Y392401D01*
X67665Y392804D01*
X67564Y393299D01*
X67564Y402417D01*
X67653Y402885D01*
X67929Y403308D01*
X68348Y403591D01*
X68680Y403728D01*
X71252Y406300D01*
X72644Y409661D01*
X72644Y428539D01*
X71252Y431900D01*
X68680Y434472D01*
X65319Y435864D01*
X61681Y435864D01*
X58320Y434472D01*
X55748Y431900D01*
X54356Y428539D01*
X54356Y409661D01*
X55748Y406300D01*
X58320Y403728D01*
X58652Y403591D01*
X59050Y403330D01*
X59335Y402913D01*
X59436Y402417D01*
X59436Y391036D01*
X59358Y390597D01*
X59092Y390167D01*
X58680Y389874D01*
X58186Y389766D01*
X57689Y389858D01*
X57268Y390138D01*
X44377Y403029D01*
X44113Y403413D01*
X44005Y403907D01*
X44097Y404404D01*
X44377Y404825D01*
X45852Y406300D01*
X47244Y409661D01*
X47244Y428539D01*
X45852Y431900D01*
X43280Y434472D01*
X39919Y435864D01*
X36281Y435864D01*
X32920Y434472D01*
X30348Y431900D01*
X28956Y428539D01*
X28956Y409661D01*
X30348Y406300D01*
X32920Y403728D01*
X33252Y403591D01*
X33650Y403330D01*
X33935Y402913D01*
X34036Y402417D01*
X34036Y401875D01*
X61004Y374907D01*
X61275Y374505D01*
X61376Y374009D01*
X61376Y280938D01*
X61297Y280499D01*
X61032Y280069D01*
X60620Y279776D01*
X60126Y279668D01*
X59629Y279761D01*
X59208Y280040D01*
X46146Y293101D01*
X45875Y293504D01*
X45774Y293999D01*
X45774Y306381D01*
X44881Y307274D01*
X27119Y307274D01*
X26226Y306381D01*
X26226Y288619D01*
X27119Y287726D01*
X39501Y287726D01*
X39977Y287633D01*
X40399Y287354D01*
X59021Y268732D01*
X59276Y268366D01*
X59392Y267874D01*
X59307Y267376D01*
X59035Y266950D01*
X58618Y266665D01*
X58123Y266564D01*
X45745Y266564D01*
X45277Y266653D01*
X44854Y266929D01*
X44571Y267348D01*
X44286Y268037D01*
X41537Y270786D01*
X37944Y272274D01*
X34056Y272274D01*
X30463Y270786D01*
X27714Y268037D01*
X26226Y264444D01*
X26226Y260556D01*
X27714Y256963D01*
X30463Y254214D01*
X34056Y252726D01*
G37*
G36*
X128270Y421640D02*
X129021Y421640D01*
X132755Y423187D01*
X135613Y426045D01*
X137160Y429779D01*
X137160Y430530D01*
X128270Y430530D01*
X128270Y421640D01*
G37*
G36*
X124979Y421640D02*
X125730Y421640D01*
X125730Y430530D01*
X116840Y430530D01*
X116840Y429779D01*
X118387Y426045D01*
X121245Y423187D01*
X124979Y421640D01*
G37*
G36*
X125181Y117856D02*
X128819Y117856D01*
X132180Y119248D01*
X134752Y121820D01*
X136144Y125181D01*
X136144Y128819D01*
X136007Y129151D01*
X135910Y129616D01*
X136003Y130113D01*
X136282Y130535D01*
X146812Y141065D01*
X146812Y392335D01*
X136282Y402865D01*
X136015Y403259D01*
X135910Y403753D01*
X136007Y404250D01*
X136144Y404581D01*
X136144Y408219D01*
X134752Y411580D01*
X132180Y414152D01*
X128819Y415544D01*
X125181Y415544D01*
X121820Y414152D01*
X119248Y411580D01*
X117856Y408219D01*
X117856Y404581D01*
X119248Y401220D01*
X121820Y398648D01*
X125181Y397256D01*
X128819Y397256D01*
X129151Y397393D01*
X129616Y397490D01*
X130113Y397397D01*
X130535Y397118D01*
X138312Y389341D01*
X138584Y388938D01*
X138684Y388442D01*
X138684Y350933D01*
X138606Y350494D01*
X138340Y350064D01*
X137928Y349772D01*
X137434Y349663D01*
X136938Y349756D01*
X136516Y350035D01*
X135756Y350795D01*
X135488Y351189D01*
X135384Y351683D01*
X135481Y352179D01*
X136144Y353781D01*
X136144Y357419D01*
X134752Y360780D01*
X132180Y363352D01*
X128819Y364744D01*
X125181Y364744D01*
X121820Y363352D01*
X119248Y360780D01*
X117759Y357185D01*
X117526Y356817D01*
X117118Y356518D01*
X116626Y356402D01*
X116128Y356487D01*
X115702Y356759D01*
X115417Y357176D01*
X115316Y357671D01*
X115316Y364839D01*
X115409Y365315D01*
X115688Y365737D01*
X122195Y372244D01*
X122589Y372512D01*
X123083Y372616D01*
X123579Y372519D01*
X125181Y371856D01*
X128819Y371856D01*
X132180Y373248D01*
X134752Y375820D01*
X136144Y379181D01*
X136144Y382819D01*
X134752Y386180D01*
X132180Y388752D01*
X128819Y390144D01*
X125181Y390144D01*
X121820Y388752D01*
X119248Y386180D01*
X117856Y382819D01*
X117856Y379181D01*
X118519Y377579D01*
X118616Y377114D01*
X118523Y376617D01*
X118244Y376195D01*
X109728Y367679D01*
X109728Y165721D01*
X118244Y157205D01*
X118512Y156811D01*
X118616Y156317D01*
X118519Y155821D01*
X117856Y154219D01*
X117856Y150581D01*
X119248Y147220D01*
X121820Y144648D01*
X125181Y143256D01*
X128819Y143256D01*
X132180Y144648D01*
X134752Y147220D01*
X136144Y150581D01*
X136144Y154219D01*
X134752Y157580D01*
X132180Y160152D01*
X128819Y161544D01*
X125181Y161544D01*
X123579Y160881D01*
X123114Y160784D01*
X122617Y160877D01*
X122195Y161156D01*
X115688Y167663D01*
X115417Y168066D01*
X115316Y168561D01*
X115316Y175729D01*
X115391Y176158D01*
X115653Y176590D01*
X116063Y176886D01*
X116556Y176998D01*
X117053Y176909D01*
X117477Y176634D01*
X117759Y176215D01*
X119248Y172620D01*
X121820Y170048D01*
X125181Y168656D01*
X128819Y168656D01*
X132180Y170048D01*
X134752Y172620D01*
X136144Y175981D01*
X136144Y179619D01*
X135481Y181221D01*
X135384Y181686D01*
X135477Y182183D01*
X135756Y182605D01*
X136516Y183365D01*
X136882Y183620D01*
X137374Y183736D01*
X137872Y183651D01*
X138298Y183379D01*
X138584Y182962D01*
X138684Y182467D01*
X138684Y144958D01*
X138591Y144481D01*
X138312Y144060D01*
X130535Y136282D01*
X130141Y136015D01*
X129647Y135910D01*
X129151Y136007D01*
X128819Y136144D01*
X125181Y136144D01*
X121820Y134752D01*
X119248Y132180D01*
X117856Y128819D01*
X117856Y125181D01*
X119248Y121820D01*
X121820Y119248D01*
X125181Y117856D01*
G37*
G36*
X347220Y318770D02*
X363730Y318770D01*
X363730Y327660D01*
X355359Y327660D01*
X351625Y326113D01*
X348767Y323255D01*
X347220Y319521D01*
X347220Y318770D01*
G37*
G36*
X366270Y318770D02*
X382780Y318770D01*
X382780Y319521D01*
X381233Y323255D01*
X378375Y326113D01*
X374641Y327660D01*
X366270Y327660D01*
X366270Y318770D01*
G37*
G36*
X355359Y307340D02*
X363730Y307340D01*
X363730Y316230D01*
X347220Y316230D01*
X347220Y315479D01*
X348767Y311745D01*
X351625Y308887D01*
X355359Y307340D01*
G37*
G36*
X366270Y307340D02*
X374641Y307340D01*
X378375Y308887D01*
X381233Y311745D01*
X382780Y315479D01*
X382780Y316230D01*
X366270Y316230D01*
X366270Y307340D01*
G37*
G36*
X366270Y293370D02*
X382780Y293370D01*
X382780Y294121D01*
X381233Y297855D01*
X378375Y300713D01*
X374641Y302260D01*
X366270Y302260D01*
X366270Y293370D01*
G37*
G36*
X347220Y293370D02*
X363730Y293370D01*
X363730Y302260D01*
X355359Y302260D01*
X351625Y300713D01*
X348767Y297855D01*
X347220Y294121D01*
X347220Y293370D01*
G37*
G36*
X366270Y281940D02*
X374641Y281940D01*
X378375Y283487D01*
X381233Y286345D01*
X382780Y290079D01*
X382780Y290830D01*
X366270Y290830D01*
X366270Y281940D01*
G37*
G36*
X355359Y281940D02*
X363730Y281940D01*
X363730Y290830D01*
X347220Y290830D01*
X347220Y290079D01*
X348767Y286345D01*
X351625Y283487D01*
X355359Y281940D01*
G37*
G36*
X355561Y257556D02*
X374439Y257556D01*
X377800Y258948D01*
X380372Y261520D01*
X381764Y264881D01*
X381764Y268519D01*
X380372Y271880D01*
X377800Y274452D01*
X374439Y275844D01*
X355561Y275844D01*
X352200Y274452D01*
X349628Y271880D01*
X348236Y268519D01*
X348236Y264881D01*
X349628Y261520D01*
X352200Y258948D01*
X355561Y257556D01*
G37*
G36*
X355561Y232156D02*
X374439Y232156D01*
X377800Y233548D01*
X380372Y236120D01*
X381764Y239481D01*
X381764Y243119D01*
X380372Y246480D01*
X377800Y249052D01*
X374439Y250444D01*
X355561Y250444D01*
X352200Y249052D01*
X349628Y246480D01*
X348236Y243119D01*
X348236Y239481D01*
X349628Y236120D01*
X352200Y233548D01*
X355561Y232156D01*
G37*
G36*
X25210Y111370D02*
X34730Y111370D01*
X34730Y120890D01*
X33854Y120890D01*
X29888Y119247D01*
X26853Y116212D01*
X25210Y112246D01*
X25210Y111370D01*
G37*
G36*
X37270Y111370D02*
X46790Y111370D01*
X46790Y112246D01*
X45147Y116212D01*
X42112Y119247D01*
X38146Y120890D01*
X37270Y120890D01*
X37270Y111370D01*
G37*
G36*
X116840Y102870D02*
X125730Y102870D01*
X125730Y111760D01*
X124979Y111760D01*
X121245Y110213D01*
X118387Y107355D01*
X116840Y103621D01*
X116840Y102870D01*
G37*
G36*
X128270Y102870D02*
X137160Y102870D01*
X137160Y103621D01*
X135613Y107355D01*
X132755Y110213D01*
X129021Y111760D01*
X128270Y111760D01*
X128270Y102870D01*
G37*
G36*
X37270Y99310D02*
X38146Y99310D01*
X42112Y100953D01*
X45147Y103988D01*
X46790Y107954D01*
X46790Y108830D01*
X37270Y108830D01*
X37270Y99310D01*
G37*
G36*
X33854Y99310D02*
X34730Y99310D01*
X34730Y108830D01*
X25210Y108830D01*
X25210Y107954D01*
X26853Y103988D01*
X29888Y100953D01*
X33854Y99310D01*
G37*
G36*
X128270Y91440D02*
X129021Y91440D01*
X132755Y92987D01*
X135613Y95845D01*
X137160Y99579D01*
X137160Y100330D01*
X128270Y100330D01*
X128270Y91440D01*
G37*
G36*
X124979Y91440D02*
X125730Y91440D01*
X125730Y100330D01*
X116840Y100330D01*
X116840Y99579D01*
X118387Y95845D01*
X121245Y92987D01*
X124979Y91440D01*
G37*
G36*
X325366Y25654D02*
X331988Y25654D01*
X338383Y27368D01*
X344117Y30678D01*
X348799Y35360D01*
X352109Y41094D01*
X353823Y47489D01*
X353823Y54111D01*
X352109Y60506D01*
X348799Y66240D01*
X344117Y70922D01*
X338383Y74232D01*
X331988Y75946D01*
X325366Y75946D01*
X318971Y74232D01*
X313237Y70922D01*
X308555Y66240D01*
X305245Y60506D01*
X303531Y54111D01*
X303531Y47489D01*
X305245Y41094D01*
X308555Y35360D01*
X313237Y30678D01*
X318971Y27368D01*
X325366Y25654D01*
G37*
%LPD*%
D10*
X372620Y215900D02*
X357380Y215900D01*
X357380Y241300D02*
X372620Y241300D01*
X372620Y266700D02*
X357380Y266700D01*
X357380Y292100D02*
X372620Y292100D01*
X372620Y317500D02*
X357380Y317500D01*
D11*
X279400Y76200D03*
X279400Y101600D03*
X279400Y127000D03*
X279400Y152400D03*
X279400Y177800D03*
X279400Y203200D03*
X279400Y228600D03*
X127000Y228600D03*
X127000Y203200D03*
X127000Y177800D03*
X127000Y152400D03*
X127000Y127000D03*
X127000Y101600D03*
X127000Y76200D03*
X127000Y457200D03*
X127000Y431800D03*
X127000Y406400D03*
X127000Y381000D03*
X127000Y355600D03*
X127000Y330200D03*
X127000Y304800D03*
X279400Y304800D03*
X279400Y330200D03*
X279400Y355600D03*
X279400Y381000D03*
X279400Y406400D03*
X279400Y431800D03*
X279400Y457200D03*
D10*
X38100Y426720D02*
X38100Y411480D01*
X63500Y411480D02*
X63500Y426720D01*
D12*
X36000Y297500D03*
D13*
X36000Y262500D03*
D12*
X36000Y145100D03*
D13*
X36000Y110100D03*
D14*
X127000Y127000D02*
X142748Y142748D01*
X142748Y390652D01*
X127000Y406400D01*
X127000Y76200D02*
X138684Y64516D01*
X295862Y64516D01*
X98756Y207856D02*
X36000Y145100D01*
X98756Y207856D02*
X98756Y428956D01*
X127000Y457200D01*
X36000Y141800D02*
X101600Y76200D01*
X36000Y141800D02*
X36000Y145100D01*
X101600Y76200D02*
X127000Y76200D01*
X295862Y64516D02*
X365000Y133654D01*
X365000Y215900D01*
D15*
X127000Y381000D02*
X112522Y366522D01*
X112522Y166878D01*
X127000Y152400D01*
X127000Y177800D02*
X137414Y188214D01*
X137414Y345186D01*
X127000Y355600D01*
X127000Y330200D02*
X116586Y319786D01*
X116586Y213614D01*
X127000Y203200D01*
X264922Y442722D02*
X279400Y457200D01*
X264922Y442722D02*
X264922Y90678D01*
X279400Y76200D01*
X268986Y421386D02*
X279400Y431800D01*
X268986Y421386D02*
X268986Y112014D01*
X279400Y101600D01*
X293878Y391922D02*
X279400Y406400D01*
X293878Y391922D02*
X293878Y141478D01*
X279400Y127000D01*
X279400Y152400D02*
X289814Y162814D01*
X289814Y370586D01*
X279400Y381000D01*
D14*
X60926Y272574D02*
X36000Y297500D01*
X60926Y272574D02*
X63306Y272574D01*
X65440Y274707D01*
X65440Y376219D01*
X38100Y403558D01*
X38100Y417830D01*
X36000Y262500D02*
X57292Y262500D01*
X59271Y260520D01*
X60592Y260520D01*
X72044Y271972D01*
X72044Y382546D01*
X63500Y391090D01*
X63500Y419100D01*
M02*
