G04 EAGLE Gerber RS-274X export*
G75*
%MOMM*%
%FSLAX34Y34*%
%LPD*%
%INBottom Copper*%
%IPPOS*%
%AMOC8*
5,1,8,0,0,1.08239X$1,22.5*%
G01*
G04 Define Apertures*
%ADD10C,1.524000*%
%ADD11C,1.524000*%
%ADD12R,1.650000X1.650000*%
%ADD13C,1.650000*%
%ADD14C,0.254000*%
G36*
X365747Y10176D02*
X365548Y10160D01*
X47837Y10160D01*
X47237Y10310D01*
X46848Y10633D01*
X46616Y11082D01*
X46577Y11586D01*
X46737Y12065D01*
X48832Y15694D01*
X50546Y22089D01*
X50546Y28711D01*
X48832Y35106D01*
X45522Y40840D01*
X40840Y45522D01*
X35106Y48832D01*
X28711Y50546D01*
X22089Y50546D01*
X15694Y48832D01*
X12065Y46737D01*
X11470Y46568D01*
X10972Y46652D01*
X10546Y46925D01*
X10261Y47342D01*
X10160Y47837D01*
X10160Y485563D01*
X10310Y486163D01*
X10633Y486552D01*
X11082Y486784D01*
X11586Y486823D01*
X12065Y486663D01*
X15694Y484568D01*
X22089Y482854D01*
X28711Y482854D01*
X35106Y484568D01*
X40840Y487878D01*
X45522Y492560D01*
X48832Y498294D01*
X50546Y504689D01*
X50546Y511311D01*
X48832Y517706D01*
X46737Y521335D01*
X46568Y521930D01*
X46652Y522428D01*
X46925Y522854D01*
X47342Y523139D01*
X47837Y523240D01*
X365548Y523240D01*
X365747Y523224D01*
X373819Y521946D01*
X374197Y521823D01*
X381479Y518113D01*
X381800Y517879D01*
X387579Y512100D01*
X387813Y511779D01*
X391523Y504497D01*
X391646Y504119D01*
X392924Y496047D01*
X392940Y495848D01*
X392940Y37552D01*
X392924Y37353D01*
X391646Y29281D01*
X391523Y28903D01*
X387813Y21621D01*
X387579Y21300D01*
X381800Y15521D01*
X381479Y15287D01*
X374197Y11577D01*
X373819Y11454D01*
X365747Y10176D01*
G37*
%LPC*%
G36*
X325366Y457454D02*
X331988Y457454D01*
X338383Y459168D01*
X344117Y462478D01*
X348799Y467160D01*
X352109Y472894D01*
X353823Y479289D01*
X353823Y485911D01*
X352109Y492306D01*
X348799Y498040D01*
X344117Y502722D01*
X338383Y506032D01*
X331988Y507746D01*
X325366Y507746D01*
X318971Y506032D01*
X313237Y502722D01*
X308555Y498040D01*
X305245Y492306D01*
X303531Y485911D01*
X303531Y479289D01*
X305245Y472894D01*
X308555Y467160D01*
X313237Y462478D01*
X318971Y459168D01*
X325366Y457454D01*
G37*
G36*
X277581Y448056D02*
X281219Y448056D01*
X284580Y449448D01*
X287152Y452020D01*
X288544Y455381D01*
X288544Y459019D01*
X287152Y462380D01*
X284580Y464952D01*
X281219Y466344D01*
X277581Y466344D01*
X274220Y464952D01*
X271648Y462380D01*
X270256Y459019D01*
X270256Y455381D01*
X271648Y452020D01*
X274220Y449448D01*
X277581Y448056D01*
G37*
G36*
X125181Y448056D02*
X128819Y448056D01*
X132180Y449448D01*
X134752Y452020D01*
X136144Y455381D01*
X136144Y459019D01*
X134752Y462380D01*
X132180Y464952D01*
X128819Y466344D01*
X125181Y466344D01*
X121820Y464952D01*
X119248Y462380D01*
X117856Y459019D01*
X117856Y455381D01*
X119248Y452020D01*
X121820Y449448D01*
X125181Y448056D01*
G37*
G36*
X116840Y433070D02*
X125730Y433070D01*
X125730Y441960D01*
X124979Y441960D01*
X121245Y440413D01*
X118387Y437555D01*
X116840Y433821D01*
X116840Y433070D01*
G37*
G36*
X128270Y433070D02*
X137160Y433070D01*
X137160Y433821D01*
X135613Y437555D01*
X132755Y440413D01*
X129021Y441960D01*
X128270Y441960D01*
X128270Y433070D01*
G37*
G36*
X277581Y422656D02*
X281219Y422656D01*
X284580Y424048D01*
X287152Y426620D01*
X288544Y429981D01*
X288544Y433619D01*
X287152Y436980D01*
X284580Y439552D01*
X281219Y440944D01*
X277581Y440944D01*
X274220Y439552D01*
X271648Y436980D01*
X270256Y433619D01*
X270256Y429981D01*
X271648Y426620D01*
X274220Y424048D01*
X277581Y422656D01*
G37*
G36*
X61681Y402336D02*
X65319Y402336D01*
X68680Y403728D01*
X71252Y406300D01*
X72644Y409661D01*
X72644Y428539D01*
X71252Y431900D01*
X68680Y434472D01*
X65319Y435864D01*
X61681Y435864D01*
X58320Y434472D01*
X55748Y431900D01*
X54356Y428539D01*
X54356Y409661D01*
X55748Y406300D01*
X58320Y403728D01*
X61681Y402336D01*
G37*
G36*
X36281Y402336D02*
X39919Y402336D01*
X43280Y403728D01*
X45852Y406300D01*
X47244Y409661D01*
X47244Y428539D01*
X45852Y431900D01*
X43280Y434472D01*
X39919Y435864D01*
X36281Y435864D01*
X32920Y434472D01*
X30348Y431900D01*
X28956Y428539D01*
X28956Y409661D01*
X30348Y406300D01*
X32920Y403728D01*
X36281Y402336D01*
G37*
G36*
X124979Y421640D02*
X125730Y421640D01*
X125730Y430530D01*
X116840Y430530D01*
X116840Y429779D01*
X118387Y426045D01*
X121245Y423187D01*
X124979Y421640D01*
G37*
G36*
X128270Y421640D02*
X129021Y421640D01*
X132755Y423187D01*
X135613Y426045D01*
X137160Y429779D01*
X137160Y430530D01*
X128270Y430530D01*
X128270Y421640D01*
G37*
G36*
X277581Y397256D02*
X281219Y397256D01*
X284580Y398648D01*
X287152Y401220D01*
X288544Y404581D01*
X288544Y408219D01*
X287152Y411580D01*
X284580Y414152D01*
X281219Y415544D01*
X277581Y415544D01*
X274220Y414152D01*
X271648Y411580D01*
X270256Y408219D01*
X270256Y404581D01*
X271648Y401220D01*
X274220Y398648D01*
X277581Y397256D01*
G37*
G36*
X125181Y397256D02*
X128819Y397256D01*
X132180Y398648D01*
X134752Y401220D01*
X136144Y404581D01*
X136144Y408219D01*
X134752Y411580D01*
X132180Y414152D01*
X128819Y415544D01*
X125181Y415544D01*
X121820Y414152D01*
X119248Y411580D01*
X117856Y408219D01*
X117856Y404581D01*
X119248Y401220D01*
X121820Y398648D01*
X125181Y397256D01*
G37*
G36*
X277581Y371856D02*
X281219Y371856D01*
X284580Y373248D01*
X287152Y375820D01*
X288544Y379181D01*
X288544Y382819D01*
X287152Y386180D01*
X284580Y388752D01*
X281219Y390144D01*
X277581Y390144D01*
X274220Y388752D01*
X271648Y386180D01*
X270256Y382819D01*
X270256Y379181D01*
X271648Y375820D01*
X274220Y373248D01*
X277581Y371856D01*
G37*
G36*
X125181Y371856D02*
X128819Y371856D01*
X132180Y373248D01*
X134752Y375820D01*
X136144Y379181D01*
X136144Y382819D01*
X134752Y386180D01*
X132180Y388752D01*
X128819Y390144D01*
X125181Y390144D01*
X121820Y388752D01*
X119248Y386180D01*
X117856Y382819D01*
X117856Y379181D01*
X119248Y375820D01*
X121820Y373248D01*
X125181Y371856D01*
G37*
G36*
X277581Y346456D02*
X281219Y346456D01*
X284580Y347848D01*
X287152Y350420D01*
X288544Y353781D01*
X288544Y357419D01*
X287152Y360780D01*
X284580Y363352D01*
X281219Y364744D01*
X277581Y364744D01*
X274220Y363352D01*
X271648Y360780D01*
X270256Y357419D01*
X270256Y353781D01*
X271648Y350420D01*
X274220Y347848D01*
X277581Y346456D01*
G37*
G36*
X125181Y346456D02*
X128819Y346456D01*
X132180Y347848D01*
X134752Y350420D01*
X136144Y353781D01*
X136144Y357419D01*
X134752Y360780D01*
X132180Y363352D01*
X128819Y364744D01*
X125181Y364744D01*
X121820Y363352D01*
X119248Y360780D01*
X117856Y357419D01*
X117856Y353781D01*
X119248Y350420D01*
X121820Y347848D01*
X125181Y346456D01*
G37*
G36*
X277581Y321056D02*
X281219Y321056D01*
X284580Y322448D01*
X287152Y325020D01*
X288544Y328381D01*
X288544Y332019D01*
X287152Y335380D01*
X284580Y337952D01*
X281219Y339344D01*
X277581Y339344D01*
X274220Y337952D01*
X271648Y335380D01*
X270256Y332019D01*
X270256Y328381D01*
X271648Y325020D01*
X274220Y322448D01*
X277581Y321056D01*
G37*
G36*
X125181Y321056D02*
X128819Y321056D01*
X132180Y322448D01*
X134752Y325020D01*
X136144Y328381D01*
X136144Y332019D01*
X134752Y335380D01*
X132180Y337952D01*
X128819Y339344D01*
X125181Y339344D01*
X121820Y337952D01*
X119248Y335380D01*
X117856Y332019D01*
X117856Y328381D01*
X119248Y325020D01*
X121820Y322448D01*
X125181Y321056D01*
G37*
G36*
X347220Y318770D02*
X363730Y318770D01*
X363730Y327660D01*
X355359Y327660D01*
X351625Y326113D01*
X348767Y323255D01*
X347220Y319521D01*
X347220Y318770D01*
G37*
G36*
X366270Y318770D02*
X382780Y318770D01*
X382780Y319521D01*
X381233Y323255D01*
X378375Y326113D01*
X374641Y327660D01*
X366270Y327660D01*
X366270Y318770D01*
G37*
G36*
X366270Y307340D02*
X374641Y307340D01*
X378375Y308887D01*
X381233Y311745D01*
X382780Y315479D01*
X382780Y316230D01*
X366270Y316230D01*
X366270Y307340D01*
G37*
G36*
X355359Y307340D02*
X363730Y307340D01*
X363730Y316230D01*
X347220Y316230D01*
X347220Y315479D01*
X348767Y311745D01*
X351625Y308887D01*
X355359Y307340D01*
G37*
G36*
X277581Y295656D02*
X281219Y295656D01*
X284580Y297048D01*
X287152Y299620D01*
X288544Y302981D01*
X288544Y306619D01*
X287152Y309980D01*
X284580Y312552D01*
X281219Y313944D01*
X277581Y313944D01*
X274220Y312552D01*
X271648Y309980D01*
X270256Y306619D01*
X270256Y302981D01*
X271648Y299620D01*
X274220Y297048D01*
X277581Y295656D01*
G37*
G36*
X125181Y295656D02*
X128819Y295656D01*
X132180Y297048D01*
X134752Y299620D01*
X136144Y302981D01*
X136144Y306619D01*
X134752Y309980D01*
X132180Y312552D01*
X128819Y313944D01*
X125181Y313944D01*
X121820Y312552D01*
X119248Y309980D01*
X117856Y306619D01*
X117856Y302981D01*
X119248Y299620D01*
X121820Y297048D01*
X125181Y295656D01*
G37*
G36*
X27119Y287726D02*
X44881Y287726D01*
X45774Y288619D01*
X45774Y306381D01*
X44881Y307274D01*
X27119Y307274D01*
X26226Y306381D01*
X26226Y288619D01*
X27119Y287726D01*
G37*
G36*
X366270Y293370D02*
X382780Y293370D01*
X382780Y294121D01*
X381233Y297855D01*
X378375Y300713D01*
X374641Y302260D01*
X366270Y302260D01*
X366270Y293370D01*
G37*
G36*
X347220Y293370D02*
X363730Y293370D01*
X363730Y302260D01*
X355359Y302260D01*
X351625Y300713D01*
X348767Y297855D01*
X347220Y294121D01*
X347220Y293370D01*
G37*
G36*
X355359Y281940D02*
X363730Y281940D01*
X363730Y290830D01*
X347220Y290830D01*
X347220Y290079D01*
X348767Y286345D01*
X351625Y283487D01*
X355359Y281940D01*
G37*
G36*
X366270Y281940D02*
X374641Y281940D01*
X378375Y283487D01*
X381233Y286345D01*
X382780Y290079D01*
X382780Y290830D01*
X366270Y290830D01*
X366270Y281940D01*
G37*
G36*
X136257Y215392D02*
X313323Y215392D01*
X336065Y238134D01*
X336468Y238405D01*
X336963Y238506D01*
X347791Y238506D01*
X348259Y238417D01*
X348682Y238141D01*
X348965Y237722D01*
X349628Y236120D01*
X352200Y233548D01*
X355561Y232156D01*
X374439Y232156D01*
X377800Y233548D01*
X380372Y236120D01*
X381764Y239481D01*
X381764Y243119D01*
X380372Y246480D01*
X377800Y249052D01*
X374439Y250444D01*
X355561Y250444D01*
X352200Y249052D01*
X349628Y246480D01*
X348965Y244878D01*
X348704Y244480D01*
X348287Y244195D01*
X347791Y244094D01*
X334123Y244094D01*
X311381Y221352D01*
X310978Y221081D01*
X310483Y220980D01*
X287778Y220980D01*
X287339Y221058D01*
X286909Y221324D01*
X286616Y221736D01*
X286508Y222230D01*
X286600Y222727D01*
X286880Y223148D01*
X287152Y223420D01*
X288544Y226781D01*
X288544Y230419D01*
X287881Y232021D01*
X287784Y232486D01*
X287877Y232983D01*
X288156Y233405D01*
X318285Y263534D01*
X318688Y263805D01*
X319183Y263906D01*
X347791Y263906D01*
X348259Y263817D01*
X348682Y263541D01*
X348965Y263122D01*
X349628Y261520D01*
X352200Y258948D01*
X355561Y257556D01*
X374439Y257556D01*
X377800Y258948D01*
X380372Y261520D01*
X381764Y264881D01*
X381764Y268519D01*
X380372Y271880D01*
X377800Y274452D01*
X374439Y275844D01*
X355561Y275844D01*
X352200Y274452D01*
X349628Y271880D01*
X348965Y270278D01*
X348704Y269880D01*
X348287Y269595D01*
X347791Y269494D01*
X316343Y269494D01*
X284205Y237356D01*
X283811Y237088D01*
X283317Y236984D01*
X282821Y237081D01*
X281219Y237744D01*
X277581Y237744D01*
X274220Y236352D01*
X271648Y233780D01*
X270256Y230419D01*
X270256Y226781D01*
X271648Y223420D01*
X271920Y223148D01*
X272175Y222782D01*
X272292Y222290D01*
X272207Y221792D01*
X271935Y221366D01*
X271518Y221081D01*
X271022Y220980D01*
X139097Y220980D01*
X138621Y221073D01*
X138199Y221352D01*
X135756Y223795D01*
X135488Y224189D01*
X135384Y224683D01*
X135481Y225179D01*
X136144Y226781D01*
X136144Y230419D01*
X134752Y233780D01*
X132180Y236352D01*
X128819Y237744D01*
X125181Y237744D01*
X121820Y236352D01*
X119248Y233780D01*
X117856Y230419D01*
X117856Y226781D01*
X119248Y223420D01*
X121820Y220848D01*
X125181Y219456D01*
X128819Y219456D01*
X130421Y220119D01*
X130886Y220216D01*
X131383Y220123D01*
X131805Y219844D01*
X136257Y215392D01*
G37*
G36*
X34056Y252726D02*
X37944Y252726D01*
X41537Y254214D01*
X44286Y256963D01*
X45774Y260556D01*
X45774Y264444D01*
X44286Y268037D01*
X41537Y270786D01*
X37944Y272274D01*
X34056Y272274D01*
X30463Y270786D01*
X27714Y268037D01*
X26226Y264444D01*
X26226Y260556D01*
X27714Y256963D01*
X30463Y254214D01*
X34056Y252726D01*
G37*
G36*
X355561Y206756D02*
X374439Y206756D01*
X377800Y208148D01*
X380372Y210720D01*
X381764Y214081D01*
X381764Y217719D01*
X380372Y221080D01*
X377800Y223652D01*
X374439Y225044D01*
X355561Y225044D01*
X352200Y223652D01*
X349628Y221080D01*
X348236Y217719D01*
X348236Y214081D01*
X349628Y210720D01*
X352200Y208148D01*
X355561Y206756D01*
G37*
G36*
X277581Y194056D02*
X281219Y194056D01*
X284580Y195448D01*
X287152Y198020D01*
X288544Y201381D01*
X288544Y205019D01*
X287152Y208380D01*
X284580Y210952D01*
X281219Y212344D01*
X277581Y212344D01*
X274220Y210952D01*
X271648Y208380D01*
X270256Y205019D01*
X270256Y201381D01*
X271648Y198020D01*
X274220Y195448D01*
X277581Y194056D01*
G37*
G36*
X125181Y194056D02*
X128819Y194056D01*
X132180Y195448D01*
X134752Y198020D01*
X136144Y201381D01*
X136144Y205019D01*
X134752Y208380D01*
X132180Y210952D01*
X128819Y212344D01*
X125181Y212344D01*
X121820Y210952D01*
X119248Y208380D01*
X117856Y205019D01*
X117856Y201381D01*
X119248Y198020D01*
X121820Y195448D01*
X125181Y194056D01*
G37*
G36*
X125181Y168656D02*
X128819Y168656D01*
X132180Y170048D01*
X134752Y172620D01*
X136144Y175981D01*
X136144Y179619D01*
X134752Y182980D01*
X132180Y185552D01*
X128819Y186944D01*
X125181Y186944D01*
X121820Y185552D01*
X119248Y182980D01*
X117856Y179619D01*
X117856Y175981D01*
X119248Y172620D01*
X121820Y170048D01*
X125181Y168656D01*
G37*
G36*
X277581Y168656D02*
X281219Y168656D01*
X284580Y170048D01*
X287152Y172620D01*
X288544Y175981D01*
X288544Y179619D01*
X287152Y182980D01*
X284580Y185552D01*
X281219Y186944D01*
X277581Y186944D01*
X274220Y185552D01*
X271648Y182980D01*
X270256Y179619D01*
X270256Y175981D01*
X271648Y172620D01*
X274220Y170048D01*
X277581Y168656D01*
G37*
G36*
X125181Y143256D02*
X128819Y143256D01*
X132180Y144648D01*
X134752Y147220D01*
X136144Y150581D01*
X136144Y154219D01*
X134752Y157580D01*
X132180Y160152D01*
X128819Y161544D01*
X125181Y161544D01*
X121820Y160152D01*
X119248Y157580D01*
X117856Y154219D01*
X117856Y150581D01*
X119248Y147220D01*
X121820Y144648D01*
X125181Y143256D01*
G37*
G36*
X277581Y143256D02*
X281219Y143256D01*
X284580Y144648D01*
X287152Y147220D01*
X288544Y150581D01*
X288544Y154219D01*
X287152Y157580D01*
X284580Y160152D01*
X281219Y161544D01*
X277581Y161544D01*
X274220Y160152D01*
X271648Y157580D01*
X270256Y154219D01*
X270256Y150581D01*
X271648Y147220D01*
X274220Y144648D01*
X277581Y143256D01*
G37*
G36*
X27119Y135326D02*
X44881Y135326D01*
X45774Y136219D01*
X45774Y153981D01*
X44881Y154874D01*
X27119Y154874D01*
X26226Y153981D01*
X26226Y136219D01*
X27119Y135326D01*
G37*
G36*
X277581Y117856D02*
X281219Y117856D01*
X284580Y119248D01*
X287152Y121820D01*
X288544Y125181D01*
X288544Y128819D01*
X287152Y132180D01*
X284580Y134752D01*
X281219Y136144D01*
X277581Y136144D01*
X274220Y134752D01*
X271648Y132180D01*
X270256Y128819D01*
X270256Y125181D01*
X271648Y121820D01*
X274220Y119248D01*
X277581Y117856D01*
G37*
G36*
X125181Y117856D02*
X128819Y117856D01*
X132180Y119248D01*
X134752Y121820D01*
X136144Y125181D01*
X136144Y128819D01*
X134752Y132180D01*
X132180Y134752D01*
X128819Y136144D01*
X125181Y136144D01*
X121820Y134752D01*
X119248Y132180D01*
X117856Y128819D01*
X117856Y125181D01*
X119248Y121820D01*
X121820Y119248D01*
X125181Y117856D01*
G37*
G36*
X25210Y111370D02*
X34730Y111370D01*
X34730Y120890D01*
X33854Y120890D01*
X29888Y119247D01*
X26853Y116212D01*
X25210Y112246D01*
X25210Y111370D01*
G37*
G36*
X37270Y111370D02*
X46790Y111370D01*
X46790Y112246D01*
X45147Y116212D01*
X42112Y119247D01*
X38146Y120890D01*
X37270Y120890D01*
X37270Y111370D01*
G37*
G36*
X116840Y102870D02*
X125730Y102870D01*
X125730Y111760D01*
X124979Y111760D01*
X121245Y110213D01*
X118387Y107355D01*
X116840Y103621D01*
X116840Y102870D01*
G37*
G36*
X128270Y102870D02*
X137160Y102870D01*
X137160Y103621D01*
X135613Y107355D01*
X132755Y110213D01*
X129021Y111760D01*
X128270Y111760D01*
X128270Y102870D01*
G37*
G36*
X277581Y92456D02*
X281219Y92456D01*
X284580Y93848D01*
X287152Y96420D01*
X288544Y99781D01*
X288544Y103419D01*
X287152Y106780D01*
X284580Y109352D01*
X281219Y110744D01*
X277581Y110744D01*
X274220Y109352D01*
X271648Y106780D01*
X270256Y103419D01*
X270256Y99781D01*
X271648Y96420D01*
X274220Y93848D01*
X277581Y92456D01*
G37*
G36*
X37270Y99310D02*
X38146Y99310D01*
X42112Y100953D01*
X45147Y103988D01*
X46790Y107954D01*
X46790Y108830D01*
X37270Y108830D01*
X37270Y99310D01*
G37*
G36*
X33854Y99310D02*
X34730Y99310D01*
X34730Y108830D01*
X25210Y108830D01*
X25210Y107954D01*
X26853Y103988D01*
X29888Y100953D01*
X33854Y99310D01*
G37*
G36*
X128270Y91440D02*
X129021Y91440D01*
X132755Y92987D01*
X135613Y95845D01*
X137160Y99579D01*
X137160Y100330D01*
X128270Y100330D01*
X128270Y91440D01*
G37*
G36*
X124979Y91440D02*
X125730Y91440D01*
X125730Y100330D01*
X116840Y100330D01*
X116840Y99579D01*
X118387Y95845D01*
X121245Y92987D01*
X124979Y91440D01*
G37*
G36*
X277581Y67056D02*
X281219Y67056D01*
X284580Y68448D01*
X287152Y71020D01*
X288544Y74381D01*
X288544Y78019D01*
X287152Y81380D01*
X284580Y83952D01*
X281219Y85344D01*
X277581Y85344D01*
X274220Y83952D01*
X271648Y81380D01*
X270256Y78019D01*
X270256Y74381D01*
X271648Y71020D01*
X274220Y68448D01*
X277581Y67056D01*
G37*
G36*
X125181Y67056D02*
X128819Y67056D01*
X132180Y68448D01*
X134752Y71020D01*
X136144Y74381D01*
X136144Y78019D01*
X134752Y81380D01*
X132180Y83952D01*
X128819Y85344D01*
X125181Y85344D01*
X121820Y83952D01*
X119248Y81380D01*
X117856Y78019D01*
X117856Y74381D01*
X119248Y71020D01*
X121820Y68448D01*
X125181Y67056D01*
G37*
G36*
X325366Y25654D02*
X331988Y25654D01*
X338383Y27368D01*
X344117Y30678D01*
X348799Y35360D01*
X352109Y41094D01*
X353823Y47489D01*
X353823Y54111D01*
X352109Y60506D01*
X348799Y66240D01*
X344117Y70922D01*
X338383Y74232D01*
X331988Y75946D01*
X325366Y75946D01*
X318971Y74232D01*
X313237Y70922D01*
X308555Y66240D01*
X305245Y60506D01*
X303531Y54111D01*
X303531Y47489D01*
X305245Y41094D01*
X308555Y35360D01*
X313237Y30678D01*
X318971Y27368D01*
X325366Y25654D01*
G37*
%LPD*%
D10*
X372620Y215900D02*
X357380Y215900D01*
X357380Y241300D02*
X372620Y241300D01*
X372620Y266700D02*
X357380Y266700D01*
X357380Y292100D02*
X372620Y292100D01*
X372620Y317500D02*
X357380Y317500D01*
D11*
X279400Y76200D03*
X279400Y101600D03*
X279400Y127000D03*
X279400Y152400D03*
X279400Y177800D03*
X279400Y203200D03*
X279400Y228600D03*
X127000Y228600D03*
X127000Y203200D03*
X127000Y177800D03*
X127000Y152400D03*
X127000Y127000D03*
X127000Y101600D03*
X127000Y76200D03*
X127000Y457200D03*
X127000Y431800D03*
X127000Y406400D03*
X127000Y381000D03*
X127000Y355600D03*
X127000Y330200D03*
X127000Y304800D03*
X279400Y304800D03*
X279400Y330200D03*
X279400Y355600D03*
X279400Y381000D03*
X279400Y406400D03*
X279400Y431800D03*
X279400Y457200D03*
D10*
X38100Y426720D02*
X38100Y411480D01*
X63500Y411480D02*
X63500Y426720D01*
D12*
X36000Y297500D03*
D13*
X36000Y262500D03*
D12*
X36000Y145100D03*
D13*
X36000Y110100D03*
D14*
X312166Y218186D02*
X335280Y241300D01*
X312166Y218186D02*
X137414Y218186D01*
X127000Y228600D01*
X335280Y241300D02*
X365000Y241300D01*
X317500Y266700D02*
X279400Y228600D01*
X317500Y266700D02*
X365000Y266700D01*
M02*
