M48
;GenerationSoftware,Autodesk,EAGLE,9.7.0*%
;CreationDate,2026-08-30T21:43:16Z*%
FMAT,2
ICI,OFF
METRIC,TZ,000.000
T3C1.016
T2C1.100
T1C2.997
%
G90
M71
T1
X32868Y48260
X32868Y5080
X2540Y50800
X2540Y2540
T2
X3600Y11010
X3600Y29750
X3600Y14510
X3600Y26250
T3
X36500Y24130
X12700Y10160
X27940Y10160
X27940Y12700
X27940Y15240
X27940Y17780
X27940Y20320
X27940Y22860
X12700Y22860
X12700Y20320
X12700Y17780
X12700Y15240
X12700Y12700
X36500Y21590
X12700Y7620
X12700Y45720
X12700Y43180
X12700Y40640
X12700Y38100
X12700Y35560
X12700Y33020
X12700Y30480
X27940Y30480
X27940Y33020
X27940Y35560
X27940Y38100
X27940Y40640
X27940Y43180
X27940Y45720
X3810Y41910
X6350Y41910
X36500Y31750
X36500Y29210
X36500Y26670
X27940Y7620
M30