G04 EAGLE Gerber RS-274X export*
G75*
%MOMM*%
%FSLAX34Y34*%
%LPD*%
%IN*%
%IPPOS*%
%AMOC8*
5,1,8,0,0,1.08239X$1,22.5*%
G01*
G04 Define Apertures*
%ADD10C,0.254000*%
D10*
X0Y23807D02*
X91Y21733D01*
X362Y19673D01*
X811Y17646D01*
X1436Y15665D01*
X2231Y13746D01*
X3190Y11904D01*
X4306Y10152D01*
X5570Y8504D01*
X6973Y6973D01*
X8504Y5570D01*
X10152Y4306D01*
X11904Y3190D01*
X13746Y2231D01*
X15665Y1436D01*
X17646Y811D01*
X19673Y362D01*
X21733Y91D01*
X23807Y0D01*
X365548Y0D01*
X368821Y143D01*
X372069Y571D01*
X375267Y1280D01*
X378392Y2265D01*
X381418Y3518D01*
X384324Y5031D01*
X387087Y6791D01*
X389686Y8786D01*
X392101Y10999D01*
X394315Y13414D01*
X396309Y16013D01*
X398069Y18776D01*
X399582Y21682D01*
X400835Y24708D01*
X401820Y27833D01*
X402530Y31031D01*
X402957Y34279D01*
X403100Y37552D01*
X403100Y495848D01*
X402957Y499121D01*
X402530Y502369D01*
X401820Y505567D01*
X400835Y508692D01*
X399582Y511718D01*
X398069Y514624D01*
X396309Y517387D01*
X394315Y519986D01*
X392101Y522401D01*
X389686Y524615D01*
X387087Y526609D01*
X384324Y528369D01*
X381418Y529882D01*
X378392Y531135D01*
X375267Y532120D01*
X372069Y532830D01*
X368821Y533257D01*
X365548Y533400D01*
X28150Y533400D01*
X25696Y533293D01*
X23262Y532972D01*
X20864Y532441D01*
X18522Y531702D01*
X16253Y530763D01*
X14075Y529629D01*
X12004Y528309D01*
X10055Y526814D01*
X8245Y525155D01*
X6586Y523345D01*
X5091Y521396D01*
X3771Y519325D01*
X2637Y517147D01*
X1698Y514878D01*
X959Y512536D01*
X428Y510138D01*
X107Y507704D01*
X0Y505250D01*
X0Y23807D01*
M02*
