G04 EAGLE Gerber RS-274X export*
G75*
%MOMM*%
%FSLAX34Y34*%
%LPD*%
%INSilkscreen Top*%
%IPPOS*%
%AMOC8*
5,1,8,0,0,1.08239X$1,22.5*%
G01*
G04 Define Apertures*
%ADD10C,0.152400*%
%ADD11C,0.127000*%
%ADD12C,0.200000*%
G36*
X31980Y379730D02*
X29637Y379730D01*
X29637Y397016D01*
X31980Y397016D01*
X31980Y389704D01*
X41328Y389704D01*
X41328Y397016D01*
X43672Y397016D01*
X43672Y379730D01*
X41328Y379730D01*
X41328Y387741D01*
X31980Y387741D01*
X31980Y379730D01*
G37*
G36*
X105410Y295431D02*
X88124Y295431D01*
X88124Y297774D01*
X95436Y297774D01*
X95436Y307123D01*
X88124Y307123D01*
X88124Y309466D01*
X105410Y309466D01*
X105410Y307123D01*
X97399Y307123D01*
X97399Y297774D01*
X105410Y297774D01*
X105410Y295431D01*
G37*
G36*
X76636Y379730D02*
X65558Y379730D01*
X65558Y397016D01*
X67901Y397016D01*
X67901Y381644D01*
X76636Y381644D01*
X76636Y379730D01*
G37*
G36*
X105410Y247171D02*
X88124Y247171D01*
X88124Y249514D01*
X103496Y249514D01*
X103496Y258249D01*
X105410Y258249D01*
X105410Y247171D01*
G37*
G36*
X96687Y88894D02*
X96169Y88902D01*
X95665Y88929D01*
X95176Y88973D01*
X94702Y89035D01*
X94243Y89114D01*
X93799Y89211D01*
X93369Y89326D01*
X92955Y89458D01*
X92555Y89608D01*
X92170Y89775D01*
X91800Y89961D01*
X91445Y90163D01*
X91105Y90384D01*
X90779Y90622D01*
X90469Y90878D01*
X90173Y91151D01*
X89894Y91440D01*
X89633Y91744D01*
X89389Y92062D01*
X89164Y92394D01*
X88957Y92740D01*
X88768Y93101D01*
X88596Y93476D01*
X88443Y93865D01*
X88308Y94269D01*
X88191Y94687D01*
X88092Y95119D01*
X88011Y95565D01*
X87948Y96026D01*
X87903Y96501D01*
X87876Y96990D01*
X87867Y97494D01*
X87882Y98194D01*
X87927Y98861D01*
X88003Y99495D01*
X88109Y100094D01*
X88245Y100660D01*
X88412Y101192D01*
X88609Y101691D01*
X88836Y102155D01*
X89096Y102590D01*
X89393Y103000D01*
X89727Y103383D01*
X90096Y103741D01*
X90503Y104073D01*
X90945Y104380D01*
X91424Y104661D01*
X91940Y104916D01*
X92602Y102683D01*
X92247Y102490D01*
X91916Y102280D01*
X91610Y102052D01*
X91329Y101807D01*
X91073Y101545D01*
X90842Y101265D01*
X90636Y100967D01*
X90455Y100653D01*
X90297Y100319D01*
X90160Y99966D01*
X90044Y99593D01*
X89949Y99200D01*
X89875Y98788D01*
X89823Y98356D01*
X89791Y97904D01*
X89781Y97432D01*
X89788Y97064D01*
X89809Y96706D01*
X89844Y96359D01*
X89894Y96024D01*
X89957Y95699D01*
X90035Y95386D01*
X90127Y95083D01*
X90233Y94791D01*
X90353Y94511D01*
X90487Y94242D01*
X90636Y93983D01*
X90798Y93736D01*
X90975Y93499D01*
X91166Y93274D01*
X91371Y93060D01*
X91590Y92856D01*
X91822Y92665D01*
X92066Y92485D01*
X92321Y92318D01*
X92587Y92164D01*
X92865Y92022D01*
X93155Y91892D01*
X93456Y91774D01*
X93769Y91669D01*
X94094Y91577D01*
X94429Y91496D01*
X94777Y91428D01*
X95136Y91373D01*
X95506Y91329D01*
X95889Y91298D01*
X96282Y91280D01*
X96687Y91274D01*
X97091Y91280D01*
X97485Y91300D01*
X97867Y91333D01*
X98239Y91379D01*
X98600Y91438D01*
X98950Y91510D01*
X99289Y91595D01*
X99618Y91694D01*
X99936Y91805D01*
X100243Y91930D01*
X100539Y92068D01*
X100824Y92219D01*
X101099Y92383D01*
X101363Y92560D01*
X101616Y92751D01*
X101858Y92954D01*
X102088Y93169D01*
X102303Y93395D01*
X102503Y93630D01*
X102688Y93875D01*
X102858Y94131D01*
X103013Y94396D01*
X103154Y94672D01*
X103280Y94957D01*
X103391Y95253D01*
X103487Y95558D01*
X103569Y95874D01*
X103635Y96200D01*
X103687Y96536D01*
X103724Y96882D01*
X103746Y97238D01*
X103754Y97604D01*
X103746Y98024D01*
X103722Y98436D01*
X103681Y98842D01*
X103625Y99240D01*
X103553Y99632D01*
X103464Y100016D01*
X103359Y100393D01*
X103239Y100763D01*
X103104Y101121D01*
X102958Y101461D01*
X102800Y101784D01*
X102631Y102089D01*
X102451Y102377D01*
X102259Y102648D01*
X102055Y102901D01*
X101840Y103137D01*
X98724Y103137D01*
X98724Y97972D01*
X96761Y97972D01*
X96761Y105296D01*
X102723Y105296D01*
X103063Y104943D01*
X103383Y104570D01*
X103683Y104178D01*
X103964Y103767D01*
X104225Y103336D01*
X104466Y102886D01*
X104687Y102417D01*
X104889Y101928D01*
X105068Y101425D01*
X105224Y100911D01*
X105356Y100386D01*
X105464Y99851D01*
X105548Y99305D01*
X105607Y98748D01*
X105643Y98181D01*
X105655Y97604D01*
X105638Y96938D01*
X105588Y96295D01*
X105504Y95676D01*
X105385Y95080D01*
X105234Y94507D01*
X105048Y93958D01*
X104829Y93432D01*
X104576Y92930D01*
X104291Y92454D01*
X103977Y92006D01*
X103632Y91588D01*
X103259Y91198D01*
X102855Y90838D01*
X102422Y90506D01*
X101959Y90204D01*
X101466Y89930D01*
X100947Y89687D01*
X100406Y89477D01*
X99842Y89299D01*
X99256Y89153D01*
X98648Y89039D01*
X98017Y88958D01*
X97363Y88910D01*
X96687Y88894D01*
G37*
G36*
X101546Y139436D02*
X101288Y141669D01*
X101598Y141765D01*
X101889Y141878D01*
X102159Y142008D01*
X102410Y142156D01*
X102640Y142320D01*
X102850Y142502D01*
X103041Y142701D01*
X103211Y142917D01*
X103361Y143150D01*
X103491Y143401D01*
X103602Y143668D01*
X103692Y143953D01*
X103762Y144255D01*
X103812Y144574D01*
X103842Y144910D01*
X103852Y145263D01*
X103835Y145696D01*
X103785Y146104D01*
X103701Y146489D01*
X103584Y146849D01*
X103433Y147185D01*
X103248Y147497D01*
X103030Y147785D01*
X102779Y148048D01*
X102498Y148284D01*
X102192Y148488D01*
X101860Y148661D01*
X101504Y148803D01*
X101123Y148913D01*
X100716Y148991D01*
X100285Y149038D01*
X99828Y149054D01*
X99430Y149038D01*
X99051Y148991D01*
X98692Y148912D01*
X98353Y148801D01*
X98033Y148659D01*
X97733Y148485D01*
X97452Y148279D01*
X97190Y148042D01*
X96955Y147778D01*
X96750Y147492D01*
X96577Y147184D01*
X96436Y146854D01*
X96326Y146501D01*
X96247Y146127D01*
X96200Y145731D01*
X96184Y145312D01*
X96202Y144872D01*
X96255Y144447D01*
X96343Y144038D01*
X96467Y143644D01*
X96632Y143257D01*
X96847Y142871D01*
X97111Y142485D01*
X97424Y142098D01*
X97424Y139939D01*
X88124Y140516D01*
X88124Y150342D01*
X90001Y150342D01*
X90001Y142528D01*
X95485Y142196D01*
X95226Y142566D01*
X95002Y142958D01*
X94812Y143371D01*
X94657Y143806D01*
X94536Y144264D01*
X94450Y144743D01*
X94398Y145244D01*
X94381Y145766D01*
X94404Y146388D01*
X94475Y146977D01*
X94592Y147534D01*
X94755Y148059D01*
X94966Y148551D01*
X95223Y149011D01*
X95527Y149438D01*
X95878Y149833D01*
X96266Y150188D01*
X96683Y150496D01*
X97128Y150756D01*
X97601Y150969D01*
X98103Y151135D01*
X98633Y151254D01*
X99192Y151325D01*
X99779Y151348D01*
X100116Y151342D01*
X100445Y151323D01*
X100764Y151291D01*
X101074Y151247D01*
X101375Y151190D01*
X101667Y151120D01*
X101950Y151037D01*
X102223Y150942D01*
X102743Y150713D01*
X103227Y150434D01*
X103674Y150104D01*
X104085Y149723D01*
X104453Y149297D01*
X104772Y148831D01*
X105042Y148327D01*
X105263Y147783D01*
X105435Y147200D01*
X105502Y146893D01*
X105557Y146577D01*
X105600Y146251D01*
X105631Y145915D01*
X105649Y145570D01*
X105655Y145214D01*
X105639Y144625D01*
X105589Y144064D01*
X105507Y143533D01*
X105392Y143031D01*
X105243Y142557D01*
X105062Y142113D01*
X104848Y141699D01*
X104600Y141313D01*
X104322Y140959D01*
X104014Y140639D01*
X103676Y140353D01*
X103309Y140102D01*
X102913Y139884D01*
X102486Y139701D01*
X102031Y139551D01*
X101546Y139436D01*
G37*
G36*
X88124Y152509D02*
X88124Y154975D01*
X100294Y159760D01*
X103349Y160790D01*
X100294Y161821D01*
X88124Y166581D01*
X88124Y169047D01*
X105410Y161992D01*
X105410Y159563D01*
X88124Y152509D01*
G37*
G36*
X46003Y342900D02*
X43574Y342900D01*
X50628Y360186D01*
X53290Y360186D01*
X60234Y342900D01*
X57842Y342900D01*
X55867Y347954D01*
X47991Y347954D01*
X46003Y342900D01*
G37*
%LPC*%
G36*
X55167Y349782D02*
X52947Y355487D01*
X52603Y356389D01*
X52260Y357401D01*
X51929Y358419D01*
X51818Y358076D01*
X51438Y356913D01*
X50910Y355463D01*
X48702Y349782D01*
X55167Y349782D01*
G37*
%LPD*%
G36*
X64422Y342900D02*
X62336Y342900D01*
X62336Y360186D01*
X65060Y360186D01*
X74408Y345366D01*
X74297Y347439D01*
X74270Y348227D01*
X74261Y348850D01*
X74261Y360186D01*
X76371Y360186D01*
X76371Y342900D01*
X73549Y342900D01*
X64299Y357622D01*
X64360Y356432D01*
X64422Y354383D01*
X64422Y342900D01*
G37*
G36*
X35104Y342655D02*
X34462Y342672D01*
X33842Y342723D01*
X33243Y342807D01*
X32667Y342926D01*
X32113Y343079D01*
X31581Y343265D01*
X31071Y343486D01*
X30583Y343740D01*
X30121Y344026D01*
X29686Y344341D01*
X29280Y344686D01*
X28903Y345059D01*
X28553Y345462D01*
X28232Y345893D01*
X27940Y346354D01*
X27676Y346844D01*
X27441Y347360D01*
X27238Y347900D01*
X27066Y348462D01*
X26926Y349048D01*
X26816Y349657D01*
X26738Y350289D01*
X26692Y350944D01*
X26676Y351623D01*
X26685Y352132D01*
X26711Y352628D01*
X26754Y353110D01*
X26815Y353578D01*
X26894Y354032D01*
X26990Y354471D01*
X27103Y354897D01*
X27234Y355309D01*
X27382Y355707D01*
X27548Y356091D01*
X27731Y356461D01*
X27932Y356817D01*
X28150Y357158D01*
X28385Y357486D01*
X28638Y357800D01*
X28909Y358100D01*
X29194Y358384D01*
X29494Y358649D01*
X29806Y358896D01*
X30132Y359125D01*
X30472Y359336D01*
X30825Y359528D01*
X31191Y359702D01*
X31571Y359858D01*
X31964Y359995D01*
X32371Y360114D01*
X32791Y360215D01*
X33224Y360297D01*
X33671Y360361D01*
X34131Y360407D01*
X34605Y360434D01*
X35092Y360443D01*
X35768Y360426D01*
X36415Y360376D01*
X37034Y360292D01*
X37625Y360173D01*
X38188Y360022D01*
X38722Y359836D01*
X39227Y359617D01*
X39705Y359364D01*
X40152Y359078D01*
X40569Y358759D01*
X40956Y358407D01*
X41312Y358023D01*
X41637Y357607D01*
X41931Y357158D01*
X42195Y356676D01*
X42428Y356162D01*
X40208Y355426D01*
X40046Y355792D01*
X39861Y356136D01*
X39654Y356457D01*
X39424Y356757D01*
X39171Y357034D01*
X38895Y357289D01*
X38597Y357522D01*
X38275Y357732D01*
X37935Y357919D01*
X37579Y358081D01*
X37207Y358218D01*
X36820Y358330D01*
X36417Y358417D01*
X35999Y358480D01*
X35566Y358517D01*
X35116Y358530D01*
X34762Y358522D01*
X34419Y358501D01*
X34085Y358465D01*
X33761Y358414D01*
X33447Y358349D01*
X33143Y358270D01*
X32849Y358176D01*
X32565Y358068D01*
X32290Y357945D01*
X32026Y357808D01*
X31772Y357657D01*
X31528Y357491D01*
X31294Y357311D01*
X31069Y357116D01*
X30855Y356907D01*
X30651Y356683D01*
X30277Y356200D01*
X30109Y355943D01*
X29953Y355675D01*
X29810Y355396D01*
X29679Y355106D01*
X29561Y354806D01*
X29455Y354495D01*
X29361Y354173D01*
X29280Y353841D01*
X29212Y353498D01*
X29156Y353144D01*
X29112Y352780D01*
X29081Y352405D01*
X29062Y352019D01*
X29056Y351623D01*
X29062Y351230D01*
X29082Y350848D01*
X29114Y350475D01*
X29160Y350112D01*
X29218Y349758D01*
X29290Y349415D01*
X29374Y349081D01*
X29471Y348756D01*
X29582Y348442D01*
X29705Y348137D01*
X29842Y347842D01*
X29991Y347557D01*
X30153Y347281D01*
X30329Y347015D01*
X30718Y346513D01*
X30931Y346279D01*
X31152Y346060D01*
X31383Y345856D01*
X31623Y345668D01*
X31872Y345494D01*
X32130Y345335D01*
X32397Y345192D01*
X32673Y345064D01*
X32959Y344951D01*
X33254Y344852D01*
X33558Y344769D01*
X33871Y344701D01*
X34193Y344649D01*
X34524Y344611D01*
X34865Y344588D01*
X35214Y344581D01*
X35661Y344595D01*
X36094Y344637D01*
X36513Y344707D01*
X36917Y344805D01*
X37308Y344932D01*
X37684Y345086D01*
X38047Y345269D01*
X38395Y345479D01*
X38729Y345718D01*
X39049Y345985D01*
X39355Y346280D01*
X39647Y346603D01*
X39925Y346954D01*
X40189Y347333D01*
X40438Y347740D01*
X40674Y348175D01*
X42588Y347218D01*
X42307Y346677D01*
X42000Y346169D01*
X41665Y345694D01*
X41304Y345252D01*
X40916Y344844D01*
X40500Y344470D01*
X40058Y344128D01*
X39588Y343820D01*
X39095Y343547D01*
X38583Y343310D01*
X38052Y343110D01*
X37501Y342946D01*
X36931Y342819D01*
X36341Y342728D01*
X35732Y342673D01*
X35104Y342655D01*
G37*
G36*
X350000Y230033D02*
X340132Y230033D01*
X340132Y234186D01*
X340144Y234589D01*
X340180Y234969D01*
X340241Y235326D01*
X340326Y235659D01*
X340435Y235968D01*
X340569Y236254D01*
X340727Y236517D01*
X340909Y236757D01*
X341113Y236970D01*
X341338Y237155D01*
X341582Y237311D01*
X341846Y237439D01*
X342130Y237539D01*
X342434Y237610D01*
X342758Y237653D01*
X343101Y237667D01*
X343443Y237653D01*
X343766Y237610D01*
X344071Y237538D01*
X344358Y237439D01*
X344628Y237310D01*
X344879Y237153D01*
X345113Y236967D01*
X345329Y236753D01*
X345522Y236514D01*
X345690Y236255D01*
X345832Y235975D01*
X345948Y235675D01*
X346039Y235355D01*
X346103Y235014D01*
X346142Y234652D01*
X346155Y234270D01*
X346155Y231371D01*
X350000Y231371D01*
X350000Y230033D01*
G37*
%LPC*%
G36*
X345097Y231371D02*
X345097Y234081D01*
X345090Y234352D01*
X345066Y234606D01*
X345028Y234843D01*
X344974Y235062D01*
X344904Y235263D01*
X344819Y235447D01*
X344718Y235613D01*
X344602Y235762D01*
X344470Y235893D01*
X344323Y236007D01*
X344161Y236103D01*
X343982Y236182D01*
X343789Y236243D01*
X343580Y236287D01*
X343355Y236314D01*
X343115Y236322D01*
X342884Y236313D01*
X342667Y236286D01*
X342466Y236242D01*
X342279Y236179D01*
X342107Y236098D01*
X341950Y235999D01*
X341808Y235883D01*
X341681Y235748D01*
X341569Y235595D01*
X341472Y235425D01*
X341390Y235236D01*
X341323Y235030D01*
X341270Y234806D01*
X341233Y234563D01*
X341211Y234303D01*
X341203Y234025D01*
X341203Y231371D01*
X345097Y231371D01*
G37*
%LPD*%
G36*
X350000Y239511D02*
X348928Y239511D01*
X348928Y242026D01*
X341336Y242026D01*
X342926Y239798D01*
X341736Y239798D01*
X340132Y242131D01*
X340132Y243293D01*
X348928Y243293D01*
X348928Y245696D01*
X350000Y245696D01*
X350000Y239511D01*
G37*
G36*
X347549Y221924D02*
X347332Y223234D01*
X347715Y223317D01*
X348055Y223439D01*
X348349Y223600D01*
X348599Y223801D01*
X348798Y224036D01*
X348941Y224298D01*
X348991Y224440D01*
X349026Y224589D01*
X349047Y224745D01*
X349055Y224908D01*
X349047Y225085D01*
X349023Y225253D01*
X348984Y225411D01*
X348929Y225559D01*
X348859Y225698D01*
X348773Y225827D01*
X348671Y225946D01*
X348554Y226056D01*
X348421Y226155D01*
X348274Y226240D01*
X348113Y226312D01*
X347937Y226372D01*
X347746Y226417D01*
X347541Y226450D01*
X347321Y226470D01*
X347086Y226477D01*
X341224Y226477D01*
X341224Y224579D01*
X340132Y224579D01*
X340132Y227807D01*
X347058Y227807D01*
X347408Y227795D01*
X347738Y227759D01*
X348049Y227698D01*
X348341Y227613D01*
X348614Y227504D01*
X348867Y227370D01*
X349102Y227212D01*
X349317Y227030D01*
X349510Y226827D01*
X349677Y226605D01*
X349819Y226366D01*
X349934Y226109D01*
X350024Y225834D01*
X350089Y225541D01*
X350127Y225230D01*
X350140Y224901D01*
X350130Y224595D01*
X350100Y224306D01*
X350049Y224032D01*
X349978Y223774D01*
X349887Y223533D01*
X349776Y223307D01*
X349644Y223097D01*
X349492Y222903D01*
X349320Y222725D01*
X349128Y222563D01*
X348915Y222416D01*
X348682Y222286D01*
X348429Y222172D01*
X348156Y222073D01*
X347863Y221991D01*
X347549Y221924D01*
G37*
G36*
X272850Y34217D02*
X271116Y34217D01*
X276152Y46557D01*
X278052Y46557D01*
X283010Y34217D01*
X281302Y34217D01*
X279892Y37825D01*
X274269Y37825D01*
X272850Y34217D01*
G37*
%LPC*%
G36*
X279392Y39130D02*
X277807Y43203D01*
X277562Y43847D01*
X277317Y44569D01*
X277080Y45296D01*
X277001Y45051D01*
X276730Y44221D01*
X276353Y43185D01*
X274777Y39130D01*
X279392Y39130D01*
G37*
%LPD*%
G36*
X292118Y34217D02*
X284384Y34217D01*
X284384Y35557D01*
X287529Y35557D01*
X287529Y45051D01*
X284743Y43063D01*
X284743Y44552D01*
X287660Y46557D01*
X289114Y46557D01*
X289114Y35557D01*
X292118Y35557D01*
X292118Y34217D01*
G37*
G36*
X117689Y483943D02*
X115955Y483943D01*
X120991Y496284D01*
X122892Y496284D01*
X127849Y483943D01*
X126141Y483943D01*
X124731Y487552D01*
X119108Y487552D01*
X117689Y483943D01*
G37*
%LPC*%
G36*
X124232Y488857D02*
X122647Y492930D01*
X122401Y493573D01*
X122156Y494296D01*
X121920Y495023D01*
X121841Y494778D01*
X121569Y493948D01*
X121193Y492912D01*
X119616Y488857D01*
X124232Y488857D01*
G37*
%LPD*%
G36*
X136931Y483943D02*
X128760Y483943D01*
X128760Y485056D01*
X128995Y485553D01*
X129256Y486020D01*
X129541Y486457D01*
X129850Y486864D01*
X130176Y487247D01*
X130510Y487611D01*
X130853Y487956D01*
X131203Y488283D01*
X131909Y488895D01*
X132609Y489461D01*
X133271Y490004D01*
X133866Y490547D01*
X134133Y490822D01*
X134373Y491103D01*
X134586Y491391D01*
X134772Y491686D01*
X134924Y491994D01*
X135032Y492321D01*
X135097Y492668D01*
X135118Y493035D01*
X135109Y493282D01*
X135081Y493514D01*
X135035Y493733D01*
X134969Y493937D01*
X134886Y494127D01*
X134783Y494302D01*
X134662Y494464D01*
X134523Y494611D01*
X134367Y494743D01*
X134196Y494856D01*
X134011Y494953D01*
X133811Y495032D01*
X133597Y495093D01*
X133368Y495137D01*
X133125Y495163D01*
X132867Y495172D01*
X132621Y495163D01*
X132386Y495138D01*
X132162Y495095D01*
X131949Y495035D01*
X131747Y494958D01*
X131556Y494864D01*
X131376Y494753D01*
X131208Y494624D01*
X131053Y494481D01*
X130915Y494323D01*
X130794Y494152D01*
X130690Y493966D01*
X130602Y493767D01*
X130532Y493554D01*
X130478Y493328D01*
X130441Y493087D01*
X128830Y493236D01*
X128888Y493597D01*
X128974Y493938D01*
X129089Y494261D01*
X129231Y494565D01*
X129403Y494850D01*
X129602Y495116D01*
X129830Y495364D01*
X130087Y495592D01*
X130367Y495797D01*
X130666Y495975D01*
X130985Y496126D01*
X131323Y496249D01*
X131680Y496345D01*
X132056Y496413D01*
X132452Y496454D01*
X132867Y496468D01*
X133320Y496454D01*
X133746Y496413D01*
X134145Y496344D01*
X134517Y496248D01*
X134862Y496124D01*
X135180Y495973D01*
X135472Y495794D01*
X135736Y495588D01*
X135971Y495356D01*
X136175Y495101D01*
X136347Y494824D01*
X136488Y494523D01*
X136598Y494198D01*
X136676Y493851D01*
X136723Y493481D01*
X136739Y493087D01*
X136718Y492729D01*
X136657Y492371D01*
X136554Y492015D01*
X136410Y491660D01*
X136226Y491305D01*
X136002Y490950D01*
X135738Y490595D01*
X135434Y490241D01*
X135036Y489837D01*
X134490Y489336D01*
X133796Y488738D01*
X132955Y488042D01*
X132477Y487641D01*
X132051Y487260D01*
X131676Y486899D01*
X131352Y486558D01*
X131075Y486230D01*
X130840Y485909D01*
X130646Y485593D01*
X130494Y485283D01*
X136931Y485283D01*
X136931Y483943D01*
G37*
G36*
X36751Y437388D02*
X35078Y437388D01*
X35078Y449729D01*
X40272Y449729D01*
X40776Y449714D01*
X41251Y449668D01*
X41697Y449592D01*
X42113Y449486D01*
X42501Y449349D01*
X42859Y449182D01*
X43187Y448984D01*
X43486Y448757D01*
X43753Y448501D01*
X43985Y448221D01*
X44180Y447915D01*
X44340Y447585D01*
X44465Y447230D01*
X44554Y446850D01*
X44607Y446445D01*
X44625Y446015D01*
X44607Y445588D01*
X44554Y445184D01*
X44464Y444802D01*
X44339Y444443D01*
X44179Y444106D01*
X43982Y443792D01*
X43750Y443500D01*
X43482Y443230D01*
X43183Y442988D01*
X42859Y442778D01*
X42510Y442600D01*
X42134Y442455D01*
X41733Y442342D01*
X41307Y442261D01*
X40855Y442213D01*
X40377Y442196D01*
X36751Y442196D01*
X36751Y437388D01*
G37*
%LPC*%
G36*
X40141Y443519D02*
X40480Y443529D01*
X40798Y443558D01*
X41093Y443606D01*
X41367Y443674D01*
X41619Y443761D01*
X41849Y443868D01*
X42057Y443993D01*
X42243Y444139D01*
X42407Y444303D01*
X42549Y444487D01*
X42670Y444691D01*
X42768Y444913D01*
X42845Y445155D01*
X42900Y445417D01*
X42932Y445697D01*
X42943Y445998D01*
X42932Y446287D01*
X42898Y446558D01*
X42842Y446810D01*
X42764Y447044D01*
X42663Y447259D01*
X42539Y447455D01*
X42393Y447632D01*
X42225Y447791D01*
X42034Y447931D01*
X41821Y448052D01*
X41586Y448155D01*
X41327Y448239D01*
X41047Y448305D01*
X40744Y448351D01*
X40418Y448379D01*
X40071Y448389D01*
X36751Y448389D01*
X36751Y443519D01*
X40141Y443519D01*
G37*
%LPD*%
G36*
X54618Y437388D02*
X46446Y437388D01*
X46446Y438500D01*
X46682Y438998D01*
X46942Y439465D01*
X47227Y439902D01*
X47537Y440309D01*
X47863Y440692D01*
X48197Y441056D01*
X48539Y441401D01*
X48890Y441728D01*
X49596Y442340D01*
X50296Y442906D01*
X50958Y443449D01*
X51553Y443992D01*
X51819Y444267D01*
X52060Y444548D01*
X52273Y444836D01*
X52459Y445131D01*
X52610Y445438D01*
X52719Y445766D01*
X52783Y446113D01*
X52805Y446479D01*
X52796Y446726D01*
X52768Y446959D01*
X52721Y447177D01*
X52656Y447381D01*
X52572Y447571D01*
X52470Y447747D01*
X52349Y447909D01*
X52210Y448056D01*
X52053Y448187D01*
X51883Y448301D01*
X51698Y448397D01*
X51498Y448476D01*
X51284Y448538D01*
X51055Y448581D01*
X50812Y448608D01*
X50554Y448616D01*
X50308Y448608D01*
X50073Y448582D01*
X49849Y448539D01*
X49636Y448480D01*
X49434Y448403D01*
X49243Y448309D01*
X49063Y448197D01*
X48894Y448069D01*
X48740Y447925D01*
X48602Y447768D01*
X48481Y447596D01*
X48377Y447411D01*
X48289Y447212D01*
X48219Y446999D01*
X48165Y446772D01*
X48128Y446532D01*
X46516Y446681D01*
X46574Y447041D01*
X46661Y447383D01*
X46775Y447706D01*
X46918Y448010D01*
X47090Y448295D01*
X47289Y448561D01*
X47517Y448808D01*
X47773Y449037D01*
X48053Y449242D01*
X48353Y449420D01*
X48671Y449571D01*
X49009Y449694D01*
X49367Y449790D01*
X49743Y449858D01*
X50139Y449899D01*
X50554Y449913D01*
X51007Y449899D01*
X51433Y449858D01*
X51832Y449789D01*
X52204Y449693D01*
X52549Y449569D01*
X52867Y449418D01*
X53158Y449239D01*
X53423Y449032D01*
X53658Y448801D01*
X53861Y448546D01*
X54034Y448268D01*
X54175Y447967D01*
X54284Y447643D01*
X54363Y447296D01*
X54410Y446925D01*
X54425Y446532D01*
X54405Y446173D01*
X54343Y445816D01*
X54241Y445460D01*
X54097Y445104D01*
X53913Y444750D01*
X53689Y444395D01*
X53424Y444040D01*
X53120Y443685D01*
X52722Y443282D01*
X52177Y442781D01*
X51483Y442183D01*
X50642Y441487D01*
X50164Y441085D01*
X49737Y440704D01*
X49362Y440343D01*
X49039Y440002D01*
X48762Y439675D01*
X48527Y439353D01*
X48333Y439038D01*
X48181Y438728D01*
X54618Y438728D01*
X54618Y437388D01*
G37*
G36*
X28641Y437213D02*
X28259Y437226D01*
X27897Y437263D01*
X27554Y437327D01*
X27232Y437415D01*
X26930Y437529D01*
X26647Y437669D01*
X26385Y437833D01*
X26142Y438023D01*
X25920Y438238D01*
X25717Y438479D01*
X25534Y438745D01*
X25371Y439036D01*
X25228Y439352D01*
X25105Y439694D01*
X25002Y440061D01*
X24918Y440453D01*
X26556Y440725D01*
X26602Y440478D01*
X26660Y440245D01*
X26730Y440026D01*
X26812Y439821D01*
X26907Y439630D01*
X27014Y439452D01*
X27134Y439289D01*
X27266Y439140D01*
X27408Y439006D01*
X27559Y438891D01*
X27719Y438793D01*
X27887Y438713D01*
X28065Y438650D01*
X28251Y438606D01*
X28446Y438579D01*
X28649Y438570D01*
X28871Y438580D01*
X29081Y438610D01*
X29278Y438658D01*
X29464Y438727D01*
X29637Y438815D01*
X29799Y438923D01*
X29948Y439050D01*
X30086Y439197D01*
X30209Y439362D01*
X30316Y439546D01*
X30406Y439748D01*
X30480Y439968D01*
X30537Y440207D01*
X30578Y440464D01*
X30603Y440738D01*
X30611Y441032D01*
X30611Y448362D01*
X28238Y448362D01*
X28238Y449729D01*
X32275Y449729D01*
X32275Y441067D01*
X32260Y440630D01*
X32215Y440217D01*
X32139Y439828D01*
X32032Y439463D01*
X31896Y439122D01*
X31729Y438804D01*
X31531Y438511D01*
X31303Y438242D01*
X31049Y438001D01*
X30772Y437792D01*
X30473Y437615D01*
X30152Y437470D01*
X29807Y437358D01*
X29441Y437277D01*
X29052Y437229D01*
X28641Y437213D01*
G37*
G36*
X20769Y225200D02*
X13035Y225200D01*
X13035Y226540D01*
X16179Y226540D01*
X16179Y236034D01*
X13394Y234046D01*
X13394Y235535D01*
X16311Y237541D01*
X17765Y237541D01*
X17765Y226540D01*
X20769Y226540D01*
X20769Y225200D01*
G37*
G36*
X6703Y225025D02*
X6321Y225038D01*
X5959Y225075D01*
X5616Y225139D01*
X5294Y225227D01*
X4992Y225341D01*
X4709Y225481D01*
X4447Y225645D01*
X4204Y225835D01*
X3982Y226050D01*
X3779Y226291D01*
X3596Y226557D01*
X3433Y226848D01*
X3290Y227164D01*
X3167Y227506D01*
X3064Y227873D01*
X2980Y228265D01*
X4618Y228537D01*
X4664Y228290D01*
X4722Y228057D01*
X4792Y227838D01*
X4874Y227633D01*
X4969Y227442D01*
X5076Y227264D01*
X5196Y227101D01*
X5328Y226952D01*
X5470Y226818D01*
X5621Y226703D01*
X5781Y226605D01*
X5949Y226525D01*
X6127Y226462D01*
X6313Y226418D01*
X6508Y226391D01*
X6711Y226382D01*
X6933Y226392D01*
X7143Y226422D01*
X7340Y226470D01*
X7526Y226539D01*
X7699Y226627D01*
X7861Y226735D01*
X8010Y226862D01*
X8148Y227009D01*
X8271Y227174D01*
X8378Y227358D01*
X8468Y227560D01*
X8542Y227780D01*
X8599Y228019D01*
X8640Y228276D01*
X8665Y228550D01*
X8673Y228844D01*
X8673Y236174D01*
X6300Y236174D01*
X6300Y237541D01*
X10337Y237541D01*
X10337Y228879D01*
X10322Y228442D01*
X10277Y228029D01*
X10201Y227640D01*
X10094Y227275D01*
X9958Y226934D01*
X9791Y226616D01*
X9593Y226323D01*
X9365Y226054D01*
X9111Y225813D01*
X8834Y225604D01*
X8535Y225427D01*
X8214Y225282D01*
X7869Y225170D01*
X7503Y225089D01*
X7114Y225041D01*
X6703Y225025D01*
G37*
G36*
X20743Y174400D02*
X12571Y174400D01*
X12571Y175512D01*
X12807Y176010D01*
X13067Y176477D01*
X13352Y176914D01*
X13661Y177321D01*
X13987Y177704D01*
X14321Y178068D01*
X14664Y178413D01*
X15015Y178740D01*
X15721Y179352D01*
X16420Y179918D01*
X17083Y180461D01*
X17677Y181004D01*
X17944Y181279D01*
X18184Y181560D01*
X18397Y181848D01*
X18584Y182143D01*
X18735Y182450D01*
X18843Y182778D01*
X18908Y183125D01*
X18930Y183491D01*
X18920Y183738D01*
X18892Y183971D01*
X18846Y184189D01*
X18781Y184393D01*
X18697Y184583D01*
X18595Y184759D01*
X18474Y184921D01*
X18334Y185068D01*
X18178Y185199D01*
X18007Y185313D01*
X17822Y185409D01*
X17622Y185488D01*
X17408Y185550D01*
X17180Y185593D01*
X16936Y185620D01*
X16679Y185628D01*
X16432Y185620D01*
X16197Y185594D01*
X15973Y185551D01*
X15760Y185492D01*
X15558Y185415D01*
X15367Y185321D01*
X15188Y185209D01*
X15019Y185081D01*
X14864Y184937D01*
X14726Y184780D01*
X14605Y184608D01*
X14501Y184423D01*
X14414Y184224D01*
X14343Y184011D01*
X14289Y183784D01*
X14253Y183544D01*
X12641Y183693D01*
X12699Y184053D01*
X12785Y184395D01*
X12900Y184718D01*
X13043Y185022D01*
X13214Y185307D01*
X13414Y185573D01*
X13642Y185820D01*
X13898Y186049D01*
X14178Y186254D01*
X14477Y186432D01*
X14796Y186583D01*
X15134Y186706D01*
X15491Y186802D01*
X15868Y186870D01*
X16263Y186911D01*
X16679Y186925D01*
X17132Y186911D01*
X17558Y186870D01*
X17956Y186801D01*
X18329Y186705D01*
X18674Y186581D01*
X18992Y186430D01*
X19283Y186251D01*
X19547Y186044D01*
X19782Y185813D01*
X19986Y185558D01*
X20158Y185280D01*
X20299Y184979D01*
X20409Y184655D01*
X20487Y184308D01*
X20534Y183937D01*
X20550Y183544D01*
X20529Y183185D01*
X20468Y182828D01*
X20365Y182472D01*
X20221Y182116D01*
X20037Y181762D01*
X19813Y181407D01*
X19549Y181052D01*
X19245Y180697D01*
X18847Y180294D01*
X18301Y179793D01*
X17608Y179195D01*
X16766Y178499D01*
X16288Y178097D01*
X15862Y177716D01*
X15487Y177355D01*
X15163Y177014D01*
X14886Y176687D01*
X14651Y176365D01*
X14457Y176050D01*
X14305Y175740D01*
X20743Y175740D01*
X20743Y174400D01*
G37*
G36*
X6703Y174225D02*
X6321Y174238D01*
X5959Y174275D01*
X5616Y174339D01*
X5294Y174427D01*
X4992Y174541D01*
X4709Y174681D01*
X4447Y174845D01*
X4204Y175035D01*
X3982Y175250D01*
X3779Y175491D01*
X3596Y175757D01*
X3433Y176048D01*
X3290Y176364D01*
X3167Y176706D01*
X3064Y177073D01*
X2980Y177465D01*
X4618Y177737D01*
X4664Y177490D01*
X4722Y177257D01*
X4792Y177038D01*
X4874Y176833D01*
X4969Y176642D01*
X5076Y176464D01*
X5196Y176301D01*
X5328Y176152D01*
X5470Y176018D01*
X5621Y175903D01*
X5781Y175805D01*
X5949Y175725D01*
X6127Y175662D01*
X6313Y175618D01*
X6508Y175591D01*
X6711Y175582D01*
X6933Y175592D01*
X7143Y175622D01*
X7340Y175670D01*
X7526Y175739D01*
X7699Y175827D01*
X7861Y175935D01*
X8010Y176062D01*
X8148Y176209D01*
X8271Y176374D01*
X8378Y176558D01*
X8468Y176760D01*
X8542Y176980D01*
X8599Y177219D01*
X8640Y177476D01*
X8665Y177750D01*
X8673Y178044D01*
X8673Y185374D01*
X6300Y185374D01*
X6300Y186741D01*
X10337Y186741D01*
X10337Y178079D01*
X10322Y177642D01*
X10277Y177229D01*
X10201Y176840D01*
X10094Y176475D01*
X9958Y176134D01*
X9791Y175816D01*
X9593Y175523D01*
X9365Y175254D01*
X9111Y175013D01*
X8834Y174804D01*
X8535Y174627D01*
X8214Y174482D01*
X7869Y174370D01*
X7503Y174289D01*
X7114Y174241D01*
X6703Y174225D01*
G37*
D10*
X352300Y285750D02*
X352300Y298450D01*
X358650Y304800D01*
X371350Y304800D01*
X377700Y298450D01*
X352300Y260350D02*
X358650Y254000D01*
X352300Y260350D02*
X352300Y273050D01*
X358650Y279400D01*
X371350Y279400D01*
X377700Y273050D01*
X377700Y260350D01*
X371350Y254000D01*
X358650Y279400D02*
X352300Y285750D01*
X371350Y279400D02*
X377700Y285750D01*
X377700Y298450D01*
X352300Y222250D02*
X352300Y209550D01*
X352300Y222250D02*
X358650Y228600D01*
X371350Y228600D01*
X377700Y222250D01*
X358650Y228600D02*
X352300Y234950D01*
X352300Y247650D01*
X358650Y254000D01*
X371350Y254000D01*
X377700Y247650D01*
X377700Y234950D01*
X371350Y228600D01*
X371350Y203200D02*
X358650Y203200D01*
X352300Y209550D01*
X371350Y203200D02*
X377700Y209550D01*
X377700Y222250D01*
X352300Y311150D02*
X352300Y323850D01*
X358650Y330200D01*
X371350Y330200D01*
X377700Y323850D01*
X358650Y304800D02*
X352300Y311150D01*
X371350Y304800D02*
X377700Y311150D01*
X377700Y323850D01*
X292100Y50800D02*
X228600Y50800D01*
X177800Y50800D01*
X114300Y50800D01*
X114300Y254000D01*
X292100Y254000D02*
X292100Y50800D01*
X292100Y254000D02*
X114300Y254000D01*
X203200Y76200D02*
X203814Y76193D01*
X204427Y76170D01*
X205040Y76133D01*
X205651Y76081D01*
X206262Y76015D01*
X206870Y75933D01*
X207476Y75837D01*
X208080Y75727D01*
X208681Y75602D01*
X209279Y75462D01*
X209873Y75308D01*
X210463Y75139D01*
X211049Y74957D01*
X211630Y74760D01*
X212207Y74549D01*
X212778Y74325D01*
X213344Y74087D01*
X213904Y73835D01*
X214457Y73569D01*
X215004Y73291D01*
X215544Y72999D01*
X216077Y72694D01*
X216602Y72376D01*
X217120Y72046D01*
X217629Y71704D01*
X218130Y71349D01*
X218622Y70982D01*
X219105Y70604D01*
X219579Y70214D01*
X220043Y69812D01*
X220498Y69400D01*
X220942Y68976D01*
X221376Y68542D01*
X221800Y68098D01*
X222212Y67643D01*
X222614Y67179D01*
X223004Y66705D01*
X223382Y66222D01*
X223749Y65730D01*
X224104Y65229D01*
X224446Y64720D01*
X224776Y64202D01*
X225094Y63677D01*
X225399Y63144D01*
X225691Y62604D01*
X225969Y62057D01*
X226235Y61504D01*
X226487Y60944D01*
X226725Y60378D01*
X226949Y59807D01*
X227160Y59230D01*
X227357Y58649D01*
X227539Y58063D01*
X227708Y57473D01*
X227862Y56879D01*
X228002Y56281D01*
X228127Y55680D01*
X228237Y55076D01*
X228333Y54470D01*
X228415Y53862D01*
X228481Y53251D01*
X228533Y52640D01*
X228570Y52027D01*
X228593Y51414D01*
X228600Y50800D01*
X203200Y76200D02*
X202586Y76193D01*
X201973Y76170D01*
X201360Y76133D01*
X200749Y76081D01*
X200138Y76015D01*
X199530Y75933D01*
X198924Y75837D01*
X198320Y75727D01*
X197719Y75602D01*
X197121Y75462D01*
X196527Y75308D01*
X195937Y75139D01*
X195351Y74957D01*
X194770Y74760D01*
X194193Y74549D01*
X193622Y74325D01*
X193056Y74087D01*
X192496Y73835D01*
X191943Y73569D01*
X191396Y73291D01*
X190856Y72999D01*
X190323Y72694D01*
X189798Y72376D01*
X189280Y72046D01*
X188771Y71704D01*
X188270Y71349D01*
X187778Y70982D01*
X187295Y70604D01*
X186821Y70214D01*
X186357Y69812D01*
X185902Y69400D01*
X185458Y68976D01*
X185024Y68542D01*
X184600Y68098D01*
X184188Y67643D01*
X183786Y67179D01*
X183396Y66705D01*
X183018Y66222D01*
X182651Y65730D01*
X182296Y65229D01*
X181954Y64720D01*
X181624Y64202D01*
X181306Y63677D01*
X181001Y63144D01*
X180709Y62604D01*
X180431Y62057D01*
X180165Y61504D01*
X179913Y60944D01*
X179675Y60378D01*
X179451Y59807D01*
X179240Y59230D01*
X179043Y58649D01*
X178861Y58063D01*
X178692Y57473D01*
X178538Y56879D01*
X178398Y56281D01*
X178273Y55680D01*
X178163Y55076D01*
X178067Y54470D01*
X177985Y53862D01*
X177919Y53251D01*
X177867Y52640D01*
X177830Y52027D01*
X177807Y51414D01*
X177800Y50800D01*
X177800Y482600D02*
X114300Y482600D01*
X177800Y482600D02*
X228600Y482600D01*
X292100Y482600D01*
X292100Y279400D01*
X114300Y279400D02*
X114300Y482600D01*
X114300Y279400D02*
X292100Y279400D01*
X203200Y457200D02*
X202586Y457207D01*
X201973Y457230D01*
X201360Y457267D01*
X200749Y457319D01*
X200138Y457385D01*
X199530Y457467D01*
X198924Y457563D01*
X198320Y457673D01*
X197719Y457798D01*
X197121Y457938D01*
X196527Y458092D01*
X195937Y458261D01*
X195351Y458443D01*
X194770Y458640D01*
X194193Y458851D01*
X193622Y459075D01*
X193056Y459313D01*
X192496Y459565D01*
X191943Y459831D01*
X191396Y460109D01*
X190856Y460401D01*
X190323Y460706D01*
X189798Y461024D01*
X189280Y461354D01*
X188771Y461696D01*
X188270Y462051D01*
X187778Y462418D01*
X187295Y462796D01*
X186821Y463186D01*
X186357Y463588D01*
X185902Y464000D01*
X185458Y464424D01*
X185024Y464858D01*
X184600Y465302D01*
X184188Y465757D01*
X183786Y466221D01*
X183396Y466695D01*
X183018Y467178D01*
X182651Y467670D01*
X182296Y468171D01*
X181954Y468680D01*
X181624Y469198D01*
X181306Y469723D01*
X181001Y470256D01*
X180709Y470796D01*
X180431Y471343D01*
X180165Y471896D01*
X179913Y472456D01*
X179675Y473022D01*
X179451Y473593D01*
X179240Y474170D01*
X179043Y474751D01*
X178861Y475337D01*
X178692Y475927D01*
X178538Y476521D01*
X178398Y477119D01*
X178273Y477720D01*
X178163Y478324D01*
X178067Y478930D01*
X177985Y479538D01*
X177919Y480149D01*
X177867Y480760D01*
X177830Y481373D01*
X177807Y481986D01*
X177800Y482600D01*
X203200Y457200D02*
X203814Y457207D01*
X204427Y457230D01*
X205040Y457267D01*
X205651Y457319D01*
X206262Y457385D01*
X206870Y457467D01*
X207476Y457563D01*
X208080Y457673D01*
X208681Y457798D01*
X209279Y457938D01*
X209873Y458092D01*
X210463Y458261D01*
X211049Y458443D01*
X211630Y458640D01*
X212207Y458851D01*
X212778Y459075D01*
X213344Y459313D01*
X213904Y459565D01*
X214457Y459831D01*
X215004Y460109D01*
X215544Y460401D01*
X216077Y460706D01*
X216602Y461024D01*
X217120Y461354D01*
X217629Y461696D01*
X218130Y462051D01*
X218622Y462418D01*
X219105Y462796D01*
X219579Y463186D01*
X220043Y463588D01*
X220498Y464000D01*
X220942Y464424D01*
X221376Y464858D01*
X221800Y465302D01*
X222212Y465757D01*
X222614Y466221D01*
X223004Y466695D01*
X223382Y467178D01*
X223749Y467670D01*
X224104Y468171D01*
X224446Y468680D01*
X224776Y469198D01*
X225094Y469723D01*
X225399Y470256D01*
X225691Y470796D01*
X225969Y471343D01*
X226235Y471896D01*
X226487Y472456D01*
X226725Y473022D01*
X226949Y473593D01*
X227160Y474170D01*
X227357Y474751D01*
X227539Y475337D01*
X227708Y475927D01*
X227862Y476521D01*
X228002Y477119D01*
X228127Y477720D01*
X228237Y478324D01*
X228333Y478930D01*
X228415Y479538D01*
X228481Y480149D01*
X228533Y480760D01*
X228570Y481373D01*
X228593Y481986D01*
X228600Y482600D01*
X44450Y431800D02*
X31750Y431800D01*
X44450Y431800D02*
X50800Y425450D01*
X50800Y412750D01*
X44450Y406400D01*
X25400Y412750D02*
X25400Y425450D01*
X31750Y431800D01*
X25400Y412750D02*
X31750Y406400D01*
X44450Y406400D01*
X50800Y425450D02*
X57150Y431800D01*
X69850Y431800D01*
X76200Y425450D01*
X76200Y412750D01*
X69850Y406400D01*
X57150Y406400D01*
X50800Y412750D01*
D11*
X73000Y317500D02*
X0Y317500D01*
X0Y242500D02*
X73000Y242500D01*
X73000Y317500D01*
X0Y317500D02*
X0Y242500D01*
D12*
X35000Y324000D02*
X35002Y324063D01*
X35008Y324125D01*
X35018Y324187D01*
X35031Y324249D01*
X35049Y324309D01*
X35070Y324368D01*
X35095Y324426D01*
X35124Y324482D01*
X35156Y324536D01*
X35191Y324588D01*
X35229Y324637D01*
X35271Y324685D01*
X35315Y324729D01*
X35363Y324771D01*
X35412Y324809D01*
X35464Y324844D01*
X35518Y324876D01*
X35574Y324905D01*
X35632Y324930D01*
X35691Y324951D01*
X35751Y324969D01*
X35813Y324982D01*
X35875Y324992D01*
X35937Y324998D01*
X36000Y325000D01*
X36063Y324998D01*
X36125Y324992D01*
X36187Y324982D01*
X36249Y324969D01*
X36309Y324951D01*
X36368Y324930D01*
X36426Y324905D01*
X36482Y324876D01*
X36536Y324844D01*
X36588Y324809D01*
X36637Y324771D01*
X36685Y324729D01*
X36729Y324685D01*
X36771Y324637D01*
X36809Y324588D01*
X36844Y324536D01*
X36876Y324482D01*
X36905Y324426D01*
X36930Y324368D01*
X36951Y324309D01*
X36969Y324249D01*
X36982Y324187D01*
X36992Y324125D01*
X36998Y324063D01*
X37000Y324000D01*
X36998Y323937D01*
X36992Y323875D01*
X36982Y323813D01*
X36969Y323751D01*
X36951Y323691D01*
X36930Y323632D01*
X36905Y323574D01*
X36876Y323518D01*
X36844Y323464D01*
X36809Y323412D01*
X36771Y323363D01*
X36729Y323315D01*
X36685Y323271D01*
X36637Y323229D01*
X36588Y323191D01*
X36536Y323156D01*
X36482Y323124D01*
X36426Y323095D01*
X36368Y323070D01*
X36309Y323049D01*
X36249Y323031D01*
X36187Y323018D01*
X36125Y323008D01*
X36063Y323002D01*
X36000Y323000D01*
X35937Y323002D01*
X35875Y323008D01*
X35813Y323018D01*
X35751Y323031D01*
X35691Y323049D01*
X35632Y323070D01*
X35574Y323095D01*
X35518Y323124D01*
X35464Y323156D01*
X35412Y323191D01*
X35363Y323229D01*
X35315Y323271D01*
X35271Y323315D01*
X35229Y323363D01*
X35191Y323412D01*
X35156Y323464D01*
X35124Y323518D01*
X35095Y323574D01*
X35070Y323632D01*
X35049Y323691D01*
X35031Y323751D01*
X35018Y323813D01*
X35008Y323875D01*
X35002Y323937D01*
X35000Y324000D01*
D11*
X0Y165100D02*
X73000Y165100D01*
X73000Y90100D02*
X0Y90100D01*
X73000Y90100D02*
X73000Y165100D01*
X0Y165100D02*
X0Y90100D01*
D12*
X35000Y171600D02*
X35002Y171663D01*
X35008Y171725D01*
X35018Y171787D01*
X35031Y171849D01*
X35049Y171909D01*
X35070Y171968D01*
X35095Y172026D01*
X35124Y172082D01*
X35156Y172136D01*
X35191Y172188D01*
X35229Y172237D01*
X35271Y172285D01*
X35315Y172329D01*
X35363Y172371D01*
X35412Y172409D01*
X35464Y172444D01*
X35518Y172476D01*
X35574Y172505D01*
X35632Y172530D01*
X35691Y172551D01*
X35751Y172569D01*
X35813Y172582D01*
X35875Y172592D01*
X35937Y172598D01*
X36000Y172600D01*
X36063Y172598D01*
X36125Y172592D01*
X36187Y172582D01*
X36249Y172569D01*
X36309Y172551D01*
X36368Y172530D01*
X36426Y172505D01*
X36482Y172476D01*
X36536Y172444D01*
X36588Y172409D01*
X36637Y172371D01*
X36685Y172329D01*
X36729Y172285D01*
X36771Y172237D01*
X36809Y172188D01*
X36844Y172136D01*
X36876Y172082D01*
X36905Y172026D01*
X36930Y171968D01*
X36951Y171909D01*
X36969Y171849D01*
X36982Y171787D01*
X36992Y171725D01*
X36998Y171663D01*
X37000Y171600D01*
X36998Y171537D01*
X36992Y171475D01*
X36982Y171413D01*
X36969Y171351D01*
X36951Y171291D01*
X36930Y171232D01*
X36905Y171174D01*
X36876Y171118D01*
X36844Y171064D01*
X36809Y171012D01*
X36771Y170963D01*
X36729Y170915D01*
X36685Y170871D01*
X36637Y170829D01*
X36588Y170791D01*
X36536Y170756D01*
X36482Y170724D01*
X36426Y170695D01*
X36368Y170670D01*
X36309Y170649D01*
X36249Y170631D01*
X36187Y170618D01*
X36125Y170608D01*
X36063Y170602D01*
X36000Y170600D01*
X35937Y170602D01*
X35875Y170608D01*
X35813Y170618D01*
X35751Y170631D01*
X35691Y170649D01*
X35632Y170670D01*
X35574Y170695D01*
X35518Y170724D01*
X35464Y170756D01*
X35412Y170791D01*
X35363Y170829D01*
X35315Y170871D01*
X35271Y170915D01*
X35229Y170963D01*
X35191Y171012D01*
X35156Y171064D01*
X35124Y171118D01*
X35095Y171174D01*
X35070Y171232D01*
X35049Y171291D01*
X35031Y171351D01*
X35018Y171413D01*
X35008Y171475D01*
X35002Y171537D01*
X35000Y171600D01*
M02*
