G04 EAGLE Gerber RS-274X export*
G75*
%MOMM*%
%FSLAX34Y34*%
%LPD*%
%INTop Copper*%
%IPPOS*%
%AMOC8*
5,1,8,0,0,1.08239X$1,22.5*%
G01*
G04 Define Apertures*
%ADD10C,1.524000*%
%ADD11C,1.524000*%
%ADD12R,1.650000X1.650000*%
%ADD13C,1.650000*%
%ADD14R,1.358000X1.358000*%
%ADD15C,1.358000*%
%ADD16C,0.508000*%
%ADD17C,0.254000*%
G36*
X454512Y10172D02*
X454263Y10160D01*
X50037Y10160D01*
X48837Y10461D01*
X48059Y11106D01*
X47594Y12004D01*
X47516Y13011D01*
X47837Y13970D01*
X48832Y15694D01*
X50546Y22089D01*
X50546Y28711D01*
X48832Y35106D01*
X45522Y40840D01*
X40840Y45522D01*
X35106Y48832D01*
X28711Y50546D01*
X22089Y50546D01*
X15694Y48832D01*
X13970Y47837D01*
X12781Y47498D01*
X11784Y47667D01*
X10933Y48212D01*
X10361Y49046D01*
X10160Y50037D01*
X10160Y419863D01*
X10461Y421063D01*
X11106Y421841D01*
X12004Y422306D01*
X13011Y422384D01*
X13970Y422063D01*
X15694Y421068D01*
X22089Y419354D01*
X28711Y419354D01*
X35106Y421068D01*
X40840Y424378D01*
X45249Y428787D01*
X45980Y429297D01*
X46964Y429530D01*
X47961Y429360D01*
X48812Y428816D01*
X49384Y427982D01*
X49585Y426991D01*
X49585Y414432D01*
X50977Y411071D01*
X53550Y408499D01*
X56910Y407107D01*
X60548Y407107D01*
X63091Y408160D01*
X63982Y408352D01*
X64979Y408183D01*
X65830Y407638D01*
X66402Y406804D01*
X66603Y405814D01*
X66603Y367126D01*
X66417Y366173D01*
X65859Y365330D01*
X51045Y350516D01*
X50239Y349973D01*
X49248Y349772D01*
X48314Y349772D01*
X47398Y349942D01*
X46547Y350487D01*
X45975Y351321D01*
X45774Y352312D01*
X45774Y369881D01*
X44881Y370774D01*
X27119Y370774D01*
X26226Y369881D01*
X26226Y352119D01*
X27119Y351226D01*
X30666Y351226D01*
X31582Y351055D01*
X32433Y350510D01*
X33005Y349677D01*
X33206Y348686D01*
X33206Y347143D01*
X34537Y345811D01*
X35064Y345043D01*
X35281Y344056D01*
X35096Y343062D01*
X34537Y342219D01*
X33206Y340888D01*
X33206Y337119D01*
X33028Y336185D01*
X32476Y335337D01*
X31638Y334773D01*
X30464Y334286D01*
X27714Y331536D01*
X26226Y327944D01*
X26226Y324056D01*
X27714Y320464D01*
X30464Y317714D01*
X34056Y316226D01*
X37944Y316226D01*
X41536Y317714D01*
X44286Y320464D01*
X45774Y324056D01*
X45774Y327944D01*
X44286Y331536D01*
X41485Y334338D01*
X40975Y335069D01*
X40742Y336053D01*
X40911Y337050D01*
X41456Y337901D01*
X42290Y338473D01*
X43281Y338674D01*
X52853Y338674D01*
X76255Y362076D01*
X76255Y405814D01*
X76419Y406710D01*
X76957Y407566D01*
X77786Y408145D01*
X78775Y408354D01*
X79767Y408160D01*
X82310Y407107D01*
X85948Y407107D01*
X89309Y408499D01*
X91881Y411071D01*
X93273Y414432D01*
X93273Y433310D01*
X91881Y436671D01*
X89309Y439243D01*
X85948Y440635D01*
X82310Y440635D01*
X78950Y439243D01*
X76377Y436671D01*
X74985Y433310D01*
X74985Y419730D01*
X74799Y418777D01*
X74241Y417934D01*
X73225Y416918D01*
X72457Y416392D01*
X71470Y416175D01*
X70476Y416360D01*
X69633Y416918D01*
X68617Y417934D01*
X68074Y418740D01*
X67873Y419730D01*
X67873Y433310D01*
X66481Y436671D01*
X63909Y439243D01*
X60548Y440635D01*
X56910Y440635D01*
X54058Y439453D01*
X53167Y439261D01*
X52170Y439431D01*
X51319Y439976D01*
X50747Y440809D01*
X50546Y441800D01*
X50546Y447811D01*
X48832Y454206D01*
X47895Y455830D01*
X47556Y457019D01*
X47725Y458016D01*
X48270Y458867D01*
X49104Y459439D01*
X50094Y459640D01*
X433674Y459640D01*
X433896Y459630D01*
X452845Y457972D01*
X453281Y457896D01*
X471655Y452972D01*
X472071Y452821D01*
X489311Y444782D01*
X489694Y444561D01*
X505276Y433650D01*
X505615Y433366D01*
X519066Y419915D01*
X519350Y419576D01*
X530261Y403994D01*
X530482Y403611D01*
X538521Y386371D01*
X538672Y385955D01*
X543596Y367581D01*
X543672Y367145D01*
X545330Y348196D01*
X545340Y347974D01*
X545340Y101237D01*
X545328Y100988D01*
X543627Y83715D01*
X543529Y83227D01*
X538491Y66618D01*
X538301Y66158D01*
X530119Y50851D01*
X529842Y50437D01*
X518832Y37021D01*
X518480Y36668D01*
X505063Y25658D01*
X504649Y25381D01*
X489342Y17199D01*
X488882Y17009D01*
X472273Y11971D01*
X471785Y11873D01*
X454512Y10172D01*
G37*
%LPC*%
G36*
X290281Y409956D02*
X293919Y409956D01*
X297280Y411348D01*
X299852Y413920D01*
X301244Y417281D01*
X301244Y420919D01*
X299852Y424280D01*
X297280Y426852D01*
X293919Y428244D01*
X290281Y428244D01*
X286920Y426852D01*
X284348Y424280D01*
X282956Y420919D01*
X282956Y417281D01*
X284348Y413920D01*
X286920Y411348D01*
X290281Y409956D01*
G37*
G36*
X137881Y41656D02*
X141519Y41656D01*
X144880Y43048D01*
X147452Y45620D01*
X148844Y48981D01*
X148844Y52619D01*
X147452Y55980D01*
X144880Y58552D01*
X141519Y59944D01*
X137881Y59944D01*
X134520Y58552D01*
X131628Y55660D01*
X131613Y55637D01*
X130779Y55065D01*
X129789Y54864D01*
X64625Y54864D01*
X63672Y55050D01*
X62829Y55608D01*
X46364Y72073D01*
X45829Y72860D01*
X45620Y73849D01*
X45774Y74638D01*
X45774Y78634D01*
X44286Y82226D01*
X41536Y84976D01*
X37944Y86464D01*
X33960Y86464D01*
X33220Y86311D01*
X32226Y86496D01*
X31383Y87054D01*
X28494Y89944D01*
X27951Y90749D01*
X27750Y91740D01*
X27750Y99627D01*
X27913Y100524D01*
X28451Y101380D01*
X29281Y101958D01*
X30270Y102167D01*
X31262Y101974D01*
X33854Y100900D01*
X34730Y100900D01*
X34730Y122480D01*
X33854Y122480D01*
X31262Y121406D01*
X30371Y121214D01*
X29374Y121384D01*
X28523Y121929D01*
X27951Y122762D01*
X27750Y123753D01*
X27750Y134376D01*
X27921Y135292D01*
X28465Y136143D01*
X29299Y136715D01*
X30290Y136916D01*
X44881Y136916D01*
X45774Y137809D01*
X45774Y140877D01*
X45952Y141812D01*
X46504Y142659D01*
X47342Y143224D01*
X47392Y143245D01*
X178739Y274592D01*
X179545Y275135D01*
X180535Y275336D01*
X281978Y275336D01*
X282875Y275172D01*
X283731Y274634D01*
X284309Y273805D01*
X284518Y272816D01*
X284325Y271824D01*
X282956Y268519D01*
X282956Y264881D01*
X284348Y261520D01*
X286920Y258948D01*
X290281Y257556D01*
X293919Y257556D01*
X297280Y258948D01*
X299852Y261520D01*
X301244Y264881D01*
X301244Y268519D01*
X299875Y271824D01*
X299683Y272715D01*
X299852Y273712D01*
X300397Y274563D01*
X301231Y275135D01*
X302222Y275336D01*
X304618Y275336D01*
X306112Y275955D01*
X403369Y373212D01*
X404175Y373755D01*
X405165Y373956D01*
X414101Y373956D01*
X414994Y374849D01*
X414994Y389691D01*
X414101Y390584D01*
X399259Y390584D01*
X398366Y389691D01*
X398366Y380755D01*
X398180Y379802D01*
X397622Y378959D01*
X304829Y286166D01*
X304116Y285665D01*
X303134Y285424D01*
X302136Y285586D01*
X301280Y286124D01*
X300702Y286953D01*
X300493Y287942D01*
X300686Y288934D01*
X301244Y290281D01*
X301244Y293919D01*
X299852Y297280D01*
X297280Y299852D01*
X293919Y301244D01*
X290281Y301244D01*
X286920Y299852D01*
X284348Y297280D01*
X282956Y293919D01*
X282956Y290281D01*
X284325Y286976D01*
X284517Y286085D01*
X284348Y285088D01*
X283803Y284237D01*
X282969Y283665D01*
X281978Y283464D01*
X176992Y283464D01*
X175498Y282845D01*
X151729Y259076D01*
X151016Y258575D01*
X150034Y258334D01*
X149036Y258496D01*
X148180Y259034D01*
X147602Y259863D01*
X147393Y260852D01*
X147586Y261844D01*
X148844Y264881D01*
X148844Y268519D01*
X147452Y271880D01*
X144880Y274452D01*
X141519Y275844D01*
X137881Y275844D01*
X134520Y274452D01*
X131948Y271880D01*
X130556Y268519D01*
X130556Y264881D01*
X131948Y261520D01*
X134520Y258948D01*
X137881Y257556D01*
X141519Y257556D01*
X144556Y258814D01*
X145406Y259004D01*
X146406Y258851D01*
X147266Y258320D01*
X147851Y257495D01*
X148068Y256508D01*
X147882Y255514D01*
X147324Y254671D01*
X48795Y156142D01*
X48027Y155616D01*
X47040Y155399D01*
X46046Y155584D01*
X45203Y156142D01*
X44881Y156464D01*
X30290Y156464D01*
X29374Y156635D01*
X28523Y157180D01*
X27951Y158013D01*
X27750Y159004D01*
X27750Y189818D01*
X27936Y190772D01*
X28494Y191614D01*
X124521Y287642D01*
X125140Y289136D01*
X125140Y389532D01*
X125290Y390391D01*
X125814Y391255D01*
X126634Y391846D01*
X127619Y392071D01*
X128615Y391894D01*
X129462Y391342D01*
X130027Y390504D01*
X131087Y387945D01*
X133945Y385087D01*
X137679Y383540D01*
X138430Y383540D01*
X138430Y403860D01*
X137679Y403860D01*
X136722Y403463D01*
X135871Y403273D01*
X134872Y403427D01*
X134012Y403958D01*
X133427Y404782D01*
X133210Y405770D01*
X133395Y406763D01*
X133953Y407606D01*
X135565Y409218D01*
X136355Y409754D01*
X137344Y409962D01*
X137376Y409956D01*
X137376Y409956D01*
X141519Y409956D01*
X144880Y411348D01*
X147452Y413920D01*
X148844Y417281D01*
X148844Y420919D01*
X147452Y424280D01*
X144880Y426852D01*
X141519Y428244D01*
X137881Y428244D01*
X134520Y426852D01*
X131948Y424280D01*
X130556Y420919D01*
X130556Y416829D01*
X130562Y416802D01*
X130376Y415808D01*
X129818Y414965D01*
X117631Y402778D01*
X117012Y401285D01*
X117012Y292679D01*
X116826Y291726D01*
X116268Y290883D01*
X50110Y224725D01*
X49379Y224215D01*
X48395Y223983D01*
X47398Y224152D01*
X46547Y224697D01*
X45975Y225531D01*
X45845Y226174D01*
X44286Y229936D01*
X41536Y232686D01*
X37944Y234174D01*
X34056Y234174D01*
X30464Y232686D01*
X27714Y229936D01*
X26226Y226344D01*
X26226Y222456D01*
X27714Y218864D01*
X30464Y216114D01*
X34190Y214571D01*
X34757Y214470D01*
X35617Y213938D01*
X36202Y213114D01*
X36418Y212127D01*
X36233Y211133D01*
X35675Y210290D01*
X20241Y194856D01*
X19622Y193362D01*
X19622Y88196D01*
X20241Y86702D01*
X25636Y81307D01*
X26171Y80520D01*
X26380Y79531D01*
X26226Y78742D01*
X26226Y74746D01*
X27714Y71154D01*
X30464Y68404D01*
X34056Y66916D01*
X38040Y66916D01*
X38780Y67070D01*
X39774Y66884D01*
X40617Y66326D01*
X59588Y47355D01*
X61082Y46736D01*
X129789Y46736D01*
X130722Y46558D01*
X131570Y46007D01*
X131590Y45977D01*
X131591Y45978D01*
X134520Y43048D01*
X137881Y41656D01*
G37*
G36*
X140970Y394970D02*
X149860Y394970D01*
X149860Y395721D01*
X148313Y399455D01*
X145455Y402313D01*
X141721Y403860D01*
X140970Y403860D01*
X140970Y394970D01*
G37*
G36*
X290281Y384556D02*
X293919Y384556D01*
X297280Y385948D01*
X299852Y388520D01*
X301244Y391881D01*
X301244Y395519D01*
X299852Y398880D01*
X297280Y401452D01*
X293919Y402844D01*
X290281Y402844D01*
X286920Y401452D01*
X284348Y398880D01*
X282956Y395519D01*
X282956Y391881D01*
X284348Y388520D01*
X286920Y385948D01*
X290281Y384556D01*
G37*
G36*
X501643Y343154D02*
X508265Y343154D01*
X514660Y344868D01*
X520394Y348178D01*
X525076Y352860D01*
X528386Y358594D01*
X530100Y364989D01*
X530100Y371611D01*
X528386Y378006D01*
X525076Y383740D01*
X520394Y388422D01*
X514660Y391732D01*
X508265Y393446D01*
X501643Y393446D01*
X495248Y391732D01*
X489514Y388422D01*
X484832Y383740D01*
X481522Y378006D01*
X479808Y371611D01*
X479808Y364989D01*
X481522Y358594D01*
X484832Y352860D01*
X489514Y348178D01*
X495248Y344868D01*
X501643Y343154D01*
G37*
G36*
X140970Y383540D02*
X141721Y383540D01*
X145455Y385087D01*
X148313Y387945D01*
X149860Y391679D01*
X149860Y392430D01*
X140970Y392430D01*
X140970Y383540D01*
G37*
G36*
X442950Y383540D02*
X451010Y383540D01*
X451010Y384126D01*
X449590Y387555D01*
X446965Y390180D01*
X443536Y391600D01*
X442950Y391600D01*
X442950Y383540D01*
G37*
G36*
X432350Y383540D02*
X440410Y383540D01*
X440410Y391600D01*
X439824Y391600D01*
X436395Y390180D01*
X433770Y387555D01*
X432350Y384126D01*
X432350Y383540D01*
G37*
G36*
X439824Y372940D02*
X440410Y372940D01*
X440410Y381000D01*
X432350Y381000D01*
X432350Y380414D01*
X433770Y376985D01*
X436395Y374360D01*
X439824Y372940D01*
G37*
G36*
X442950Y372940D02*
X443536Y372940D01*
X446965Y374360D01*
X449590Y376985D01*
X451010Y380414D01*
X451010Y381000D01*
X442950Y381000D01*
X442950Y372940D01*
G37*
G36*
X290281Y359156D02*
X293919Y359156D01*
X297280Y360548D01*
X299852Y363120D01*
X301244Y366481D01*
X301244Y370119D01*
X299852Y373480D01*
X297280Y376052D01*
X293919Y377444D01*
X290281Y377444D01*
X286920Y376052D01*
X284348Y373480D01*
X282956Y370119D01*
X282956Y366481D01*
X284348Y363120D01*
X286920Y360548D01*
X290281Y359156D01*
G37*
G36*
X137881Y359156D02*
X141519Y359156D01*
X144880Y360548D01*
X147452Y363120D01*
X148844Y366481D01*
X148844Y370119D01*
X147452Y373480D01*
X144880Y376052D01*
X141519Y377444D01*
X137881Y377444D01*
X134520Y376052D01*
X131948Y373480D01*
X130556Y370119D01*
X130556Y366481D01*
X131948Y363120D01*
X134520Y360548D01*
X137881Y359156D01*
G37*
G36*
X137881Y333756D02*
X141519Y333756D01*
X144880Y335148D01*
X147452Y337720D01*
X148844Y341081D01*
X148844Y344719D01*
X147452Y348080D01*
X144880Y350652D01*
X141519Y352044D01*
X137881Y352044D01*
X134520Y350652D01*
X131948Y348080D01*
X130556Y344719D01*
X130556Y341081D01*
X131948Y337720D01*
X134520Y335148D01*
X137881Y333756D01*
G37*
G36*
X290281Y333756D02*
X293919Y333756D01*
X297280Y335148D01*
X299852Y337720D01*
X301244Y341081D01*
X301244Y344719D01*
X299852Y348080D01*
X297280Y350652D01*
X293919Y352044D01*
X290281Y352044D01*
X286920Y350652D01*
X284348Y348080D01*
X282956Y344719D01*
X282956Y341081D01*
X284348Y337720D01*
X286920Y335148D01*
X290281Y333756D01*
G37*
G36*
X137881Y308356D02*
X141519Y308356D01*
X144880Y309748D01*
X147452Y312320D01*
X148844Y315681D01*
X148844Y319319D01*
X147452Y322680D01*
X144880Y325252D01*
X141519Y326644D01*
X137881Y326644D01*
X134520Y325252D01*
X131948Y322680D01*
X130556Y319319D01*
X130556Y315681D01*
X131948Y312320D01*
X134520Y309748D01*
X137881Y308356D01*
G37*
G36*
X290281Y194056D02*
X293919Y194056D01*
X297280Y195448D01*
X299852Y198020D01*
X301244Y201381D01*
X301244Y205019D01*
X300905Y205837D01*
X300712Y206768D01*
X300898Y207762D01*
X301456Y208605D01*
X389297Y296446D01*
X390010Y296947D01*
X390992Y297188D01*
X391990Y297026D01*
X392846Y296488D01*
X393424Y295659D01*
X393633Y294670D01*
X393540Y294191D01*
X393540Y290281D01*
X394932Y286920D01*
X397504Y284348D01*
X400865Y282956D01*
X404502Y282956D01*
X407863Y284348D01*
X410436Y286920D01*
X411828Y290281D01*
X411828Y293919D01*
X410436Y297280D01*
X407863Y299852D01*
X404502Y301244D01*
X400660Y301244D01*
X400255Y301154D01*
X399256Y301307D01*
X398396Y301838D01*
X397811Y302663D01*
X397594Y303650D01*
X397780Y304644D01*
X398338Y305487D01*
X400463Y307612D01*
X401269Y308155D01*
X402259Y308356D01*
X404502Y308356D01*
X407863Y309748D01*
X410436Y312320D01*
X411828Y315681D01*
X411828Y319319D01*
X410436Y322680D01*
X407863Y325252D01*
X404502Y326644D01*
X400865Y326644D01*
X397504Y325252D01*
X394932Y322680D01*
X393540Y319319D01*
X393540Y315681D01*
X394967Y312236D01*
X395160Y311304D01*
X394974Y310310D01*
X394416Y309467D01*
X297505Y212556D01*
X296718Y212021D01*
X295729Y211812D01*
X294737Y212005D01*
X293919Y212344D01*
X290281Y212344D01*
X286920Y210952D01*
X284348Y208380D01*
X282956Y205019D01*
X282956Y201381D01*
X284348Y198020D01*
X286920Y195448D01*
X290281Y194056D01*
G37*
G36*
X290281Y308356D02*
X293919Y308356D01*
X297280Y309748D01*
X299852Y312320D01*
X301244Y315681D01*
X301244Y319319D01*
X299852Y322680D01*
X297280Y325252D01*
X293919Y326644D01*
X290281Y326644D01*
X286920Y325252D01*
X284348Y322680D01*
X282956Y319319D01*
X282956Y315681D01*
X284348Y312320D01*
X286920Y309748D01*
X290281Y308356D01*
G37*
G36*
X527865Y308356D02*
X531502Y308356D01*
X534863Y309748D01*
X537436Y312320D01*
X538828Y315681D01*
X538828Y319319D01*
X537436Y322680D01*
X534863Y325252D01*
X531502Y326644D01*
X527865Y326644D01*
X524504Y325252D01*
X521932Y322680D01*
X520540Y319319D01*
X520540Y315681D01*
X521932Y312320D01*
X524504Y309748D01*
X527865Y308356D01*
G37*
G36*
X519524Y293370D02*
X528414Y293370D01*
X528414Y302260D01*
X527663Y302260D01*
X523928Y300713D01*
X521070Y297855D01*
X519524Y294121D01*
X519524Y293370D01*
G37*
G36*
X530954Y293370D02*
X539844Y293370D01*
X539844Y294121D01*
X538297Y297855D01*
X535439Y300713D01*
X531705Y302260D01*
X530954Y302260D01*
X530954Y293370D01*
G37*
G36*
X137881Y282956D02*
X141519Y282956D01*
X144880Y284348D01*
X147452Y286920D01*
X148844Y290281D01*
X148844Y293919D01*
X147452Y297280D01*
X144880Y299852D01*
X141519Y301244D01*
X137881Y301244D01*
X134520Y299852D01*
X131948Y297280D01*
X130556Y293919D01*
X130556Y290281D01*
X131948Y286920D01*
X134520Y284348D01*
X137881Y282956D01*
G37*
G36*
X527663Y281940D02*
X528414Y281940D01*
X528414Y290830D01*
X519524Y290830D01*
X519524Y290079D01*
X521070Y286345D01*
X523928Y283487D01*
X527663Y281940D01*
G37*
G36*
X530954Y281940D02*
X531705Y281940D01*
X535439Y283487D01*
X538297Y286345D01*
X539844Y290079D01*
X539844Y290830D01*
X530954Y290830D01*
X530954Y281940D01*
G37*
G36*
X400865Y257556D02*
X404502Y257556D01*
X407863Y258948D01*
X410436Y261520D01*
X411828Y264881D01*
X411828Y268519D01*
X410436Y271880D01*
X407863Y274452D01*
X404502Y275844D01*
X400865Y275844D01*
X397504Y274452D01*
X394932Y271880D01*
X393540Y268519D01*
X393540Y264881D01*
X394932Y261520D01*
X397504Y258948D01*
X400865Y257556D01*
G37*
G36*
X328619Y26226D02*
X346381Y26226D01*
X347274Y27119D01*
X347274Y44881D01*
X346381Y45774D01*
X342834Y45774D01*
X341918Y45945D01*
X341067Y46490D01*
X340495Y47323D01*
X340294Y48314D01*
X340294Y54921D01*
X340480Y55874D01*
X341038Y56717D01*
X365370Y81049D01*
X366101Y81559D01*
X367085Y81792D01*
X368082Y81622D01*
X368933Y81078D01*
X369505Y80244D01*
X369706Y79253D01*
X369706Y47119D01*
X369528Y46185D01*
X368976Y45337D01*
X368138Y44773D01*
X366964Y44286D01*
X364214Y41536D01*
X362726Y37944D01*
X362726Y34056D01*
X364214Y30464D01*
X366964Y27714D01*
X370556Y26226D01*
X374444Y26226D01*
X378036Y27714D01*
X380786Y30464D01*
X382274Y34056D01*
X382274Y37944D01*
X380786Y41536D01*
X378036Y44286D01*
X376862Y44773D01*
X376067Y45295D01*
X375495Y46128D01*
X375294Y47119D01*
X375294Y81907D01*
X375480Y82860D01*
X376038Y83703D01*
X524279Y231944D01*
X525066Y232479D01*
X526055Y232688D01*
X527047Y232495D01*
X527865Y232156D01*
X531502Y232156D01*
X534863Y233548D01*
X537436Y236120D01*
X538828Y239481D01*
X538828Y243119D01*
X537436Y246480D01*
X534863Y249052D01*
X531502Y250444D01*
X527865Y250444D01*
X524504Y249052D01*
X521932Y246480D01*
X520540Y243119D01*
X520540Y239481D01*
X520878Y238663D01*
X521071Y237732D01*
X520886Y236738D01*
X520328Y235895D01*
X513006Y228574D01*
X512275Y228064D01*
X511291Y227831D01*
X510294Y228001D01*
X509443Y228545D01*
X508871Y229379D01*
X508670Y230370D01*
X508670Y240683D01*
X508856Y241636D01*
X509414Y242479D01*
X524279Y257344D01*
X525066Y257879D01*
X526055Y258088D01*
X527047Y257895D01*
X527865Y257556D01*
X531502Y257556D01*
X534863Y258948D01*
X537436Y261520D01*
X538828Y264881D01*
X538828Y268519D01*
X537436Y271880D01*
X534863Y274452D01*
X531502Y275844D01*
X527865Y275844D01*
X524504Y274452D01*
X521932Y271880D01*
X520540Y268519D01*
X520540Y264881D01*
X520878Y264063D01*
X521071Y263132D01*
X520886Y262138D01*
X520328Y261295D01*
X503082Y244050D01*
X503082Y227716D01*
X502896Y226763D01*
X502338Y225920D01*
X416164Y139745D01*
X415432Y139235D01*
X414449Y139003D01*
X413452Y139172D01*
X412600Y139717D01*
X412029Y140551D01*
X411837Y141497D01*
X410436Y144880D01*
X407863Y147452D01*
X404502Y148844D01*
X400865Y148844D01*
X400047Y148505D01*
X399116Y148312D01*
X398122Y148498D01*
X397279Y149056D01*
X391141Y155194D01*
X302537Y155194D01*
X301603Y155372D01*
X300756Y155924D01*
X300191Y156762D01*
X299852Y157580D01*
X297280Y160152D01*
X293919Y161544D01*
X290281Y161544D01*
X286920Y160152D01*
X284348Y157580D01*
X282956Y154219D01*
X282956Y150581D01*
X284348Y147220D01*
X286920Y144648D01*
X290281Y143256D01*
X293919Y143256D01*
X297280Y144648D01*
X299852Y147220D01*
X300191Y148038D01*
X300713Y148833D01*
X301547Y149405D01*
X302537Y149606D01*
X387774Y149606D01*
X388727Y149420D01*
X389570Y148862D01*
X393328Y145105D01*
X393862Y144318D01*
X394072Y143329D01*
X393878Y142337D01*
X393540Y141519D01*
X393540Y137881D01*
X394932Y134520D01*
X397504Y131948D01*
X400882Y130549D01*
X401720Y130400D01*
X402580Y129868D01*
X403165Y129044D01*
X403382Y128057D01*
X403196Y127063D01*
X402638Y126220D01*
X334706Y58288D01*
X334706Y48314D01*
X334535Y47398D01*
X333990Y46547D01*
X333157Y45975D01*
X332166Y45774D01*
X328619Y45774D01*
X327726Y44881D01*
X327726Y27119D01*
X328619Y26226D01*
G37*
G36*
X27119Y249626D02*
X44881Y249626D01*
X45774Y250519D01*
X45774Y268281D01*
X44881Y269174D01*
X27119Y269174D01*
X26226Y268281D01*
X26226Y250519D01*
X27119Y249626D01*
G37*
G36*
X400865Y232156D02*
X404502Y232156D01*
X407863Y233548D01*
X410436Y236120D01*
X411828Y239481D01*
X411828Y243119D01*
X410436Y246480D01*
X407863Y249052D01*
X404502Y250444D01*
X400865Y250444D01*
X397504Y249052D01*
X394932Y246480D01*
X393540Y243119D01*
X393540Y239481D01*
X394932Y236120D01*
X397504Y233548D01*
X400865Y232156D01*
G37*
G36*
X400865Y181356D02*
X404502Y181356D01*
X407863Y182748D01*
X410436Y185320D01*
X411828Y188681D01*
X411828Y192319D01*
X410436Y195680D01*
X407863Y198252D01*
X407046Y198591D01*
X406250Y199113D01*
X405679Y199947D01*
X405478Y200937D01*
X405478Y205463D01*
X405656Y206397D01*
X406207Y207244D01*
X407046Y207809D01*
X407863Y208148D01*
X410436Y210720D01*
X411828Y214081D01*
X411828Y217719D01*
X410436Y221080D01*
X407863Y223652D01*
X404502Y225044D01*
X400865Y225044D01*
X397504Y223652D01*
X394932Y221080D01*
X393540Y217719D01*
X393540Y214081D01*
X394932Y210720D01*
X397504Y208148D01*
X398322Y207809D01*
X399117Y207287D01*
X399688Y206453D01*
X399890Y205463D01*
X399890Y200937D01*
X399711Y200003D01*
X399160Y199156D01*
X398322Y198591D01*
X397504Y198252D01*
X394932Y195680D01*
X393540Y192319D01*
X393540Y188681D01*
X394932Y185320D01*
X397504Y182748D01*
X400865Y181356D01*
G37*
G36*
X405556Y26226D02*
X409444Y26226D01*
X413036Y27714D01*
X415786Y30464D01*
X417274Y34056D01*
X417274Y37944D01*
X415786Y41536D01*
X413036Y44286D01*
X411862Y44773D01*
X411067Y45295D01*
X410495Y46128D01*
X410294Y47119D01*
X410294Y91507D01*
X410480Y92460D01*
X411038Y93303D01*
X524279Y206544D01*
X525066Y207079D01*
X526055Y207288D01*
X527047Y207095D01*
X527865Y206756D01*
X531502Y206756D01*
X534863Y208148D01*
X537436Y210720D01*
X538828Y214081D01*
X538828Y217719D01*
X537436Y221080D01*
X534863Y223652D01*
X531502Y225044D01*
X527865Y225044D01*
X524504Y223652D01*
X521932Y221080D01*
X520540Y217719D01*
X520540Y214081D01*
X520878Y213263D01*
X521071Y212332D01*
X520886Y211338D01*
X520328Y210495D01*
X404706Y94874D01*
X404706Y47119D01*
X404528Y46185D01*
X403976Y45337D01*
X403138Y44773D01*
X401964Y44286D01*
X399214Y41536D01*
X397726Y37944D01*
X397726Y34056D01*
X399214Y30464D01*
X401964Y27714D01*
X405556Y26226D01*
G37*
G36*
X137881Y194056D02*
X141519Y194056D01*
X144880Y195448D01*
X147452Y198020D01*
X148844Y201381D01*
X148844Y205019D01*
X147452Y208380D01*
X144880Y210952D01*
X141519Y212344D01*
X137881Y212344D01*
X134520Y210952D01*
X131948Y208380D01*
X130556Y205019D01*
X130556Y201381D01*
X131948Y198020D01*
X134520Y195448D01*
X137881Y194056D01*
G37*
G36*
X440556Y26226D02*
X444444Y26226D01*
X448036Y27714D01*
X450786Y30464D01*
X452274Y34056D01*
X452274Y37944D01*
X450786Y41536D01*
X448036Y44286D01*
X446862Y44773D01*
X446067Y45295D01*
X445495Y46128D01*
X445294Y47119D01*
X445294Y101107D01*
X445480Y102060D01*
X446038Y102903D01*
X524279Y181144D01*
X525066Y181679D01*
X526055Y181888D01*
X527047Y181695D01*
X527865Y181356D01*
X531502Y181356D01*
X534863Y182748D01*
X537436Y185320D01*
X538828Y188681D01*
X538828Y192319D01*
X537436Y195680D01*
X534863Y198252D01*
X531502Y199644D01*
X527865Y199644D01*
X524504Y198252D01*
X521932Y195680D01*
X520540Y192319D01*
X520540Y188681D01*
X520878Y187863D01*
X521071Y186932D01*
X520886Y185938D01*
X520328Y185095D01*
X439706Y104474D01*
X439706Y47119D01*
X439528Y46185D01*
X438976Y45337D01*
X438138Y44773D01*
X436964Y44286D01*
X434214Y41536D01*
X432726Y37944D01*
X432726Y34056D01*
X434214Y30464D01*
X436964Y27714D01*
X440556Y26226D01*
G37*
G36*
X400865Y155956D02*
X404502Y155956D01*
X407863Y157348D01*
X410436Y159920D01*
X411828Y163281D01*
X411828Y166919D01*
X410436Y170280D01*
X407863Y172852D01*
X404502Y174244D01*
X400865Y174244D01*
X400047Y173905D01*
X399116Y173712D01*
X398122Y173898D01*
X397279Y174456D01*
X391141Y180594D01*
X302537Y180594D01*
X301603Y180772D01*
X300756Y181324D01*
X300191Y182162D01*
X299852Y182980D01*
X297280Y185552D01*
X293919Y186944D01*
X290281Y186944D01*
X286920Y185552D01*
X284348Y182980D01*
X282956Y179619D01*
X282956Y175981D01*
X284348Y172620D01*
X286920Y170048D01*
X290281Y168656D01*
X293919Y168656D01*
X297280Y170048D01*
X299852Y172620D01*
X300191Y173438D01*
X300713Y174233D01*
X301547Y174805D01*
X302537Y175006D01*
X387774Y175006D01*
X388727Y174820D01*
X389570Y174262D01*
X393328Y170505D01*
X393862Y169718D01*
X394072Y168729D01*
X393878Y167737D01*
X393540Y166919D01*
X393540Y163281D01*
X394932Y159920D01*
X397504Y157348D01*
X400865Y155956D01*
G37*
G36*
X137881Y168656D02*
X141519Y168656D01*
X144880Y170048D01*
X147452Y172620D01*
X148844Y175981D01*
X148844Y179619D01*
X147452Y182980D01*
X144880Y185552D01*
X141519Y186944D01*
X137881Y186944D01*
X134520Y185552D01*
X131948Y182980D01*
X130556Y179619D01*
X130556Y175981D01*
X131948Y172620D01*
X134520Y170048D01*
X137881Y168656D01*
G37*
G36*
X527865Y155956D02*
X531502Y155956D01*
X534863Y157348D01*
X537436Y159920D01*
X538828Y163281D01*
X538828Y166919D01*
X537436Y170280D01*
X534863Y172852D01*
X531502Y174244D01*
X527865Y174244D01*
X524504Y172852D01*
X521932Y170280D01*
X520540Y166919D01*
X520540Y163281D01*
X521932Y159920D01*
X524504Y157348D01*
X527865Y155956D01*
G37*
G36*
X137881Y143256D02*
X141519Y143256D01*
X144880Y144648D01*
X147452Y147220D01*
X148844Y150581D01*
X148844Y154219D01*
X147452Y157580D01*
X144880Y160152D01*
X141519Y161544D01*
X137881Y161544D01*
X134520Y160152D01*
X131948Y157580D01*
X130556Y154219D01*
X130556Y150581D01*
X131948Y147220D01*
X134520Y144648D01*
X137881Y143256D01*
G37*
G36*
X519524Y140970D02*
X528414Y140970D01*
X528414Y149860D01*
X527663Y149860D01*
X523928Y148313D01*
X521070Y145455D01*
X519524Y141721D01*
X519524Y140970D01*
G37*
G36*
X530954Y140970D02*
X539844Y140970D01*
X539844Y141721D01*
X538297Y145455D01*
X535439Y148313D01*
X531705Y149860D01*
X530954Y149860D01*
X530954Y140970D01*
G37*
G36*
X530954Y129540D02*
X531705Y129540D01*
X535439Y131087D01*
X538297Y133945D01*
X539844Y137679D01*
X539844Y138430D01*
X530954Y138430D01*
X530954Y129540D01*
G37*
G36*
X527663Y129540D02*
X528414Y129540D01*
X528414Y138430D01*
X519524Y138430D01*
X519524Y137679D01*
X521070Y133945D01*
X523928Y131087D01*
X527663Y129540D01*
G37*
G36*
X137881Y117856D02*
X141519Y117856D01*
X144880Y119248D01*
X147452Y121820D01*
X148844Y125181D01*
X148844Y128819D01*
X147452Y132180D01*
X144880Y134752D01*
X141519Y136144D01*
X137881Y136144D01*
X134520Y134752D01*
X131948Y132180D01*
X130556Y128819D01*
X130556Y125181D01*
X131948Y121820D01*
X134520Y119248D01*
X137881Y117856D01*
G37*
G36*
X290281Y117856D02*
X293919Y117856D01*
X297280Y119248D01*
X299852Y121820D01*
X301244Y125181D01*
X301244Y128819D01*
X299852Y132180D01*
X297280Y134752D01*
X293919Y136144D01*
X290281Y136144D01*
X286920Y134752D01*
X284348Y132180D01*
X282956Y128819D01*
X282956Y125181D01*
X284348Y121820D01*
X286920Y119248D01*
X290281Y117856D01*
G37*
G36*
X37270Y112960D02*
X46790Y112960D01*
X46790Y113836D01*
X45147Y117802D01*
X42112Y120837D01*
X38146Y122480D01*
X37270Y122480D01*
X37270Y112960D01*
G37*
G36*
X501643Y63754D02*
X508265Y63754D01*
X514660Y65468D01*
X520394Y68778D01*
X525076Y73460D01*
X528386Y79194D01*
X530100Y85589D01*
X530100Y92211D01*
X528386Y98606D01*
X525076Y104340D01*
X520394Y109022D01*
X514660Y112332D01*
X508265Y114046D01*
X501643Y114046D01*
X495248Y112332D01*
X489514Y109022D01*
X484832Y104340D01*
X481522Y98606D01*
X479808Y92211D01*
X479808Y85589D01*
X481522Y79194D01*
X484832Y73460D01*
X489514Y68778D01*
X495248Y65468D01*
X501643Y63754D01*
G37*
G36*
X137881Y92456D02*
X141519Y92456D01*
X144880Y93848D01*
X147452Y96420D01*
X148844Y99781D01*
X148844Y103419D01*
X147452Y106780D01*
X144880Y109352D01*
X141519Y110744D01*
X137881Y110744D01*
X134520Y109352D01*
X131948Y106780D01*
X130556Y103419D01*
X130556Y99781D01*
X131948Y96420D01*
X134520Y93848D01*
X137881Y92456D01*
G37*
G36*
X290281Y92456D02*
X293919Y92456D01*
X297280Y93848D01*
X299852Y96420D01*
X301244Y99781D01*
X301244Y103419D01*
X299852Y106780D01*
X297280Y109352D01*
X293919Y110744D01*
X290281Y110744D01*
X286920Y109352D01*
X284348Y106780D01*
X282956Y103419D01*
X282956Y99781D01*
X284348Y96420D01*
X286920Y93848D01*
X290281Y92456D01*
G37*
G36*
X37270Y100900D02*
X38146Y100900D01*
X42112Y102543D01*
X45147Y105578D01*
X46790Y109544D01*
X46790Y110420D01*
X37270Y110420D01*
X37270Y100900D01*
G37*
G36*
X140970Y77470D02*
X149860Y77470D01*
X149860Y78221D01*
X148313Y81955D01*
X145455Y84813D01*
X141721Y86360D01*
X140970Y86360D01*
X140970Y77470D01*
G37*
G36*
X129540Y77470D02*
X138430Y77470D01*
X138430Y86360D01*
X137679Y86360D01*
X133945Y84813D01*
X131087Y81955D01*
X129540Y78221D01*
X129540Y77470D01*
G37*
G36*
X290281Y67056D02*
X293919Y67056D01*
X297280Y68448D01*
X299852Y71020D01*
X301244Y74381D01*
X301244Y78019D01*
X299852Y81380D01*
X297280Y83952D01*
X293919Y85344D01*
X290281Y85344D01*
X286920Y83952D01*
X284348Y81380D01*
X282956Y78019D01*
X282956Y74381D01*
X284348Y71020D01*
X286920Y68448D01*
X290281Y67056D01*
G37*
G36*
X140970Y66040D02*
X141721Y66040D01*
X145455Y67587D01*
X148313Y70445D01*
X149860Y74179D01*
X149860Y74930D01*
X140970Y74930D01*
X140970Y66040D01*
G37*
G36*
X137679Y66040D02*
X138430Y66040D01*
X138430Y74930D01*
X129540Y74930D01*
X129540Y74179D01*
X131087Y70445D01*
X133945Y67587D01*
X137679Y66040D01*
G37*
G36*
X290281Y41656D02*
X293919Y41656D01*
X297280Y43048D01*
X299852Y45620D01*
X301244Y48981D01*
X301244Y52619D01*
X299852Y55980D01*
X297280Y58552D01*
X293919Y59944D01*
X290281Y59944D01*
X286920Y58552D01*
X284348Y55980D01*
X282956Y52619D01*
X282956Y48981D01*
X284348Y45620D01*
X286920Y43048D01*
X290281Y41656D01*
G37*
%LPD*%
D10*
X292100Y50800D03*
X292100Y76200D03*
X292100Y101600D03*
X292100Y127000D03*
X292100Y152400D03*
X292100Y177800D03*
X292100Y203200D03*
X139700Y203200D03*
X139700Y177800D03*
X139700Y152400D03*
X139700Y127000D03*
X139700Y101600D03*
X139700Y76200D03*
X139700Y50800D03*
X139700Y419100D03*
X139700Y393700D03*
X139700Y368300D03*
X139700Y342900D03*
X139700Y317500D03*
X139700Y292100D03*
X139700Y266700D03*
X292100Y266700D03*
X292100Y292100D03*
X292100Y317500D03*
X292100Y342900D03*
X292100Y368300D03*
X292100Y393700D03*
X292100Y419100D03*
X402684Y317500D03*
X402684Y292100D03*
X402684Y266700D03*
X402684Y241300D03*
X402684Y215900D03*
X402684Y190500D03*
X402684Y165100D03*
X402684Y139700D03*
X529684Y317500D03*
X529684Y292100D03*
X529684Y266700D03*
X529684Y241300D03*
X529684Y215900D03*
X529684Y190500D03*
X529684Y165100D03*
X529684Y139700D03*
D11*
X58729Y416251D02*
X58729Y431491D01*
X84129Y431491D02*
X84129Y416251D01*
D12*
X36000Y146690D03*
D13*
X36000Y111690D03*
X36000Y76690D03*
D12*
X337500Y36000D03*
D13*
X372500Y36000D03*
X407500Y36000D03*
X442500Y36000D03*
D14*
X406680Y382270D03*
D15*
X441680Y382270D03*
D12*
X36000Y259400D03*
D13*
X36000Y224400D03*
D12*
X36000Y361000D03*
D13*
X36000Y326000D03*
D16*
X23686Y89004D02*
X36000Y76690D01*
X23686Y89004D02*
X23686Y192554D01*
X121076Y289944D01*
X121076Y400476D01*
X139700Y419100D01*
X36000Y76690D02*
X61890Y50800D01*
X139700Y50800D01*
D17*
X292100Y203200D02*
X402684Y313784D01*
X402684Y317500D01*
X389984Y177800D02*
X292100Y177800D01*
X389984Y177800D02*
X402684Y165100D01*
X389984Y152400D02*
X292100Y152400D01*
X389984Y152400D02*
X402684Y139700D01*
D16*
X303810Y279400D02*
X406680Y382270D01*
X303810Y279400D02*
X177800Y279400D01*
X45090Y146690D01*
X36000Y146690D01*
D17*
X402684Y190500D02*
X402684Y215900D01*
X37322Y346978D02*
X36000Y348300D01*
X36000Y361000D01*
X37322Y346978D02*
X51458Y346978D01*
X69397Y364917D01*
X69397Y413203D01*
X58729Y423871D01*
X36000Y339730D02*
X36000Y326000D01*
X36000Y339730D02*
X37738Y341468D01*
X51696Y341468D01*
X73461Y363233D01*
X73461Y413203D01*
X84129Y423871D01*
X337500Y57130D02*
X337500Y36000D01*
X337500Y57130D02*
X505876Y225506D01*
X505876Y242892D01*
X529684Y266700D01*
X529684Y241300D02*
X372500Y84116D01*
X372500Y36000D01*
X407500Y36000D02*
X407500Y93716D01*
X529684Y215900D01*
X529684Y190500D02*
X442500Y103316D01*
X442500Y36000D01*
M02*
