M48
;GenerationSoftware,Autodesk,EAGLE,9.7.0*%
;CreationDate,2026-08-30T21:25:02Z*%
FMAT,2
ICI,OFF
METRIC,TZ,000.000
T4C0.850
T3C1.016
T2C1.100
T1C2.997
%
G90
M71
T1
X2540Y44450
X2540Y2540
X50495Y36830
X50495Y8890
T2
X3600Y32600
X3600Y14669
X3600Y36100
X3600Y22440
X3600Y25940
X44250Y3600
X40750Y3600
X37250Y3600
X33750Y3600
X3600Y7669
X3600Y11169
T3
X29210Y7620
X29210Y12700
X13970Y5080
X13970Y41910
X13970Y39370
X13970Y36830
X13970Y34290
X13970Y31750
X13970Y29210
X13970Y26670
X29210Y26670
X29210Y29210
X29210Y31750
X29210Y34290
X29210Y36830
X29210Y39370
X29210Y5080
X40268Y31750
X40268Y29210
X40268Y26670
X40268Y24130
X40268Y21590
X40268Y19050
X40268Y16510
X40268Y13970
X52968Y31750
X52968Y29210
X52968Y26670
X52968Y24130
X52968Y21590
X52968Y19050
X52968Y16510
X52968Y13970
X5873Y42387
X8413Y42387
X13970Y10160
X13970Y12700
X13970Y15240
X13970Y17780
X13970Y20320
X29210Y20320
X29210Y17780
X29210Y41910
X29210Y10160
X29210Y15240
X13970Y7620
T4
X44168Y38227
X40668Y38227
M30