G04 EAGLE Gerber RS-274X export*
G75*
%MOMM*%
%FSLAX34Y34*%
%LPD*%
%IN*%
%IPPOS*%
%AMOC8*
5,1,8,0,0,1.08239X$1,22.5*%
G01*
G04 Define Apertures*
%ADD10C,0.254000*%
D10*
X0Y25866D02*
X98Y23611D01*
X393Y21374D01*
X881Y19171D01*
X1560Y17019D01*
X2423Y14934D01*
X3465Y12933D01*
X4678Y11030D01*
X6051Y9240D01*
X7576Y7576D01*
X9240Y6051D01*
X11030Y4678D01*
X12933Y3465D01*
X14934Y2423D01*
X17019Y1560D01*
X19171Y881D01*
X21374Y393D01*
X23611Y98D01*
X25866Y0D01*
X454263Y0D01*
X463087Y385D01*
X471843Y1538D01*
X480465Y3450D01*
X488888Y6105D01*
X497048Y9485D01*
X504882Y13563D01*
X512330Y18308D01*
X519337Y23685D01*
X525848Y29652D01*
X531815Y36163D01*
X537192Y43170D01*
X541937Y50618D01*
X546015Y58452D01*
X549395Y66612D01*
X552050Y75035D01*
X553962Y83657D01*
X555115Y92413D01*
X555500Y101237D01*
X555500Y347974D01*
X555036Y358592D01*
X553649Y369129D01*
X551349Y379505D01*
X548153Y389641D01*
X544086Y399460D01*
X539178Y408887D01*
X533468Y417851D01*
X526998Y426282D01*
X519818Y434118D01*
X511982Y441298D01*
X503551Y447768D01*
X494587Y453478D01*
X485160Y458386D01*
X475341Y462453D01*
X465205Y465649D01*
X454829Y467949D01*
X444292Y469336D01*
X433674Y469800D01*
X27679Y469800D01*
X25267Y469695D01*
X22873Y469380D01*
X20515Y468857D01*
X18212Y468131D01*
X15982Y467207D01*
X13840Y466092D01*
X11803Y464794D01*
X9887Y463324D01*
X8107Y461693D01*
X6476Y459913D01*
X5006Y457997D01*
X3708Y455960D01*
X2593Y453818D01*
X1669Y451588D01*
X943Y449285D01*
X421Y446927D01*
X105Y444533D01*
X0Y442121D01*
X0Y25866D01*
M02*
