G04 EAGLE Gerber RS-274X export*
G75*
%MOMM*%
%FSLAX34Y34*%
%LPD*%
%INSoldermask Bottom*%
%IPPOS*%
%AMOC8*
5,1,8,0,0,1.08239X$1,22.5*%
G01*
G04 Define Apertures*
%ADD10C,3.200400*%
%ADD11C,1.727200*%
%ADD12C,1.727200*%
%ADD13R,1.853200X1.853200*%
%ADD14C,1.853200*%
%ADD15R,1.561200X1.561200*%
%ADD16C,1.561200*%
D10*
X25400Y444500D03*
X25400Y25400D03*
X504954Y368300D03*
X504954Y88900D03*
D11*
X292100Y50800D03*
X292100Y76200D03*
X292100Y101600D03*
X292100Y127000D03*
X292100Y152400D03*
X292100Y177800D03*
X292100Y203200D03*
X139700Y203200D03*
X139700Y177800D03*
X139700Y152400D03*
X139700Y127000D03*
X139700Y101600D03*
X139700Y76200D03*
X139700Y50800D03*
X139700Y419100D03*
X139700Y393700D03*
X139700Y368300D03*
X139700Y342900D03*
X139700Y317500D03*
X139700Y292100D03*
X139700Y266700D03*
X292100Y266700D03*
X292100Y292100D03*
X292100Y317500D03*
X292100Y342900D03*
X292100Y368300D03*
X292100Y393700D03*
X292100Y419100D03*
X402684Y317500D03*
X402684Y292100D03*
X402684Y266700D03*
X402684Y241300D03*
X402684Y215900D03*
X402684Y190500D03*
X402684Y165100D03*
X402684Y139700D03*
X529684Y317500D03*
X529684Y292100D03*
X529684Y266700D03*
X529684Y241300D03*
X529684Y215900D03*
X529684Y190500D03*
X529684Y165100D03*
X529684Y139700D03*
D12*
X58729Y416251D02*
X58729Y431491D01*
X84129Y431491D02*
X84129Y416251D01*
D13*
X36000Y146690D03*
D14*
X36000Y111690D03*
X36000Y76690D03*
D13*
X337500Y36000D03*
D14*
X372500Y36000D03*
X407500Y36000D03*
X442500Y36000D03*
D15*
X406680Y382270D03*
D16*
X441680Y382270D03*
D13*
X36000Y259400D03*
D14*
X36000Y224400D03*
D13*
X36000Y361000D03*
D14*
X36000Y326000D03*
M02*
