G04 EAGLE Gerber RS-274X export*
G75*
%MOMM*%
%FSLAX34Y34*%
%LPD*%
%INBottom Copper*%
%IPPOS*%
%AMOC8*
5,1,8,0,0,1.08239X$1,22.5*%
G01*
G04 Define Apertures*
%ADD10R,1.650000X1.650000*%
%ADD11C,1.650000*%
%ADD12C,1.950000*%
%ADD13C,1.524000*%
%ADD14C,1.651000*%
%ADD15R,1.651000X1.651000*%
%ADD16C,1.108000*%
%ADD17R,1.358000X1.358000*%
%ADD18C,1.358000*%
%ADD19C,0.508000*%
G36*
X364603Y10172D02*
X364354Y10160D01*
X43360Y10160D01*
X42963Y10191D01*
X33489Y11692D01*
X32733Y11937D01*
X24186Y16292D01*
X23543Y16760D01*
X16760Y23543D01*
X16292Y24186D01*
X11937Y32733D01*
X11692Y33489D01*
X10191Y42963D01*
X10160Y43360D01*
X10160Y618225D01*
X10309Y619084D01*
X10834Y619948D01*
X11653Y620540D01*
X12639Y620764D01*
X13634Y620587D01*
X14482Y620036D01*
X14530Y619964D01*
X18041Y616452D01*
X22185Y614736D01*
X26670Y614736D01*
X30814Y616452D01*
X33985Y619624D01*
X35702Y623767D01*
X35702Y628253D01*
X33985Y632396D01*
X30814Y635568D01*
X26670Y637284D01*
X22185Y637284D01*
X18041Y635568D01*
X14613Y632140D01*
X14580Y632087D01*
X13765Y631489D01*
X12781Y631256D01*
X11784Y631426D01*
X10933Y631970D01*
X10361Y632804D01*
X10160Y633795D01*
X10160Y794910D01*
X10191Y795308D01*
X11684Y804730D01*
X11929Y805485D01*
X16260Y813985D01*
X16727Y814628D01*
X23472Y821373D01*
X24115Y821840D01*
X32615Y826171D01*
X33370Y826416D01*
X42792Y827909D01*
X43190Y827940D01*
X342373Y827940D01*
X342594Y827930D01*
X361960Y826236D01*
X362397Y826159D01*
X381175Y821128D01*
X381591Y820976D01*
X399210Y812760D01*
X399593Y812539D01*
X415518Y801388D01*
X415857Y801104D01*
X429604Y787357D01*
X429888Y787018D01*
X441039Y771093D01*
X441260Y770710D01*
X449476Y753091D01*
X449628Y752675D01*
X454659Y733897D01*
X454736Y733460D01*
X456430Y714094D01*
X456440Y713873D01*
X456440Y102246D01*
X456428Y101997D01*
X454707Y84527D01*
X454610Y84039D01*
X449514Y67241D01*
X449324Y66781D01*
X441049Y51299D01*
X440772Y50885D01*
X429636Y37316D01*
X429284Y36964D01*
X415715Y25828D01*
X415301Y25551D01*
X399819Y17276D01*
X399359Y17086D01*
X382561Y11990D01*
X382073Y11893D01*
X364603Y10172D01*
G37*
%LPC*%
G36*
X200910Y803470D02*
X210430Y803470D01*
X210430Y812990D01*
X209554Y812990D01*
X205588Y811347D01*
X202553Y808312D01*
X200910Y804346D01*
X200910Y803470D01*
G37*
G36*
X61210Y803470D02*
X70730Y803470D01*
X70730Y812990D01*
X69854Y812990D01*
X65888Y811347D01*
X62853Y808312D01*
X61210Y804346D01*
X61210Y803470D01*
G37*
G36*
X73270Y803470D02*
X82790Y803470D01*
X82790Y804346D01*
X81147Y808312D01*
X78112Y811347D01*
X74146Y812990D01*
X73270Y812990D01*
X73270Y803470D01*
G37*
G36*
X212970Y803470D02*
X222490Y803470D01*
X222490Y804346D01*
X220847Y808312D01*
X217812Y811347D01*
X213846Y812990D01*
X212970Y812990D01*
X212970Y803470D01*
G37*
G36*
X277819Y26226D02*
X295581Y26226D01*
X296474Y27119D01*
X296474Y44881D01*
X295581Y45774D01*
X283725Y45774D01*
X282772Y45960D01*
X281929Y46518D01*
X223662Y104785D01*
X223119Y105591D01*
X222918Y106581D01*
X222918Y515392D01*
X222299Y516886D01*
X178940Y560245D01*
X178405Y561032D01*
X178196Y562021D01*
X178389Y563013D01*
X178702Y563767D01*
X178702Y568253D01*
X176985Y572396D01*
X173814Y575568D01*
X173060Y575880D01*
X172264Y576402D01*
X171693Y577236D01*
X171492Y578227D01*
X171492Y644965D01*
X171677Y645918D01*
X172236Y646761D01*
X250145Y724670D01*
X250764Y726164D01*
X250764Y789886D01*
X250935Y790802D01*
X251480Y791653D01*
X252313Y792225D01*
X253304Y792426D01*
X255581Y792426D01*
X256474Y793319D01*
X256474Y811081D01*
X255581Y811974D01*
X237819Y811974D01*
X236926Y811081D01*
X236926Y793319D01*
X237819Y792426D01*
X240096Y792426D01*
X241012Y792255D01*
X241863Y791710D01*
X242435Y790877D01*
X242636Y789886D01*
X242636Y729708D01*
X242450Y728755D01*
X241892Y727912D01*
X163982Y650002D01*
X163364Y648508D01*
X163364Y578227D01*
X163185Y577292D01*
X162634Y576445D01*
X161796Y575880D01*
X161041Y575568D01*
X157870Y572396D01*
X156154Y568253D01*
X156154Y563767D01*
X157870Y559624D01*
X161041Y556452D01*
X165185Y554736D01*
X169670Y554736D01*
X170424Y555048D01*
X171356Y555241D01*
X172350Y555056D01*
X173192Y554498D01*
X214046Y513644D01*
X214589Y512839D01*
X214790Y511848D01*
X214790Y103038D01*
X215409Y101544D01*
X276182Y40771D01*
X276725Y39965D01*
X276926Y38975D01*
X276926Y27119D01*
X277819Y26226D01*
G37*
G36*
X174756Y792426D02*
X178644Y792426D01*
X182236Y793914D01*
X184986Y796664D01*
X186474Y800256D01*
X186474Y804144D01*
X184986Y807736D01*
X182236Y810486D01*
X178644Y811974D01*
X174756Y811974D01*
X171164Y810486D01*
X168414Y807736D01*
X166926Y804144D01*
X166926Y800256D01*
X168414Y796664D01*
X171164Y793914D01*
X174756Y792426D01*
G37*
G36*
X98119Y792426D02*
X115881Y792426D01*
X116774Y793319D01*
X116774Y811081D01*
X115881Y811974D01*
X98119Y811974D01*
X97226Y811081D01*
X97226Y793319D01*
X98119Y792426D01*
G37*
G36*
X212970Y791410D02*
X213846Y791410D01*
X217812Y793053D01*
X220847Y796088D01*
X222490Y800054D01*
X222490Y800930D01*
X212970Y800930D01*
X212970Y791410D01*
G37*
G36*
X209554Y791410D02*
X210430Y791410D01*
X210430Y800930D01*
X200910Y800930D01*
X200910Y800054D01*
X202553Y796088D01*
X205588Y793053D01*
X209554Y791410D01*
G37*
G36*
X73270Y791410D02*
X74146Y791410D01*
X78112Y793053D01*
X81147Y796088D01*
X82790Y800054D01*
X82790Y800930D01*
X73270Y800930D01*
X73270Y791410D01*
G37*
G36*
X69854Y791410D02*
X70730Y791410D01*
X70730Y800930D01*
X61210Y800930D01*
X61210Y800054D01*
X62853Y796088D01*
X65888Y793053D01*
X69854Y791410D01*
G37*
G36*
X403089Y711454D02*
X409711Y711454D01*
X416106Y713168D01*
X421840Y716478D01*
X426522Y721160D01*
X429832Y726894D01*
X431546Y733289D01*
X431546Y739911D01*
X429832Y746306D01*
X426522Y752040D01*
X421840Y756722D01*
X416106Y760032D01*
X409711Y761746D01*
X403089Y761746D01*
X396694Y760032D01*
X390960Y756722D01*
X386278Y752040D01*
X382968Y746306D01*
X381254Y739911D01*
X381254Y733289D01*
X382968Y726894D01*
X386278Y721160D01*
X390960Y716478D01*
X396694Y713168D01*
X403089Y711454D01*
G37*
G36*
X47489Y711454D02*
X54111Y711454D01*
X60506Y713168D01*
X66240Y716478D01*
X70922Y721160D01*
X74232Y726894D01*
X75946Y733289D01*
X75946Y739911D01*
X74232Y746306D01*
X70922Y752040D01*
X66240Y756722D01*
X60506Y760032D01*
X54111Y761746D01*
X47489Y761746D01*
X41094Y760032D01*
X35360Y756722D01*
X30678Y752040D01*
X27368Y746306D01*
X25654Y739911D01*
X25654Y733289D01*
X27368Y726894D01*
X30678Y721160D01*
X35360Y716478D01*
X41094Y713168D01*
X47489Y711454D01*
G37*
G36*
X165185Y674736D02*
X169670Y674736D01*
X173814Y676452D01*
X176985Y679624D01*
X178702Y683767D01*
X178702Y688253D01*
X176985Y692396D01*
X173814Y695568D01*
X169670Y697284D01*
X165185Y697284D01*
X161041Y695568D01*
X157870Y692396D01*
X156154Y688253D01*
X156154Y683767D01*
X157870Y679624D01*
X161041Y676452D01*
X165185Y674736D01*
G37*
G36*
X42185Y674736D02*
X46670Y674736D01*
X50814Y676452D01*
X53985Y679624D01*
X55702Y683767D01*
X55702Y688253D01*
X53985Y692396D01*
X50814Y695568D01*
X46670Y697284D01*
X42185Y697284D01*
X38041Y695568D01*
X34870Y692396D01*
X33154Y688253D01*
X33154Y683767D01*
X34870Y679624D01*
X38041Y676452D01*
X42185Y674736D01*
G37*
G36*
X235615Y611688D02*
X239252Y611688D01*
X242613Y613081D01*
X245186Y615653D01*
X246578Y619014D01*
X246578Y622651D01*
X245186Y626012D01*
X242613Y628584D01*
X239252Y629976D01*
X235615Y629976D01*
X232254Y628584D01*
X229682Y626012D01*
X228290Y622651D01*
X228290Y619014D01*
X229682Y615653D01*
X232254Y613081D01*
X235615Y611688D01*
G37*
G36*
X235615Y586288D02*
X239252Y586288D01*
X242613Y587681D01*
X245186Y590253D01*
X246578Y593614D01*
X246578Y597251D01*
X245186Y600612D01*
X242613Y603184D01*
X239252Y604576D01*
X235615Y604576D01*
X232254Y603184D01*
X229682Y600612D01*
X228290Y597251D01*
X228290Y593614D01*
X229682Y590253D01*
X232254Y587681D01*
X235615Y586288D01*
G37*
G36*
X235615Y560888D02*
X239252Y560888D01*
X242613Y562281D01*
X245186Y564853D01*
X246578Y568214D01*
X246578Y571851D01*
X245186Y575212D01*
X242613Y577784D01*
X239252Y579176D01*
X235615Y579176D01*
X232254Y577784D01*
X229682Y575212D01*
X228290Y571851D01*
X228290Y568214D01*
X229682Y564853D01*
X232254Y562281D01*
X235615Y560888D01*
G37*
G36*
X42185Y554736D02*
X46670Y554736D01*
X50814Y556452D01*
X53985Y559624D01*
X55702Y563767D01*
X55702Y568253D01*
X53985Y572396D01*
X50814Y575568D01*
X46670Y577284D01*
X42185Y577284D01*
X38041Y575568D01*
X34870Y572396D01*
X33154Y568253D01*
X33154Y563767D01*
X34870Y559624D01*
X38041Y556452D01*
X42185Y554736D01*
G37*
G36*
X227274Y545902D02*
X236164Y545902D01*
X236164Y554792D01*
X235413Y554792D01*
X231678Y553246D01*
X228820Y550388D01*
X227274Y546653D01*
X227274Y545902D01*
G37*
G36*
X238704Y545902D02*
X247594Y545902D01*
X247594Y546653D01*
X246047Y550388D01*
X243189Y553246D01*
X239455Y554792D01*
X238704Y554792D01*
X238704Y545902D01*
G37*
G36*
X238704Y534472D02*
X239455Y534472D01*
X243189Y536019D01*
X246047Y538877D01*
X247594Y542612D01*
X247594Y543362D01*
X238704Y543362D01*
X238704Y534472D01*
G37*
G36*
X235413Y534472D02*
X236164Y534472D01*
X236164Y543362D01*
X227274Y543362D01*
X227274Y542612D01*
X228820Y538877D01*
X231678Y536019D01*
X235413Y534472D01*
G37*
G36*
X235615Y510088D02*
X239252Y510088D01*
X242613Y511481D01*
X245186Y514053D01*
X246578Y517414D01*
X246578Y521051D01*
X245186Y524412D01*
X242613Y526984D01*
X239252Y528376D01*
X235615Y528376D01*
X232254Y526984D01*
X229682Y524412D01*
X228290Y521051D01*
X228290Y517414D01*
X229682Y514053D01*
X232254Y511481D01*
X235615Y510088D01*
G37*
G36*
X438815Y510088D02*
X442452Y510088D01*
X445813Y511481D01*
X448386Y514053D01*
X449778Y517414D01*
X449778Y521051D01*
X448386Y524412D01*
X445813Y526984D01*
X442452Y528376D01*
X438815Y528376D01*
X435454Y526984D01*
X432882Y524412D01*
X431490Y521051D01*
X431490Y517414D01*
X432882Y514053D01*
X435454Y511481D01*
X438815Y510088D01*
G37*
G36*
X163155Y498221D02*
X167045Y498221D01*
X170639Y499710D01*
X173390Y502461D01*
X174879Y506055D01*
X174879Y509945D01*
X173390Y513539D01*
X170639Y516290D01*
X167045Y517779D01*
X163155Y517779D01*
X159561Y516290D01*
X156810Y513539D01*
X155321Y509945D01*
X155321Y506055D01*
X156810Y502461D01*
X159561Y499710D01*
X163155Y498221D01*
G37*
G36*
X80014Y498221D02*
X97786Y498221D01*
X98679Y499114D01*
X98679Y516886D01*
X97786Y517779D01*
X80014Y517779D01*
X79121Y516886D01*
X79121Y499114D01*
X80014Y498221D01*
G37*
G36*
X36370Y482600D02*
X52530Y482600D01*
X52530Y482937D01*
X51300Y485907D01*
X50604Y486602D01*
X50078Y487371D01*
X49861Y488358D01*
X50046Y489352D01*
X50345Y489803D01*
X51514Y492625D01*
X51514Y495435D01*
X50439Y498031D01*
X49886Y498584D01*
X49359Y499352D01*
X49142Y500340D01*
X49328Y501333D01*
X49886Y502176D01*
X50439Y502729D01*
X51514Y505325D01*
X51514Y508135D01*
X50439Y510731D01*
X48451Y512719D01*
X45855Y513794D01*
X43045Y513794D01*
X40449Y512719D01*
X38461Y510731D01*
X37386Y508135D01*
X37386Y505325D01*
X38461Y502729D01*
X39014Y502176D01*
X39541Y501408D01*
X39758Y500421D01*
X39572Y499427D01*
X39014Y498584D01*
X38461Y498031D01*
X37386Y495435D01*
X37386Y492625D01*
X38541Y489836D01*
X38822Y489426D01*
X39039Y488439D01*
X38854Y487445D01*
X38296Y486602D01*
X37600Y485907D01*
X36370Y482937D01*
X36370Y482600D01*
G37*
G36*
X438815Y484688D02*
X442452Y484688D01*
X445813Y486081D01*
X448386Y488653D01*
X449778Y492014D01*
X449778Y495651D01*
X448386Y499012D01*
X445813Y501584D01*
X442452Y502976D01*
X438815Y502976D01*
X435454Y501584D01*
X432882Y499012D01*
X431490Y495651D01*
X431490Y492014D01*
X432882Y488653D01*
X435454Y486081D01*
X438815Y484688D01*
G37*
G36*
X235615Y484688D02*
X239252Y484688D01*
X242613Y486081D01*
X245186Y488653D01*
X246578Y492014D01*
X246578Y495651D01*
X245186Y499012D01*
X242613Y501584D01*
X239252Y502976D01*
X235615Y502976D01*
X232254Y501584D01*
X229682Y499012D01*
X228290Y495651D01*
X228290Y492014D01*
X229682Y488653D01*
X232254Y486081D01*
X235615Y484688D01*
G37*
G36*
X45720Y473250D02*
X46057Y473250D01*
X49027Y474480D01*
X51300Y476753D01*
X52530Y479723D01*
X52530Y480060D01*
X45720Y480060D01*
X45720Y473250D01*
G37*
G36*
X42843Y473250D02*
X43180Y473250D01*
X43180Y480060D01*
X36370Y480060D01*
X36370Y479723D01*
X37600Y476753D01*
X39873Y474480D01*
X42843Y473250D01*
G37*
G36*
X438815Y459288D02*
X442452Y459288D01*
X445813Y460681D01*
X448386Y463253D01*
X449778Y466614D01*
X449778Y470251D01*
X448386Y473612D01*
X445813Y476184D01*
X442452Y477576D01*
X438815Y477576D01*
X435454Y476184D01*
X432882Y473612D01*
X431490Y470251D01*
X431490Y466614D01*
X432882Y463253D01*
X435454Y460681D01*
X438815Y459288D01*
G37*
G36*
X235615Y459288D02*
X239252Y459288D01*
X242613Y460681D01*
X245186Y463253D01*
X246578Y466614D01*
X246578Y470251D01*
X245186Y473612D01*
X242613Y476184D01*
X239252Y477576D01*
X235615Y477576D01*
X232254Y476184D01*
X229682Y473612D01*
X228290Y470251D01*
X228290Y466614D01*
X229682Y463253D01*
X232254Y460681D01*
X235615Y459288D01*
G37*
G36*
X438815Y433888D02*
X442452Y433888D01*
X445813Y435281D01*
X448386Y437853D01*
X449778Y441214D01*
X449778Y444851D01*
X448386Y448212D01*
X445813Y450784D01*
X442452Y452176D01*
X438815Y452176D01*
X435454Y450784D01*
X432882Y448212D01*
X431490Y444851D01*
X431490Y441214D01*
X432882Y437853D01*
X435454Y435281D01*
X438815Y433888D01*
G37*
G36*
X235615Y433888D02*
X239252Y433888D01*
X242613Y435281D01*
X245186Y437853D01*
X246578Y441214D01*
X246578Y444851D01*
X245186Y448212D01*
X242613Y450784D01*
X239252Y452176D01*
X235615Y452176D01*
X232254Y450784D01*
X229682Y448212D01*
X228290Y444851D01*
X228290Y441214D01*
X229682Y437853D01*
X232254Y435281D01*
X235615Y433888D01*
G37*
G36*
X235615Y408488D02*
X239252Y408488D01*
X242613Y409881D01*
X245186Y412453D01*
X246578Y415814D01*
X246578Y419451D01*
X245186Y422812D01*
X242613Y425384D01*
X239252Y426776D01*
X235615Y426776D01*
X232254Y425384D01*
X229682Y422812D01*
X228290Y419451D01*
X228290Y415814D01*
X229682Y412453D01*
X232254Y409881D01*
X235615Y408488D01*
G37*
G36*
X438815Y408488D02*
X442452Y408488D01*
X445813Y409881D01*
X448386Y412453D01*
X449778Y415814D01*
X449778Y419451D01*
X448386Y422812D01*
X445813Y425384D01*
X442452Y426776D01*
X438815Y426776D01*
X435454Y425384D01*
X432882Y422812D01*
X431490Y419451D01*
X431490Y415814D01*
X432882Y412453D01*
X435454Y409881D01*
X438815Y408488D01*
G37*
G36*
X438815Y383088D02*
X442452Y383088D01*
X445813Y384481D01*
X448386Y387053D01*
X449778Y390414D01*
X449778Y394051D01*
X448386Y397412D01*
X445813Y399984D01*
X442452Y401376D01*
X438815Y401376D01*
X435454Y399984D01*
X432882Y397412D01*
X431490Y394051D01*
X431490Y390414D01*
X432882Y387053D01*
X435454Y384481D01*
X438815Y383088D01*
G37*
G36*
X235615Y383088D02*
X239252Y383088D01*
X242613Y384481D01*
X245186Y387053D01*
X246578Y390414D01*
X246578Y394051D01*
X245186Y397412D01*
X242613Y399984D01*
X239252Y401376D01*
X235615Y401376D01*
X232254Y399984D01*
X229682Y397412D01*
X228290Y394051D01*
X228290Y390414D01*
X229682Y387053D01*
X232254Y384481D01*
X235615Y383088D01*
G37*
G36*
X235615Y357688D02*
X239252Y357688D01*
X242613Y359081D01*
X245186Y361653D01*
X246578Y365014D01*
X246578Y368651D01*
X245186Y372012D01*
X242613Y374584D01*
X239252Y375976D01*
X235615Y375976D01*
X232254Y374584D01*
X229682Y372012D01*
X228290Y368651D01*
X228290Y365014D01*
X229682Y361653D01*
X232254Y359081D01*
X235615Y357688D01*
G37*
G36*
X438815Y357688D02*
X442452Y357688D01*
X445813Y359081D01*
X448386Y361653D01*
X449778Y365014D01*
X449778Y368651D01*
X448386Y372012D01*
X445813Y374584D01*
X442452Y375976D01*
X438815Y375976D01*
X435454Y374584D01*
X432882Y372012D01*
X431490Y368651D01*
X431490Y365014D01*
X432882Y361653D01*
X435454Y359081D01*
X438815Y357688D01*
G37*
G36*
X438815Y332288D02*
X442452Y332288D01*
X445813Y333681D01*
X448386Y336253D01*
X449778Y339614D01*
X449778Y343251D01*
X448386Y346612D01*
X445813Y349184D01*
X442452Y350576D01*
X438815Y350576D01*
X435454Y349184D01*
X432882Y346612D01*
X431490Y343251D01*
X431490Y339614D01*
X432882Y336253D01*
X435454Y333681D01*
X438815Y332288D01*
G37*
G36*
X235615Y332288D02*
X239252Y332288D01*
X242613Y333681D01*
X245186Y336253D01*
X246578Y339614D01*
X246578Y343251D01*
X245186Y346612D01*
X242613Y349184D01*
X239252Y350576D01*
X235615Y350576D01*
X232254Y349184D01*
X229682Y346612D01*
X228290Y343251D01*
X228290Y339614D01*
X229682Y336253D01*
X232254Y333681D01*
X235615Y332288D01*
G37*
G36*
X438815Y306888D02*
X442452Y306888D01*
X445813Y308281D01*
X448386Y310853D01*
X449778Y314214D01*
X449778Y317851D01*
X448386Y321212D01*
X445813Y323784D01*
X442452Y325176D01*
X438815Y325176D01*
X435454Y323784D01*
X432882Y321212D01*
X431490Y317851D01*
X431490Y314214D01*
X432882Y310853D01*
X435454Y308281D01*
X438815Y306888D01*
G37*
G36*
X235615Y306888D02*
X239252Y306888D01*
X242613Y308281D01*
X245186Y310853D01*
X246578Y314214D01*
X246578Y317851D01*
X245186Y321212D01*
X242613Y323784D01*
X239252Y325176D01*
X235615Y325176D01*
X232254Y323784D01*
X229682Y321212D01*
X228290Y317851D01*
X228290Y314214D01*
X229682Y310853D01*
X232254Y308281D01*
X235615Y306888D01*
G37*
G36*
X438815Y281488D02*
X442452Y281488D01*
X445813Y282881D01*
X448386Y285453D01*
X449778Y288814D01*
X449778Y292451D01*
X448386Y295812D01*
X445813Y298384D01*
X442452Y299776D01*
X438815Y299776D01*
X435454Y298384D01*
X432882Y295812D01*
X431490Y292451D01*
X431490Y288814D01*
X432882Y285453D01*
X435454Y282881D01*
X438815Y281488D01*
G37*
G36*
X235615Y281488D02*
X239252Y281488D01*
X242613Y282881D01*
X245186Y285453D01*
X246578Y288814D01*
X246578Y292451D01*
X245186Y295812D01*
X242613Y298384D01*
X239252Y299776D01*
X235615Y299776D01*
X232254Y298384D01*
X229682Y295812D01*
X228290Y292451D01*
X228290Y288814D01*
X229682Y285453D01*
X232254Y282881D01*
X235615Y281488D01*
G37*
G36*
X438815Y256088D02*
X442452Y256088D01*
X445813Y257481D01*
X448386Y260053D01*
X449778Y263414D01*
X449778Y267051D01*
X448386Y270412D01*
X445813Y272984D01*
X442452Y274376D01*
X438815Y274376D01*
X435454Y272984D01*
X432882Y270412D01*
X431490Y267051D01*
X431490Y263414D01*
X432882Y260053D01*
X435454Y257481D01*
X438815Y256088D01*
G37*
G36*
X235615Y256088D02*
X239252Y256088D01*
X242613Y257481D01*
X245186Y260053D01*
X246578Y263414D01*
X246578Y267051D01*
X245186Y270412D01*
X242613Y272984D01*
X239252Y274376D01*
X235615Y274376D01*
X232254Y272984D01*
X229682Y270412D01*
X228290Y267051D01*
X228290Y263414D01*
X229682Y260053D01*
X232254Y257481D01*
X235615Y256088D01*
G37*
G36*
X150253Y230505D02*
X151130Y230505D01*
X151130Y252095D01*
X150253Y252095D01*
X146285Y250452D01*
X143248Y247415D01*
X141497Y243186D01*
X141016Y242435D01*
X140197Y241844D01*
X139211Y241619D01*
X138216Y241796D01*
X137369Y242348D01*
X136804Y243186D01*
X135290Y246839D01*
X132539Y249590D01*
X128945Y251079D01*
X125055Y251079D01*
X121461Y249590D01*
X118710Y246839D01*
X117221Y243245D01*
X117221Y239355D01*
X118710Y235761D01*
X121461Y233010D01*
X125055Y231521D01*
X128945Y231521D01*
X132539Y233010D01*
X135290Y235761D01*
X136804Y239414D01*
X137284Y240165D01*
X138104Y240756D01*
X139089Y240981D01*
X140085Y240804D01*
X140932Y240252D01*
X141497Y239414D01*
X143248Y235185D01*
X146285Y232148D01*
X150253Y230505D01*
G37*
G36*
X153670Y230505D02*
X154547Y230505D01*
X158515Y232148D01*
X161552Y235185D01*
X163134Y239006D01*
X163601Y239742D01*
X164416Y240340D01*
X165400Y240573D01*
X166397Y240404D01*
X167248Y239859D01*
X167820Y239025D01*
X168021Y238034D01*
X168021Y232414D01*
X168914Y231521D01*
X186686Y231521D01*
X187579Y232414D01*
X187579Y250186D01*
X186686Y251079D01*
X168914Y251079D01*
X168021Y250186D01*
X168021Y244566D01*
X167871Y243707D01*
X167347Y242843D01*
X166527Y242251D01*
X165542Y242026D01*
X164547Y242204D01*
X163699Y242755D01*
X163134Y243594D01*
X161552Y247415D01*
X158515Y250452D01*
X154547Y252095D01*
X153670Y252095D01*
X153670Y230505D01*
G37*
G36*
X438815Y230688D02*
X442452Y230688D01*
X445813Y232081D01*
X448386Y234653D01*
X449778Y238014D01*
X449778Y241651D01*
X448386Y245012D01*
X445813Y247584D01*
X442452Y248976D01*
X438815Y248976D01*
X435454Y247584D01*
X432882Y245012D01*
X431490Y241651D01*
X431490Y238014D01*
X432882Y234653D01*
X435454Y232081D01*
X438815Y230688D01*
G37*
G36*
X235615Y230688D02*
X239252Y230688D01*
X242613Y232081D01*
X245186Y234653D01*
X246578Y238014D01*
X246578Y241651D01*
X245186Y245012D01*
X242613Y247584D01*
X239252Y248976D01*
X235615Y248976D01*
X232254Y247584D01*
X229682Y245012D01*
X228290Y241651D01*
X228290Y238014D01*
X229682Y234653D01*
X232254Y232081D01*
X235615Y230688D01*
G37*
G36*
X145890Y138430D02*
X153950Y138430D01*
X153950Y146490D01*
X153364Y146490D01*
X149935Y145070D01*
X147310Y142445D01*
X145890Y139016D01*
X145890Y138430D01*
G37*
G36*
X156490Y138430D02*
X164550Y138430D01*
X164550Y139016D01*
X163130Y142445D01*
X160505Y145070D01*
X157076Y146490D01*
X156490Y146490D01*
X156490Y138430D01*
G37*
G36*
X182799Y128846D02*
X197641Y128846D01*
X198534Y129739D01*
X198534Y144581D01*
X197641Y145474D01*
X182799Y145474D01*
X181906Y144581D01*
X181906Y129739D01*
X182799Y128846D01*
G37*
G36*
X156490Y127830D02*
X157076Y127830D01*
X160505Y129250D01*
X163130Y131875D01*
X164550Y135304D01*
X164550Y135890D01*
X156490Y135890D01*
X156490Y127830D01*
G37*
G36*
X153364Y127830D02*
X153950Y127830D01*
X153950Y135890D01*
X145890Y135890D01*
X145890Y135304D01*
X147310Y131875D01*
X149935Y129250D01*
X153364Y127830D01*
G37*
G36*
X47489Y76454D02*
X54111Y76454D01*
X60506Y78168D01*
X66240Y81478D01*
X70922Y86160D01*
X74232Y91894D01*
X75946Y98289D01*
X75946Y104911D01*
X74232Y111306D01*
X70922Y117040D01*
X66240Y121722D01*
X60506Y125032D01*
X54111Y126746D01*
X47489Y126746D01*
X41094Y125032D01*
X35360Y121722D01*
X30678Y117040D01*
X27368Y111306D01*
X25654Y104911D01*
X25654Y98289D01*
X27368Y91894D01*
X30678Y86160D01*
X35360Y81478D01*
X41094Y78168D01*
X47489Y76454D01*
G37*
G36*
X403089Y76454D02*
X409711Y76454D01*
X416106Y78168D01*
X421840Y81478D01*
X426522Y86160D01*
X429832Y91894D01*
X431546Y98289D01*
X431546Y104911D01*
X429832Y111306D01*
X426522Y117040D01*
X421840Y121722D01*
X416106Y125032D01*
X409711Y126746D01*
X403089Y126746D01*
X396694Y125032D01*
X390960Y121722D01*
X386278Y117040D01*
X382968Y111306D01*
X381254Y104911D01*
X381254Y98289D01*
X382968Y91894D01*
X386278Y86160D01*
X390960Y81478D01*
X396694Y78168D01*
X403089Y76454D01*
G37*
G36*
X107710Y37270D02*
X117230Y37270D01*
X117230Y46790D01*
X116354Y46790D01*
X112388Y45147D01*
X109353Y42112D01*
X107710Y38146D01*
X107710Y37270D01*
G37*
G36*
X310910Y37270D02*
X320430Y37270D01*
X320430Y46790D01*
X319554Y46790D01*
X315588Y45147D01*
X312553Y42112D01*
X310910Y38146D01*
X310910Y37270D01*
G37*
G36*
X322970Y37270D02*
X332490Y37270D01*
X332490Y38146D01*
X330847Y42112D01*
X327812Y45147D01*
X323846Y46790D01*
X322970Y46790D01*
X322970Y37270D01*
G37*
G36*
X119770Y37270D02*
X129290Y37270D01*
X129290Y38146D01*
X127647Y42112D01*
X124612Y45147D01*
X120646Y46790D01*
X119770Y46790D01*
X119770Y37270D01*
G37*
G36*
X74619Y26226D02*
X92381Y26226D01*
X93274Y27119D01*
X93274Y44881D01*
X92381Y45774D01*
X74619Y45774D01*
X73726Y44881D01*
X73726Y27119D01*
X74619Y26226D01*
G37*
G36*
X354756Y26226D02*
X358644Y26226D01*
X362236Y27714D01*
X364986Y30464D01*
X366474Y34056D01*
X366474Y37944D01*
X364986Y41536D01*
X362236Y44286D01*
X358644Y45774D01*
X354756Y45774D01*
X351164Y44286D01*
X348414Y41536D01*
X346926Y37944D01*
X346926Y34056D01*
X348414Y30464D01*
X351164Y27714D01*
X354756Y26226D01*
G37*
G36*
X214390Y36000D02*
X223910Y36000D01*
X223910Y45520D01*
X223034Y45520D01*
X219068Y43877D01*
X216033Y40842D01*
X214390Y36876D01*
X214390Y36000D01*
G37*
G36*
X226450Y36000D02*
X235970Y36000D01*
X235970Y36876D01*
X234327Y40842D01*
X231292Y43877D01*
X227326Y45520D01*
X226450Y45520D01*
X226450Y36000D01*
G37*
G36*
X181299Y24956D02*
X199061Y24956D01*
X199954Y25849D01*
X199954Y43611D01*
X199061Y44504D01*
X181299Y44504D01*
X180406Y43611D01*
X180406Y25849D01*
X181299Y24956D01*
G37*
G36*
X322970Y25210D02*
X323846Y25210D01*
X327812Y26853D01*
X330847Y29888D01*
X332490Y33854D01*
X332490Y34730D01*
X322970Y34730D01*
X322970Y25210D01*
G37*
G36*
X319554Y25210D02*
X320430Y25210D01*
X320430Y34730D01*
X310910Y34730D01*
X310910Y33854D01*
X312553Y29888D01*
X315588Y26853D01*
X319554Y25210D01*
G37*
G36*
X119770Y25210D02*
X120646Y25210D01*
X124612Y26853D01*
X127647Y29888D01*
X129290Y33854D01*
X129290Y34730D01*
X119770Y34730D01*
X119770Y25210D01*
G37*
G36*
X116354Y25210D02*
X117230Y25210D01*
X117230Y34730D01*
X107710Y34730D01*
X107710Y33854D01*
X109353Y29888D01*
X112388Y26853D01*
X116354Y25210D01*
G37*
G36*
X226450Y23940D02*
X227326Y23940D01*
X231292Y25583D01*
X234327Y28618D01*
X235970Y32584D01*
X235970Y33460D01*
X226450Y33460D01*
X226450Y23940D01*
G37*
G36*
X223034Y23940D02*
X223910Y23940D01*
X223910Y33460D01*
X214390Y33460D01*
X214390Y32584D01*
X216033Y28618D01*
X219068Y25583D01*
X223034Y23940D01*
G37*
%LPD*%
D10*
X286700Y36000D03*
D11*
X321700Y36000D03*
X356700Y36000D03*
D10*
X246700Y802200D03*
D11*
X211700Y802200D03*
X176700Y802200D03*
D12*
X24428Y626010D03*
X44428Y686010D03*
X44428Y566010D03*
X167428Y686010D03*
X167428Y566010D03*
D13*
X440634Y519232D03*
X440634Y493832D03*
X440634Y468432D03*
X440634Y443032D03*
X440634Y417632D03*
X440634Y392232D03*
X440634Y366832D03*
X440634Y341432D03*
X440634Y316032D03*
X440634Y290632D03*
X440634Y265232D03*
X440634Y239832D03*
X237434Y239832D03*
X237434Y265232D03*
X237434Y290632D03*
X237434Y316032D03*
X237434Y341432D03*
X237434Y366832D03*
X237434Y392232D03*
X237434Y417632D03*
X237434Y443032D03*
X237434Y468432D03*
X237434Y493832D03*
X237434Y519232D03*
X237434Y544632D03*
X237434Y570032D03*
X237434Y595432D03*
X237434Y620832D03*
D14*
X152400Y241300D03*
X127000Y241300D03*
D15*
X177800Y241300D03*
D16*
X44450Y506730D03*
X44450Y481330D03*
X44450Y494030D03*
D17*
X190220Y137160D03*
D18*
X155220Y137160D03*
D10*
X83500Y36000D03*
D11*
X118500Y36000D03*
D10*
X107000Y802200D03*
D11*
X72000Y802200D03*
D10*
X190180Y34730D03*
D11*
X225180Y34730D03*
D15*
X88900Y508000D03*
D14*
X165100Y508000D03*
D19*
X246700Y726972D02*
X246700Y802200D01*
X246700Y726972D02*
X167428Y647700D01*
X167428Y566010D01*
X218854Y103846D02*
X286700Y36000D01*
X218854Y103846D02*
X218854Y514584D01*
X167428Y566010D01*
M02*
