M48
;GenerationSoftware,Autodesk,EAGLE,9.7.0*%
;CreationDate,2026-08-30T21:36:41Z*%
FMAT,2
ICI,OFF
METRIC,TZ,000.000
T6C0.600
T5C0.850
T4C1.016
T3C1.100
T2C1.300
T1C2.997
%
G90
M71
T1
X5080Y73660
X40640Y73660
X5080Y10160
X40640Y10160
T2
X2443Y62601
X4443Y68601
X4443Y56601
X16743Y68601
X16743Y56601
T3
X28670Y3600
X32170Y3600
X35670Y3600
X24670Y80220
X21170Y80220
X17670Y80220
X22518Y3473
X19018Y3473
X7200Y80220
X10700Y80220
X11850Y3600
X8350Y3600
T4
X23743Y29063
X44063Y44303
X44063Y31603
X44063Y29063
X44063Y26523
X44063Y23983
X23743Y23983
X23743Y26523
X44063Y36683
X23743Y31603
X23743Y34143
X23743Y36683
X23743Y39223
X23743Y41763
X23743Y44303
X23743Y46843
X23743Y49383
X23743Y51923
X23743Y54463
X23743Y57003
X23743Y59543
X23743Y62083
X15240Y24130
X12700Y24130
X17780Y24130
X16510Y50800
X8890Y50800
X44063Y51923
X44063Y49383
X44063Y46843
X44063Y39223
X44063Y41763
X44063Y34143
T5
X15522Y13716
X19022Y13716
T6
X4445Y49403
X4445Y48133
X4445Y50673
M30