G04 EAGLE Gerber RS-274X export*
G75*
%MOMM*%
%FSLAX34Y34*%
%LPD*%
%IN*%
%IPPOS*%
%AMOC8*
5,1,8,0,0,1.08239X$1,22.5*%
G01*
G04 Define Apertures*
%ADD10C,0.254000*%
D10*
X0Y43360D02*
X165Y39581D01*
X659Y35831D01*
X1477Y32138D01*
X2615Y28530D01*
X4063Y25036D01*
X5809Y21680D01*
X7842Y18490D01*
X10144Y15489D01*
X12700Y12700D01*
X15489Y10144D01*
X18490Y7842D01*
X21680Y5809D01*
X25036Y4063D01*
X28530Y2615D01*
X32138Y1477D01*
X35831Y659D01*
X39581Y165D01*
X43360Y0D01*
X364354Y0D01*
X373266Y389D01*
X382109Y1553D01*
X390817Y3484D01*
X399324Y6166D01*
X407565Y9580D01*
X415477Y13698D01*
X423000Y18491D01*
X430077Y23921D01*
X436653Y29947D01*
X442679Y36523D01*
X448109Y43600D01*
X452902Y51123D01*
X457020Y59035D01*
X460434Y67276D01*
X463116Y75783D01*
X465047Y84491D01*
X466211Y93334D01*
X466600Y102246D01*
X466600Y713873D01*
X466127Y724700D01*
X464713Y735444D01*
X462367Y746025D01*
X459108Y756361D01*
X454961Y766373D01*
X449957Y775986D01*
X444134Y785127D01*
X437536Y793724D01*
X430215Y801715D01*
X422224Y809036D01*
X413627Y815634D01*
X404486Y821457D01*
X394873Y826461D01*
X384861Y830608D01*
X374525Y833867D01*
X363944Y836213D01*
X353200Y837627D01*
X342373Y838100D01*
X43190Y838100D01*
X39425Y837936D01*
X35690Y837444D01*
X32011Y836628D01*
X28418Y835495D01*
X24937Y834053D01*
X21595Y832314D01*
X18417Y830289D01*
X15428Y827996D01*
X12650Y825450D01*
X10104Y822672D01*
X7811Y819683D01*
X5786Y816505D01*
X4047Y813163D01*
X2605Y809682D01*
X1472Y806089D01*
X656Y802410D01*
X164Y798675D01*
X0Y794910D01*
X0Y43360D01*
M02*
