G04 EAGLE Gerber RS-274X export*
G75*
%MOMM*%
%FSLAX34Y34*%
%LPD*%
%INSilkscreen Bottom*%
%IPPOS*%
%AMOC8*
5,1,8,0,0,1.08239X$1,22.5*%
G01*
G04 Define Apertures*
G36*
X406041Y388514D02*
X393700Y388514D01*
X393700Y393130D01*
X393712Y393570D01*
X393748Y393997D01*
X393807Y394411D01*
X393890Y394811D01*
X393998Y395199D01*
X394129Y395573D01*
X394283Y395935D01*
X394462Y396283D01*
X394663Y396615D01*
X394885Y396927D01*
X395128Y397220D01*
X395391Y397494D01*
X395676Y397748D01*
X395982Y397982D01*
X396308Y398198D01*
X396656Y398394D01*
X397021Y398568D01*
X397402Y398719D01*
X397797Y398847D01*
X398207Y398952D01*
X398632Y399033D01*
X399073Y399092D01*
X399528Y399126D01*
X399997Y399138D01*
X400355Y399131D01*
X400701Y399111D01*
X401038Y399078D01*
X401364Y399032D01*
X401680Y398972D01*
X401985Y398898D01*
X402280Y398812D01*
X402565Y398712D01*
X402839Y398599D01*
X403103Y398473D01*
X403356Y398333D01*
X403600Y398180D01*
X403832Y398013D01*
X404055Y397834D01*
X404267Y397641D01*
X404469Y397435D01*
X404659Y397216D01*
X404837Y396986D01*
X405003Y396745D01*
X405156Y396493D01*
X405298Y396230D01*
X405427Y395955D01*
X405543Y395670D01*
X405648Y395373D01*
X405740Y395065D01*
X405820Y394746D01*
X405887Y394415D01*
X405943Y394074D01*
X405986Y393721D01*
X406016Y393357D01*
X406035Y392982D01*
X406041Y392595D01*
X406041Y388514D01*
G37*
%LPC*%
G36*
X404701Y390187D02*
X404701Y392560D01*
X404682Y393138D01*
X404625Y393681D01*
X404531Y394189D01*
X404400Y394661D01*
X404230Y395099D01*
X404023Y395501D01*
X403779Y395868D01*
X403496Y396200D01*
X403178Y396494D01*
X402826Y396749D01*
X402440Y396965D01*
X402020Y397142D01*
X401565Y397280D01*
X401077Y397378D01*
X400554Y397437D01*
X399997Y397456D01*
X399623Y397448D01*
X399261Y397422D01*
X398911Y397379D01*
X398574Y397318D01*
X398250Y397241D01*
X397938Y397146D01*
X397639Y397034D01*
X397352Y396905D01*
X397080Y396759D01*
X396825Y396599D01*
X396585Y396424D01*
X396363Y396233D01*
X396156Y396028D01*
X395966Y395808D01*
X395793Y395574D01*
X395636Y395324D01*
X395496Y395061D01*
X395375Y394789D01*
X395273Y394506D01*
X395189Y394212D01*
X395124Y393909D01*
X395077Y393595D01*
X395049Y393271D01*
X395040Y392937D01*
X395040Y390187D01*
X404701Y390187D01*
G37*
%LPD*%
G36*
X406041Y483201D02*
X393700Y483201D01*
X393700Y488211D01*
X393714Y488731D01*
X393757Y489221D01*
X393829Y489682D01*
X393929Y490114D01*
X394058Y490517D01*
X394215Y490890D01*
X394401Y491234D01*
X394615Y491548D01*
X394856Y491830D01*
X395119Y492073D01*
X395405Y492280D01*
X395713Y492448D01*
X396045Y492580D01*
X396400Y492673D01*
X396777Y492730D01*
X397177Y492748D01*
X397479Y492736D01*
X397768Y492698D01*
X398044Y492636D01*
X398306Y492549D01*
X398555Y492437D01*
X398791Y492300D01*
X399013Y492138D01*
X399222Y491951D01*
X399326Y491838D01*
X399415Y491741D01*
X399588Y491511D01*
X399741Y491259D01*
X399874Y490986D01*
X399987Y490691D01*
X400080Y490376D01*
X400154Y490040D01*
X400208Y489683D01*
X400279Y489955D01*
X400365Y490212D01*
X400467Y490452D01*
X400584Y490677D01*
X400717Y490886D01*
X400864Y491079D01*
X400936Y491156D01*
X401028Y491256D01*
X401206Y491417D01*
X401398Y491561D01*
X401600Y491685D01*
X401814Y491791D01*
X402038Y491877D01*
X402274Y491944D01*
X402520Y491992D01*
X402777Y492020D01*
X403045Y492030D01*
X403408Y492013D01*
X403747Y491962D01*
X404063Y491877D01*
X404356Y491759D01*
X404625Y491606D01*
X404871Y491419D01*
X405093Y491199D01*
X405292Y490944D01*
X405467Y490656D01*
X405620Y490333D01*
X405748Y489977D01*
X405854Y489586D01*
X405935Y489162D01*
X405994Y488704D01*
X406029Y488212D01*
X406041Y487686D01*
X406041Y483201D01*
G37*
%LPC*%
G36*
X399489Y484874D02*
X399489Y487992D01*
X399481Y488364D01*
X399455Y488711D01*
X399413Y489034D01*
X399353Y489334D01*
X399276Y489609D01*
X399183Y489860D01*
X399072Y490088D01*
X398944Y490291D01*
X398799Y490471D01*
X398637Y490627D01*
X398459Y490758D01*
X398263Y490866D01*
X398050Y490950D01*
X397820Y491010D01*
X397573Y491046D01*
X397309Y491058D01*
X397035Y491047D01*
X396779Y491014D01*
X396540Y490959D01*
X396319Y490883D01*
X396115Y490784D01*
X395929Y490664D01*
X395760Y490521D01*
X395609Y490357D01*
X395476Y490169D01*
X395360Y489955D01*
X395262Y489715D01*
X395182Y489448D01*
X395120Y489156D01*
X395076Y488838D01*
X395049Y488494D01*
X395040Y488124D01*
X395040Y484874D01*
X399489Y484874D01*
G37*
G36*
X404701Y484874D02*
X404701Y487686D01*
X404694Y488000D01*
X404674Y488296D01*
X404640Y488572D01*
X404593Y488829D01*
X404533Y489067D01*
X404459Y489285D01*
X404372Y489485D01*
X404272Y489665D01*
X404155Y489825D01*
X404021Y489964D01*
X403870Y490082D01*
X403700Y490178D01*
X403513Y490252D01*
X403308Y490306D01*
X403085Y490338D01*
X402844Y490348D01*
X402592Y490338D01*
X402356Y490307D01*
X402138Y490255D01*
X401936Y490183D01*
X401751Y490090D01*
X401584Y489976D01*
X401432Y489842D01*
X401298Y489687D01*
X401180Y489511D01*
X401078Y489314D01*
X400991Y489096D01*
X400920Y488856D01*
X400865Y488595D01*
X400826Y488313D01*
X400802Y488010D01*
X400794Y487686D01*
X400794Y484874D01*
X404701Y484874D01*
G37*
%LPD*%
G36*
X393700Y429042D02*
X393700Y430566D01*
X394344Y430619D01*
X395171Y430654D01*
X395171Y430671D01*
X394768Y430912D01*
X394424Y431185D01*
X394274Y431334D01*
X394139Y431492D01*
X394019Y431658D01*
X393915Y431832D01*
X393823Y432016D01*
X393744Y432212D01*
X393677Y432418D01*
X393622Y432637D01*
X393580Y432866D01*
X393549Y433107D01*
X393531Y433359D01*
X393525Y433623D01*
X393544Y434045D01*
X393602Y434440D01*
X393699Y434808D01*
X393835Y435148D01*
X394009Y435461D01*
X394222Y435747D01*
X394474Y436006D01*
X394764Y436238D01*
X395093Y436442D01*
X395461Y436619D01*
X395868Y436769D01*
X396313Y436891D01*
X396797Y436986D01*
X397320Y437055D01*
X397882Y437095D01*
X398482Y437109D01*
X399076Y437096D01*
X399631Y437056D01*
X400147Y436990D01*
X400624Y436898D01*
X401062Y436779D01*
X401461Y436634D01*
X401822Y436462D01*
X402143Y436264D01*
X402427Y436038D01*
X402672Y435782D01*
X402880Y435496D01*
X403050Y435181D01*
X403182Y434836D01*
X403276Y434461D01*
X403333Y434057D01*
X403352Y433623D01*
X403346Y433361D01*
X403327Y433110D01*
X403296Y432870D01*
X403253Y432641D01*
X403198Y432423D01*
X403130Y432215D01*
X403050Y432018D01*
X402958Y431832D01*
X402851Y431656D01*
X402728Y431488D01*
X402590Y431330D01*
X402434Y431181D01*
X402263Y431040D01*
X402076Y430908D01*
X401653Y430671D01*
X401653Y430636D01*
X402373Y430663D01*
X402993Y430671D01*
X406698Y430671D01*
X406698Y429095D01*
X395653Y429095D01*
X394425Y429082D01*
X393999Y429065D01*
X393700Y429042D01*
G37*
%LPC*%
G36*
X398333Y430671D02*
X398811Y430681D01*
X399256Y430710D01*
X399668Y430757D01*
X400046Y430824D01*
X400390Y430909D01*
X400701Y431014D01*
X400979Y431138D01*
X401224Y431280D01*
X401437Y431444D01*
X401622Y431630D01*
X401779Y431838D01*
X401907Y432070D01*
X402006Y432323D01*
X402078Y432600D01*
X402120Y432899D01*
X402134Y433220D01*
X402121Y433506D01*
X402081Y433770D01*
X402014Y434015D01*
X401920Y434238D01*
X401799Y434442D01*
X401652Y434624D01*
X401477Y434786D01*
X401276Y434928D01*
X401044Y435051D01*
X400776Y435158D01*
X400474Y435248D01*
X400135Y435322D01*
X399762Y435380D01*
X399353Y435421D01*
X398909Y435445D01*
X398430Y435454D01*
X397952Y435445D01*
X397509Y435421D01*
X397100Y435379D01*
X396725Y435321D01*
X396385Y435247D01*
X396079Y435156D01*
X395807Y435048D01*
X395570Y434924D01*
X395364Y434781D01*
X395185Y434617D01*
X395034Y434433D01*
X394910Y434229D01*
X394813Y434003D01*
X394745Y433757D01*
X394703Y433490D01*
X394690Y433203D01*
X394704Y432879D01*
X394745Y432579D01*
X394815Y432302D01*
X394912Y432049D01*
X395037Y431818D01*
X395190Y431611D01*
X395370Y431428D01*
X395579Y431267D01*
X395816Y431127D01*
X396084Y431006D01*
X396383Y430904D01*
X396712Y430820D01*
X397071Y430755D01*
X397462Y430709D01*
X397882Y430681D01*
X398333Y430671D01*
G37*
%LPD*%
G36*
X398395Y520389D02*
X397801Y520403D01*
X397246Y520442D01*
X396730Y520508D01*
X396253Y520601D01*
X395815Y520720D01*
X395416Y520865D01*
X395055Y521037D01*
X394734Y521235D01*
X394450Y521461D01*
X394205Y521717D01*
X393997Y522002D01*
X393827Y522317D01*
X393695Y522662D01*
X393600Y523037D01*
X393544Y523441D01*
X393525Y523875D01*
X393531Y524137D01*
X393549Y524388D01*
X393580Y524628D01*
X393623Y524857D01*
X393679Y525076D01*
X393747Y525284D01*
X393827Y525480D01*
X393919Y525667D01*
X394026Y525843D01*
X394148Y526010D01*
X394287Y526168D01*
X394442Y526318D01*
X394613Y526459D01*
X394801Y526590D01*
X395224Y526827D01*
X395224Y526862D01*
X394821Y526870D01*
X394348Y526893D01*
X393932Y526922D01*
X393700Y526950D01*
X393700Y528456D01*
X393999Y528433D01*
X394425Y528417D01*
X395653Y528404D01*
X406698Y528404D01*
X406698Y526827D01*
X402765Y526827D01*
X401705Y526845D01*
X401705Y526827D01*
X402105Y526591D01*
X402448Y526319D01*
X402597Y526170D01*
X402732Y526012D01*
X402852Y525846D01*
X402958Y525671D01*
X403050Y525486D01*
X403130Y525289D01*
X403198Y525082D01*
X403253Y524863D01*
X403296Y524633D01*
X403327Y524392D01*
X403346Y524139D01*
X403352Y523875D01*
X403333Y523453D01*
X403274Y523058D01*
X403178Y522691D01*
X403042Y522350D01*
X402868Y522037D01*
X402655Y521751D01*
X402403Y521492D01*
X402113Y521261D01*
X401783Y521057D01*
X401415Y520880D01*
X401009Y520730D01*
X400563Y520607D01*
X400079Y520512D01*
X399556Y520444D01*
X398995Y520403D01*
X398395Y520389D01*
G37*
%LPC*%
G36*
X398447Y522045D02*
X398925Y522053D01*
X399368Y522078D01*
X399777Y522119D01*
X400152Y522177D01*
X400492Y522252D01*
X400798Y522343D01*
X401070Y522451D01*
X401307Y522575D01*
X401513Y522718D01*
X401692Y522881D01*
X401843Y523065D01*
X401967Y523270D01*
X402063Y523495D01*
X402132Y523742D01*
X402173Y524008D01*
X402187Y524296D01*
X402173Y524615D01*
X402132Y524912D01*
X402064Y525187D01*
X401968Y525439D01*
X401845Y525668D01*
X401694Y525876D01*
X401516Y526060D01*
X401311Y526223D01*
X401076Y526364D01*
X400810Y526487D01*
X400513Y526591D01*
X400184Y526676D01*
X399823Y526742D01*
X399431Y526789D01*
X399007Y526818D01*
X398552Y526827D01*
X398080Y526818D01*
X397640Y526789D01*
X397231Y526742D01*
X396855Y526676D01*
X396511Y526591D01*
X396199Y526487D01*
X395919Y526364D01*
X395671Y526223D01*
X395644Y526203D01*
X395453Y526060D01*
X395264Y525875D01*
X395105Y525666D01*
X394974Y525434D01*
X394873Y525180D01*
X394800Y524902D01*
X394757Y524602D01*
X394742Y524278D01*
X394756Y523993D01*
X394796Y523728D01*
X394863Y523484D01*
X394957Y523260D01*
X395078Y523057D01*
X395225Y522874D01*
X395399Y522712D01*
X395601Y522570D01*
X395833Y522447D01*
X396100Y522340D01*
X396403Y522250D01*
X396741Y522176D01*
X397115Y522119D01*
X397524Y522078D01*
X397968Y522053D01*
X398447Y522045D01*
G37*
%LPD*%
G36*
X406041Y332670D02*
X393700Y332670D01*
X393700Y334343D01*
X398508Y334343D01*
X398508Y337969D01*
X398525Y338447D01*
X398573Y338899D01*
X398654Y339325D01*
X398767Y339726D01*
X398912Y340102D01*
X399090Y340451D01*
X399300Y340775D01*
X399542Y341074D01*
X399812Y341342D01*
X400104Y341574D01*
X400418Y341771D01*
X400755Y341931D01*
X401114Y342056D01*
X401496Y342146D01*
X401900Y342199D01*
X402327Y342217D01*
X402757Y342199D01*
X403162Y342146D01*
X403542Y342057D01*
X403897Y341932D01*
X404227Y341772D01*
X404533Y341577D01*
X404813Y341345D01*
X405069Y341078D01*
X405296Y340779D01*
X405494Y340451D01*
X405661Y340093D01*
X405798Y339705D01*
X405904Y339289D01*
X405980Y338843D01*
X406026Y338368D01*
X406041Y337864D01*
X406041Y332670D01*
G37*
%LPC*%
G36*
X404701Y334343D02*
X404701Y337663D01*
X404691Y338010D01*
X404663Y338336D01*
X404617Y338639D01*
X404551Y338919D01*
X404467Y339178D01*
X404364Y339413D01*
X404243Y339626D01*
X404103Y339817D01*
X403944Y339985D01*
X403767Y340131D01*
X403571Y340255D01*
X403356Y340356D01*
X403122Y340434D01*
X402870Y340490D01*
X402599Y340524D01*
X402310Y340535D01*
X402009Y340524D01*
X401729Y340492D01*
X401467Y340437D01*
X401225Y340360D01*
X401003Y340262D01*
X400799Y340141D01*
X400615Y339999D01*
X400451Y339835D01*
X400305Y339649D01*
X400180Y339441D01*
X400073Y339211D01*
X399986Y338959D01*
X399918Y338685D01*
X399870Y338390D01*
X399841Y338072D01*
X399831Y337733D01*
X399831Y334343D01*
X404701Y334343D01*
G37*
%LPD*%
G36*
X398447Y343921D02*
X397867Y343937D01*
X397322Y343987D01*
X396812Y344070D01*
X396337Y344186D01*
X395898Y344335D01*
X395494Y344517D01*
X395124Y344732D01*
X394790Y344981D01*
X394494Y345261D01*
X394237Y345574D01*
X394019Y345918D01*
X393841Y346294D01*
X393703Y346702D01*
X393604Y347142D01*
X393545Y347613D01*
X393525Y348116D01*
X393544Y348622D01*
X393601Y349096D01*
X393696Y349540D01*
X393829Y349953D01*
X394000Y350335D01*
X394210Y350686D01*
X394457Y351006D01*
X394742Y351295D01*
X395066Y351552D01*
X395430Y351774D01*
X395834Y351963D01*
X396277Y352117D01*
X396760Y352236D01*
X397283Y352322D01*
X397845Y352373D01*
X398447Y352390D01*
X399055Y352374D01*
X399622Y352326D01*
X400147Y352246D01*
X400631Y352134D01*
X401074Y351990D01*
X401476Y351814D01*
X401837Y351606D01*
X402156Y351365D01*
X402437Y351091D01*
X402679Y350781D01*
X402885Y350436D01*
X403053Y350054D01*
X403184Y349636D01*
X403277Y349183D01*
X403333Y348694D01*
X403352Y348169D01*
X403333Y347654D01*
X403275Y347173D01*
X403179Y346725D01*
X403045Y346310D01*
X402873Y345929D01*
X402662Y345580D01*
X402413Y345265D01*
X402126Y344983D01*
X401800Y344734D01*
X401436Y344518D01*
X401034Y344336D01*
X400593Y344186D01*
X400114Y344070D01*
X399597Y343987D01*
X399041Y343937D01*
X398447Y343921D01*
G37*
%LPC*%
G36*
X398447Y345576D02*
X398913Y345586D01*
X399347Y345615D01*
X399749Y345663D01*
X400119Y345730D01*
X400457Y345817D01*
X400763Y345923D01*
X401038Y346049D01*
X401281Y346194D01*
X401493Y346360D01*
X401677Y346550D01*
X401833Y346764D01*
X401960Y347003D01*
X402060Y347265D01*
X402130Y347551D01*
X402173Y347861D01*
X402187Y348195D01*
X402173Y348526D01*
X402131Y348833D01*
X402062Y349115D01*
X401965Y349372D01*
X401840Y349604D01*
X401687Y349812D01*
X401506Y349994D01*
X401298Y350152D01*
X401059Y350289D01*
X400786Y350407D01*
X400480Y350507D01*
X400141Y350589D01*
X399768Y350653D01*
X399361Y350698D01*
X398921Y350726D01*
X398447Y350735D01*
X397979Y350725D01*
X397543Y350697D01*
X397140Y350649D01*
X396768Y350583D01*
X396428Y350497D01*
X396120Y350392D01*
X395844Y350269D01*
X395601Y350126D01*
X395387Y349961D01*
X395202Y349771D01*
X395046Y349556D01*
X394917Y349315D01*
X394818Y349049D01*
X394747Y348757D01*
X394704Y348441D01*
X394690Y348099D01*
X394704Y347783D01*
X394749Y347490D01*
X394822Y347218D01*
X394925Y346968D01*
X395058Y346739D01*
X395219Y346533D01*
X395411Y346348D01*
X395631Y346185D01*
X395881Y346042D01*
X396160Y345919D01*
X396469Y345814D01*
X396806Y345728D01*
X397173Y345662D01*
X397568Y345614D01*
X397993Y345586D01*
X398447Y345576D01*
G37*
%LPD*%
G36*
X398447Y457546D02*
X397867Y457562D01*
X397322Y457612D01*
X396812Y457695D01*
X396337Y457811D01*
X395898Y457960D01*
X395494Y458142D01*
X395124Y458357D01*
X394790Y458606D01*
X394494Y458886D01*
X394237Y459199D01*
X394019Y459543D01*
X393841Y459919D01*
X393703Y460327D01*
X393604Y460767D01*
X393545Y461238D01*
X393525Y461741D01*
X393544Y462247D01*
X393601Y462721D01*
X393696Y463165D01*
X393829Y463578D01*
X394000Y463960D01*
X394210Y464311D01*
X394457Y464631D01*
X394742Y464920D01*
X395066Y465177D01*
X395430Y465399D01*
X395834Y465588D01*
X396277Y465742D01*
X396760Y465861D01*
X397283Y465947D01*
X397845Y465998D01*
X398447Y466015D01*
X399055Y465999D01*
X399622Y465951D01*
X400147Y465871D01*
X400631Y465759D01*
X401074Y465615D01*
X401476Y465439D01*
X401837Y465231D01*
X402156Y464990D01*
X402437Y464716D01*
X402679Y464406D01*
X402885Y464061D01*
X403053Y463679D01*
X403184Y463261D01*
X403277Y462808D01*
X403333Y462319D01*
X403352Y461794D01*
X403333Y461279D01*
X403275Y460798D01*
X403179Y460350D01*
X403045Y459935D01*
X402873Y459554D01*
X402662Y459205D01*
X402413Y458890D01*
X402126Y458608D01*
X401800Y458359D01*
X401436Y458143D01*
X401034Y457961D01*
X400593Y457811D01*
X400114Y457695D01*
X399597Y457612D01*
X399041Y457562D01*
X398447Y457546D01*
G37*
%LPC*%
G36*
X398447Y459201D02*
X398913Y459211D01*
X399347Y459240D01*
X399749Y459288D01*
X400119Y459355D01*
X400457Y459442D01*
X400763Y459548D01*
X401038Y459674D01*
X401281Y459819D01*
X401493Y459985D01*
X401677Y460175D01*
X401833Y460389D01*
X401960Y460628D01*
X402060Y460890D01*
X402130Y461176D01*
X402173Y461486D01*
X402187Y461820D01*
X402173Y462151D01*
X402131Y462458D01*
X402062Y462740D01*
X401965Y462997D01*
X401840Y463229D01*
X401687Y463437D01*
X401506Y463619D01*
X401298Y463777D01*
X401059Y463914D01*
X400786Y464032D01*
X400480Y464132D01*
X400141Y464214D01*
X399768Y464278D01*
X399361Y464323D01*
X398921Y464351D01*
X398447Y464360D01*
X397979Y464350D01*
X397543Y464322D01*
X397140Y464274D01*
X396768Y464208D01*
X396428Y464122D01*
X396120Y464017D01*
X395844Y463894D01*
X395601Y463751D01*
X395387Y463586D01*
X395202Y463396D01*
X395046Y463181D01*
X394917Y462940D01*
X394818Y462674D01*
X394747Y462382D01*
X394704Y462066D01*
X394690Y461724D01*
X394704Y461408D01*
X394749Y461115D01*
X394822Y460843D01*
X394925Y460593D01*
X395058Y460364D01*
X395219Y460158D01*
X395411Y459973D01*
X395631Y459810D01*
X395881Y459667D01*
X396160Y459544D01*
X396469Y459439D01*
X396806Y459353D01*
X397173Y459287D01*
X397568Y459239D01*
X397993Y459211D01*
X398447Y459201D01*
G37*
%LPD*%
G36*
X398447Y494452D02*
X397867Y494469D01*
X397322Y494518D01*
X396812Y494601D01*
X396337Y494717D01*
X395898Y494866D01*
X395494Y495048D01*
X395124Y495263D01*
X394790Y495512D01*
X394494Y495793D01*
X394237Y496105D01*
X394019Y496449D01*
X393841Y496826D01*
X393703Y497233D01*
X393604Y497673D01*
X393545Y498144D01*
X393525Y498647D01*
X393544Y499153D01*
X393601Y499628D01*
X393696Y500072D01*
X393829Y500484D01*
X394000Y500866D01*
X394210Y501217D01*
X394457Y501538D01*
X394742Y501827D01*
X395066Y502083D01*
X395430Y502306D01*
X395834Y502494D01*
X396277Y502648D01*
X396760Y502768D01*
X397283Y502853D01*
X397845Y502904D01*
X398447Y502921D01*
X399055Y502905D01*
X399622Y502857D01*
X400147Y502777D01*
X400631Y502665D01*
X401074Y502521D01*
X401476Y502345D01*
X401837Y502137D01*
X402156Y501897D01*
X402437Y501623D01*
X402679Y501313D01*
X402885Y500967D01*
X403053Y500585D01*
X403184Y500168D01*
X403277Y499714D01*
X403333Y499225D01*
X403352Y498700D01*
X403333Y498185D01*
X403275Y497704D01*
X403179Y497256D01*
X403045Y496841D01*
X402873Y496460D01*
X402662Y496111D01*
X402413Y495796D01*
X402126Y495514D01*
X401800Y495265D01*
X401436Y495049D01*
X401034Y494867D01*
X400593Y494717D01*
X400114Y494601D01*
X399597Y494518D01*
X399041Y494469D01*
X398447Y494452D01*
G37*
%LPC*%
G36*
X398447Y496107D02*
X398913Y496117D01*
X399347Y496146D01*
X399749Y496194D01*
X400119Y496262D01*
X400457Y496349D01*
X400763Y496455D01*
X401038Y496580D01*
X401281Y496725D01*
X401493Y496891D01*
X401677Y497081D01*
X401833Y497296D01*
X401960Y497534D01*
X402060Y497796D01*
X402130Y498082D01*
X402173Y498392D01*
X402187Y498726D01*
X402173Y499058D01*
X402131Y499364D01*
X402062Y499646D01*
X401965Y499903D01*
X401840Y500135D01*
X401687Y500343D01*
X401506Y500526D01*
X401298Y500684D01*
X401059Y500820D01*
X400786Y500939D01*
X400480Y501039D01*
X400141Y501121D01*
X399768Y501184D01*
X399361Y501230D01*
X398921Y501257D01*
X398447Y501266D01*
X397979Y501257D01*
X397543Y501228D01*
X397140Y501181D01*
X396768Y501114D01*
X396428Y501028D01*
X396120Y500924D01*
X395844Y500800D01*
X395601Y500657D01*
X395387Y500493D01*
X395202Y500302D01*
X395046Y500087D01*
X394917Y499846D01*
X394818Y499580D01*
X394747Y499289D01*
X394704Y498972D01*
X394690Y498630D01*
X394704Y498314D01*
X394749Y498021D01*
X394822Y497749D01*
X394925Y497499D01*
X395058Y497271D01*
X395219Y497064D01*
X395411Y496879D01*
X395631Y496716D01*
X395881Y496573D01*
X396160Y496450D01*
X396469Y496345D01*
X396806Y496260D01*
X397173Y496193D01*
X397568Y496145D01*
X397993Y496117D01*
X398447Y496107D01*
G37*
%LPD*%
G36*
X396345Y504429D02*
X396025Y504441D01*
X395723Y504474D01*
X395439Y504530D01*
X395171Y504609D01*
X394922Y504710D01*
X394690Y504833D01*
X394475Y504979D01*
X394278Y505148D01*
X394102Y505338D01*
X393949Y505551D01*
X393819Y505786D01*
X393713Y506043D01*
X393631Y506323D01*
X393572Y506624D01*
X393537Y506948D01*
X393525Y507294D01*
X393532Y507575D01*
X393553Y507846D01*
X393588Y508105D01*
X393638Y508354D01*
X393701Y508593D01*
X393779Y508820D01*
X393870Y509037D01*
X393976Y509242D01*
X394099Y509440D01*
X394241Y509631D01*
X394403Y509816D01*
X394586Y509994D01*
X394788Y510167D01*
X395010Y510334D01*
X395513Y510648D01*
X395513Y510701D01*
X395055Y510749D01*
X394851Y510789D01*
X394662Y510840D01*
X394490Y510901D01*
X394335Y510974D01*
X394195Y511057D01*
X394072Y511152D01*
X393964Y511259D01*
X393871Y511381D01*
X393792Y511518D01*
X393727Y511670D01*
X393677Y511836D01*
X393641Y512018D01*
X393620Y512215D01*
X393612Y512426D01*
X393621Y512735D01*
X393647Y513041D01*
X393691Y513344D01*
X393753Y513643D01*
X394734Y513643D01*
X394688Y513370D01*
X394672Y513127D01*
X394694Y512889D01*
X394761Y512693D01*
X394872Y512539D01*
X395027Y512426D01*
X395226Y512346D01*
X395468Y512288D01*
X395754Y512254D01*
X396082Y512242D01*
X400164Y512242D01*
X400540Y512228D01*
X400893Y512186D01*
X401224Y512115D01*
X401531Y512017D01*
X401816Y511890D01*
X402078Y511735D01*
X402317Y511551D01*
X402533Y511340D01*
X402725Y511101D01*
X402891Y510834D01*
X403032Y510539D01*
X403147Y510217D01*
X403237Y509867D01*
X403301Y509489D01*
X403339Y509084D01*
X403352Y508651D01*
X403342Y508238D01*
X403312Y507848D01*
X403262Y507482D01*
X403192Y507139D01*
X403102Y506820D01*
X402992Y506524D01*
X402862Y506251D01*
X402713Y506002D01*
X402543Y505776D01*
X402353Y505573D01*
X402143Y505394D01*
X401913Y505239D01*
X401664Y505106D01*
X401394Y504997D01*
X401104Y504912D01*
X400794Y504850D01*
X400646Y506497D01*
X400836Y506527D01*
X401013Y506569D01*
X401176Y506623D01*
X401327Y506689D01*
X401463Y506767D01*
X401587Y506858D01*
X401696Y506960D01*
X401793Y507075D01*
X401877Y507204D01*
X401950Y507352D01*
X402012Y507517D01*
X402062Y507701D01*
X402101Y507903D01*
X402130Y508122D01*
X402152Y508616D01*
X402144Y508870D01*
X402121Y509107D01*
X402082Y509326D01*
X402027Y509527D01*
X401957Y509711D01*
X401871Y509877D01*
X401770Y510026D01*
X401653Y510158D01*
X401518Y510273D01*
X401362Y510372D01*
X401186Y510456D01*
X400989Y510525D01*
X400772Y510579D01*
X400534Y510617D01*
X400276Y510640D01*
X399997Y510648D01*
X399481Y510648D01*
X399446Y508520D01*
X399421Y508000D01*
X399373Y507517D01*
X399303Y507071D01*
X399209Y506662D01*
X399093Y506290D01*
X398953Y505955D01*
X398790Y505658D01*
X398605Y505397D01*
X398397Y505170D01*
X398168Y504974D01*
X397918Y504808D01*
X397646Y504671D01*
X397353Y504566D01*
X397038Y504490D01*
X396702Y504445D01*
X396345Y504429D01*
G37*
%LPC*%
G36*
X396319Y506050D02*
X396657Y506069D01*
X396960Y506126D01*
X397230Y506222D01*
X397466Y506356D01*
X397671Y506526D01*
X397847Y506730D01*
X397995Y506966D01*
X398114Y507237D01*
X398207Y507557D01*
X398276Y507945D01*
X398321Y508400D01*
X398342Y508923D01*
X398377Y510648D01*
X397598Y510648D01*
X397237Y510624D01*
X396880Y510551D01*
X396529Y510429D01*
X396183Y510258D01*
X395858Y510046D01*
X395569Y509797D01*
X395317Y509514D01*
X395101Y509194D01*
X394929Y508845D01*
X394806Y508472D01*
X394732Y508074D01*
X394713Y507866D01*
X394707Y507653D01*
X394714Y507465D01*
X394734Y507289D01*
X394766Y507124D01*
X394812Y506971D01*
X394871Y506828D01*
X394944Y506696D01*
X395029Y506575D01*
X395128Y506466D01*
X395238Y506368D01*
X395360Y506284D01*
X395492Y506212D01*
X395636Y506154D01*
X395790Y506108D01*
X395955Y506076D01*
X396132Y506056D01*
X396319Y506050D01*
G37*
%LPD*%
G36*
X398500Y297086D02*
X397901Y297103D01*
X397341Y297154D01*
X396818Y297240D01*
X396334Y297361D01*
X395888Y297515D01*
X395480Y297704D01*
X395109Y297927D01*
X394777Y298185D01*
X394484Y298475D01*
X394229Y298797D01*
X394014Y299150D01*
X393838Y299535D01*
X393701Y299951D01*
X393603Y300398D01*
X393544Y300876D01*
X393525Y301386D01*
X393534Y301754D01*
X393560Y302106D01*
X393604Y302440D01*
X393665Y302757D01*
X393744Y303058D01*
X393840Y303342D01*
X393954Y303608D01*
X394085Y303858D01*
X394234Y304091D01*
X394401Y304307D01*
X394585Y304506D01*
X394786Y304689D01*
X395005Y304854D01*
X395242Y305003D01*
X395496Y305134D01*
X395767Y305249D01*
X396161Y303865D01*
X395860Y303730D01*
X395585Y303546D01*
X395338Y303312D01*
X395119Y303028D01*
X395022Y302868D01*
X394939Y302694D01*
X394868Y302508D01*
X394810Y302309D01*
X394765Y302097D01*
X394733Y301873D01*
X394714Y301636D01*
X394707Y301386D01*
X394721Y301072D01*
X394763Y300777D01*
X394832Y300501D01*
X394928Y300245D01*
X395053Y300009D01*
X395205Y299792D01*
X395385Y299594D01*
X395592Y299416D01*
X395825Y299257D01*
X396081Y299120D01*
X396360Y299005D01*
X396663Y298910D01*
X396988Y298836D01*
X397338Y298783D01*
X397710Y298752D01*
X398106Y298741D01*
X398106Y305503D01*
X398316Y305503D01*
X398926Y305486D01*
X399496Y305437D01*
X400027Y305356D01*
X400519Y305242D01*
X400972Y305095D01*
X401385Y304915D01*
X401758Y304703D01*
X402093Y304458D01*
X402388Y304181D01*
X402644Y303871D01*
X402860Y303528D01*
X403037Y303153D01*
X403175Y302745D01*
X403273Y302304D01*
X403332Y301831D01*
X403352Y301325D01*
X403332Y300829D01*
X403274Y300363D01*
X403176Y299927D01*
X403039Y299520D01*
X402863Y299142D01*
X402647Y298793D01*
X402393Y298474D01*
X402099Y298185D01*
X401769Y297927D01*
X401405Y297704D01*
X401006Y297515D01*
X400573Y297361D01*
X400106Y297240D01*
X399605Y297154D01*
X399069Y297103D01*
X398500Y297086D01*
G37*
%LPC*%
G36*
X399314Y298759D02*
X399640Y298781D01*
X399948Y298823D01*
X400239Y298885D01*
X400511Y298966D01*
X400765Y299066D01*
X401002Y299185D01*
X401220Y299323D01*
X401421Y299481D01*
X401600Y299656D01*
X401756Y299846D01*
X401888Y300051D01*
X401995Y300271D01*
X402079Y300505D01*
X402139Y300755D01*
X402175Y301019D01*
X402187Y301299D01*
X402176Y301586D01*
X402144Y301855D01*
X402090Y302108D01*
X402015Y302343D01*
X401918Y302561D01*
X401800Y302762D01*
X401661Y302945D01*
X401499Y303112D01*
X401315Y303261D01*
X401105Y303396D01*
X400870Y303514D01*
X400609Y303617D01*
X400324Y303705D01*
X400012Y303777D01*
X399676Y303833D01*
X399314Y303874D01*
X399314Y298759D01*
G37*
%LPD*%
G36*
X398500Y366867D02*
X397901Y366884D01*
X397341Y366936D01*
X396818Y367022D01*
X396334Y367142D01*
X395888Y367296D01*
X395480Y367485D01*
X395109Y367709D01*
X394777Y367966D01*
X394484Y368257D01*
X394229Y368578D01*
X394014Y368932D01*
X393838Y369316D01*
X393701Y369732D01*
X393603Y370179D01*
X393544Y370658D01*
X393525Y371167D01*
X393534Y371536D01*
X393560Y371887D01*
X393604Y372221D01*
X393665Y372539D01*
X393744Y372839D01*
X393840Y373123D01*
X393954Y373390D01*
X394085Y373640D01*
X394234Y373872D01*
X394401Y374089D01*
X394585Y374288D01*
X394786Y374470D01*
X395005Y374635D01*
X395242Y374784D01*
X395496Y374915D01*
X395767Y375030D01*
X396161Y373646D01*
X395860Y373512D01*
X395585Y373328D01*
X395338Y373093D01*
X395119Y372810D01*
X395022Y372649D01*
X394939Y372475D01*
X394868Y372289D01*
X394810Y372090D01*
X394765Y371879D01*
X394733Y371654D01*
X394714Y371417D01*
X394707Y371167D01*
X394721Y370853D01*
X394763Y370558D01*
X394832Y370283D01*
X394928Y370027D01*
X395053Y369790D01*
X395205Y369573D01*
X395385Y369375D01*
X395592Y369197D01*
X395825Y369039D01*
X396081Y368902D01*
X396360Y368786D01*
X396663Y368691D01*
X396988Y368617D01*
X397338Y368565D01*
X397710Y368533D01*
X398106Y368522D01*
X398106Y375284D01*
X398316Y375284D01*
X398926Y375268D01*
X399496Y375219D01*
X400027Y375137D01*
X400519Y375023D01*
X400972Y374876D01*
X401385Y374696D01*
X401758Y374484D01*
X402093Y374239D01*
X402388Y373962D01*
X402644Y373652D01*
X402860Y373309D01*
X403037Y372934D01*
X403175Y372526D01*
X403273Y372085D01*
X403332Y371612D01*
X403352Y371106D01*
X403332Y370611D01*
X403274Y370145D01*
X403176Y369708D01*
X403039Y369301D01*
X402863Y368923D01*
X402647Y368575D01*
X402393Y368256D01*
X402099Y367966D01*
X401769Y367709D01*
X401405Y367485D01*
X401006Y367296D01*
X400573Y367142D01*
X400106Y367022D01*
X399605Y366936D01*
X399069Y366884D01*
X398500Y366867D01*
G37*
%LPC*%
G36*
X399314Y368540D02*
X399640Y368563D01*
X399948Y368605D01*
X400239Y368666D01*
X400511Y368747D01*
X400765Y368847D01*
X401002Y368966D01*
X401220Y369105D01*
X401421Y369262D01*
X401600Y369437D01*
X401756Y369627D01*
X401888Y369832D01*
X401995Y370052D01*
X402079Y370286D01*
X402139Y370536D01*
X402175Y370800D01*
X402187Y371080D01*
X402176Y371367D01*
X402144Y371637D01*
X402090Y371889D01*
X402015Y372124D01*
X401918Y372342D01*
X401800Y372543D01*
X401661Y372727D01*
X401499Y372893D01*
X401315Y373043D01*
X401105Y373177D01*
X400870Y373296D01*
X400609Y373399D01*
X400324Y373486D01*
X400012Y373558D01*
X399676Y373614D01*
X399314Y373655D01*
X399314Y368540D01*
G37*
%LPD*%
G36*
X403177Y353110D02*
X393700Y355764D01*
X393700Y357586D01*
X398615Y358842D01*
X400746Y359372D01*
X401880Y359618D01*
X400400Y359933D01*
X393700Y361588D01*
X393700Y363419D01*
X403177Y366134D01*
X403177Y364592D01*
X396222Y362797D01*
X395005Y362525D01*
X396669Y362123D01*
X403177Y360467D01*
X403177Y358777D01*
X395653Y356797D01*
X395005Y356648D01*
X396201Y356397D01*
X396739Y356272D01*
X403177Y354669D01*
X403177Y353110D01*
G37*
G36*
X406041Y534653D02*
X393700Y539689D01*
X393700Y541423D01*
X406041Y546459D01*
X406041Y544699D01*
X397352Y541300D01*
X395171Y540565D01*
X397352Y539829D01*
X406041Y536413D01*
X406041Y534653D01*
G37*
G36*
X406698Y307501D02*
X393700Y307501D01*
X393700Y309078D01*
X397072Y309078D01*
X398027Y310234D01*
X393700Y313439D01*
X393700Y315288D01*
X399104Y311241D01*
X403177Y315086D01*
X403177Y313238D01*
X398579Y309078D01*
X406698Y309078D01*
X406698Y307501D01*
G37*
G36*
X403177Y266493D02*
X393744Y270250D01*
X393367Y270101D01*
X392860Y269877D01*
X392421Y269634D01*
X392049Y269371D01*
X391745Y269089D01*
X391508Y268789D01*
X391415Y268631D01*
X391339Y268469D01*
X391280Y268302D01*
X391238Y268130D01*
X391212Y267953D01*
X391204Y267771D01*
X391217Y267386D01*
X391256Y267036D01*
X390074Y267036D01*
X390032Y267268D01*
X390002Y267526D01*
X389984Y267811D01*
X389978Y268122D01*
X390000Y268501D01*
X390069Y268861D01*
X390182Y269200D01*
X390341Y269519D01*
X390546Y269821D01*
X390799Y270109D01*
X391098Y270383D01*
X391445Y270644D01*
X391863Y270903D01*
X392379Y271172D01*
X392991Y271450D01*
X393700Y271739D01*
X403177Y275382D01*
X403177Y273718D01*
X397142Y271643D01*
X395417Y271029D01*
X396503Y270670D01*
X397646Y270276D01*
X397939Y270171D01*
X403177Y268174D01*
X403177Y266493D01*
G37*
G36*
X403177Y257640D02*
X402912Y257663D01*
X402487Y257679D01*
X401154Y257692D01*
X393700Y257692D01*
X393700Y259269D01*
X399192Y259269D01*
X399528Y259279D01*
X399846Y259310D01*
X400145Y259361D01*
X400424Y259433D01*
X400685Y259526D01*
X400927Y259639D01*
X401151Y259772D01*
X401355Y259926D01*
X401538Y260098D01*
X401696Y260284D01*
X401830Y260486D01*
X401940Y260703D01*
X402025Y260935D01*
X402086Y261182D01*
X402122Y261444D01*
X402134Y261721D01*
X402120Y262088D01*
X402078Y262407D01*
X402006Y262679D01*
X401907Y262904D01*
X401775Y263092D01*
X401607Y263252D01*
X401403Y263385D01*
X401162Y263491D01*
X400878Y263571D01*
X400540Y263629D01*
X400151Y263663D01*
X399708Y263675D01*
X393700Y263675D01*
X393700Y265260D01*
X400015Y265260D01*
X400446Y265249D01*
X400845Y265215D01*
X401213Y265158D01*
X401549Y265079D01*
X401853Y264978D01*
X402126Y264853D01*
X402367Y264707D01*
X402577Y264537D01*
X402758Y264344D01*
X402916Y264124D01*
X403049Y263878D01*
X403158Y263606D01*
X403243Y263307D01*
X403303Y262983D01*
X403340Y262632D01*
X403352Y262256D01*
X403346Y261996D01*
X403326Y261747D01*
X403295Y261509D01*
X403250Y261282D01*
X403193Y261066D01*
X403123Y260861D01*
X403040Y260666D01*
X402945Y260482D01*
X402834Y260306D01*
X402705Y260136D01*
X402559Y259971D01*
X402394Y259811D01*
X402011Y259507D01*
X401556Y259225D01*
X401556Y259199D01*
X402498Y259168D01*
X402940Y259146D01*
X403177Y259129D01*
X403177Y257640D01*
G37*
G36*
X403177Y467984D02*
X402912Y468007D01*
X402487Y468023D01*
X401154Y468036D01*
X393700Y468036D01*
X393700Y469613D01*
X399192Y469613D01*
X399528Y469623D01*
X399846Y469654D01*
X400145Y469705D01*
X400424Y469777D01*
X400685Y469869D01*
X400927Y469982D01*
X401151Y470116D01*
X401355Y470270D01*
X401538Y470441D01*
X401696Y470628D01*
X401830Y470830D01*
X401940Y471047D01*
X402025Y471279D01*
X402086Y471526D01*
X402122Y471788D01*
X402134Y472065D01*
X402120Y472431D01*
X402078Y472751D01*
X402006Y473023D01*
X401907Y473248D01*
X401775Y473435D01*
X401607Y473596D01*
X401403Y473729D01*
X401162Y473834D01*
X400878Y473915D01*
X400540Y473972D01*
X400151Y474007D01*
X399708Y474018D01*
X393700Y474018D01*
X393700Y475604D01*
X400015Y475604D01*
X400446Y475592D01*
X400845Y475558D01*
X401213Y475502D01*
X401549Y475423D01*
X401853Y475321D01*
X402126Y475197D01*
X402367Y475050D01*
X402577Y474881D01*
X402758Y474687D01*
X402916Y474467D01*
X403049Y474221D01*
X403158Y473949D01*
X403243Y473651D01*
X403303Y473327D01*
X403340Y472976D01*
X403352Y472599D01*
X403346Y472340D01*
X403326Y472091D01*
X403295Y471853D01*
X403250Y471626D01*
X403193Y471410D01*
X403123Y471204D01*
X403040Y471010D01*
X402945Y470826D01*
X402834Y470650D01*
X402705Y470480D01*
X402559Y470314D01*
X402394Y470155D01*
X402011Y469851D01*
X401556Y469569D01*
X401556Y469543D01*
X402498Y469512D01*
X402940Y469490D01*
X403177Y469473D01*
X403177Y467984D01*
G37*
G36*
X403177Y439020D02*
X396862Y439020D01*
X396431Y439031D01*
X396032Y439065D01*
X395664Y439121D01*
X395328Y439201D01*
X395024Y439302D01*
X394751Y439426D01*
X394510Y439573D01*
X394300Y439742D01*
X394118Y439936D01*
X393961Y440156D01*
X393828Y440402D01*
X393719Y440674D01*
X393634Y440972D01*
X393573Y441297D01*
X393537Y441647D01*
X393525Y442024D01*
X393531Y442284D01*
X393550Y442532D01*
X393582Y442770D01*
X393627Y442997D01*
X393684Y443214D01*
X393754Y443419D01*
X393837Y443614D01*
X393932Y443798D01*
X394043Y443973D01*
X394172Y444144D01*
X394318Y444309D01*
X394483Y444469D01*
X394866Y444772D01*
X395320Y445055D01*
X395320Y445081D01*
X394379Y445111D01*
X393936Y445133D01*
X393700Y445151D01*
X393700Y446640D01*
X393964Y446617D01*
X394390Y446600D01*
X395723Y446587D01*
X403177Y446587D01*
X403177Y445011D01*
X397685Y445011D01*
X397349Y445000D01*
X397031Y444970D01*
X396732Y444918D01*
X396452Y444847D01*
X396191Y444754D01*
X395949Y444641D01*
X395726Y444508D01*
X395522Y444354D01*
X395339Y444182D01*
X395181Y443995D01*
X395047Y443793D01*
X394937Y443577D01*
X394852Y443345D01*
X394791Y443098D01*
X394754Y442835D01*
X394742Y442558D01*
X394756Y442192D01*
X394799Y441873D01*
X394870Y441601D01*
X394970Y441376D01*
X395102Y441188D01*
X395270Y441028D01*
X395474Y440895D01*
X395714Y440789D01*
X395999Y440709D01*
X396336Y440651D01*
X396726Y440617D01*
X397168Y440605D01*
X403177Y440605D01*
X403177Y439020D01*
G37*
G36*
X395925Y404479D02*
X395626Y404562D01*
X395348Y404666D01*
X395090Y404790D01*
X394853Y404936D01*
X394636Y405102D01*
X394439Y405290D01*
X394263Y405498D01*
X394107Y405727D01*
X393971Y405980D01*
X393852Y406257D01*
X393752Y406561D01*
X393670Y406889D01*
X393607Y407243D01*
X393561Y407622D01*
X393534Y408026D01*
X393525Y408456D01*
X393536Y408898D01*
X393570Y409316D01*
X393627Y409708D01*
X393707Y410075D01*
X393809Y410416D01*
X393934Y410733D01*
X394081Y411023D01*
X394252Y411289D01*
X394443Y411526D01*
X394654Y411732D01*
X394883Y411905D01*
X395132Y412048D01*
X395400Y412158D01*
X395687Y412237D01*
X395993Y412285D01*
X396319Y412301D01*
X396583Y412290D01*
X396832Y412257D01*
X397067Y412202D01*
X397287Y412125D01*
X397493Y412029D01*
X397686Y411914D01*
X397867Y411781D01*
X398035Y411631D01*
X398194Y411456D01*
X398345Y411253D01*
X398490Y411021D01*
X398627Y410759D01*
X398763Y410439D01*
X398906Y410032D01*
X399054Y409537D01*
X399209Y408955D01*
X399498Y407860D01*
X399616Y407483D01*
X399717Y407221D01*
X399814Y407027D01*
X399921Y406859D01*
X400037Y406716D01*
X400164Y406599D01*
X400304Y406507D01*
X400462Y406441D01*
X400637Y406402D01*
X400829Y406389D01*
X400988Y406397D01*
X401137Y406420D01*
X401275Y406460D01*
X401403Y406516D01*
X401521Y406587D01*
X401628Y406674D01*
X401724Y406778D01*
X401810Y406897D01*
X401886Y407032D01*
X401952Y407186D01*
X402008Y407356D01*
X402053Y407545D01*
X402114Y407974D01*
X402134Y408473D01*
X402113Y408930D01*
X402050Y409339D01*
X401945Y409699D01*
X401797Y410010D01*
X401610Y410269D01*
X401387Y410473D01*
X401261Y410555D01*
X401126Y410622D01*
X400983Y410676D01*
X400829Y410715D01*
X401005Y412134D01*
X401299Y412062D01*
X401572Y411969D01*
X401824Y411855D01*
X402056Y411719D01*
X402266Y411563D01*
X402456Y411385D01*
X402626Y411185D01*
X402774Y410965D01*
X402903Y410724D01*
X403015Y410463D01*
X403110Y410181D01*
X403188Y409880D01*
X403248Y409558D01*
X403291Y409217D01*
X403317Y408855D01*
X403326Y408473D01*
X403315Y408044D01*
X403283Y407641D01*
X403230Y407265D01*
X403156Y406915D01*
X403060Y406592D01*
X402944Y406295D01*
X402806Y406024D01*
X402647Y405780D01*
X402468Y405563D01*
X402269Y405376D01*
X402051Y405217D01*
X401814Y405087D01*
X401557Y404986D01*
X401281Y404914D01*
X400986Y404870D01*
X400672Y404856D01*
X400335Y404876D01*
X400026Y404937D01*
X399744Y405038D01*
X399489Y405180D01*
X399258Y405358D01*
X399044Y405566D01*
X398848Y405806D01*
X398670Y406078D01*
X398501Y406414D01*
X398330Y406847D01*
X398157Y407379D01*
X397983Y408009D01*
X397685Y409139D01*
X397564Y409538D01*
X397427Y409879D01*
X397275Y410160D01*
X397107Y410382D01*
X396919Y410551D01*
X396704Y410672D01*
X396463Y410744D01*
X396196Y410768D01*
X396018Y410759D01*
X395851Y410733D01*
X395696Y410690D01*
X395552Y410629D01*
X395420Y410551D01*
X395300Y410455D01*
X395190Y410342D01*
X395093Y410212D01*
X395006Y410063D01*
X394932Y409893D01*
X394868Y409704D01*
X394817Y409495D01*
X394776Y409265D01*
X394748Y409015D01*
X394730Y408746D01*
X394725Y408456D01*
X394747Y407926D01*
X394813Y407457D01*
X394863Y407246D01*
X394924Y407050D01*
X394996Y406869D01*
X395079Y406704D01*
X395175Y406553D01*
X395282Y406415D01*
X395403Y406291D01*
X395536Y406181D01*
X395682Y406083D01*
X395841Y405999D01*
X396012Y405929D01*
X396196Y405872D01*
X395925Y404479D01*
G37*
G36*
X406041Y242602D02*
X404674Y242602D01*
X404674Y246841D01*
X393700Y246841D01*
X393700Y248505D01*
X404674Y248505D01*
X404674Y252744D01*
X406041Y252744D01*
X406041Y242602D01*
G37*
G36*
X406041Y280477D02*
X404674Y280477D01*
X404674Y284716D01*
X393700Y284716D01*
X393700Y286380D01*
X404674Y286380D01*
X404674Y290619D01*
X406041Y290619D01*
X406041Y280477D01*
G37*
G36*
X395040Y547909D02*
X393700Y547909D01*
X393700Y555643D01*
X395040Y555643D01*
X395040Y552638D01*
X406041Y552638D01*
X406041Y551185D01*
X404035Y548268D01*
X402546Y548268D01*
X404534Y551053D01*
X395040Y551053D01*
X395040Y547909D01*
G37*
G36*
X395040Y562878D02*
X393700Y562878D01*
X393700Y570611D01*
X395040Y570611D01*
X395040Y567607D01*
X406041Y567607D01*
X406041Y566153D01*
X404035Y563237D01*
X402546Y563237D01*
X404534Y566022D01*
X395040Y566022D01*
X395040Y562878D01*
G37*
G36*
X403177Y413220D02*
X402029Y413220D01*
X402029Y414315D01*
X395706Y414315D01*
X395446Y414322D01*
X395203Y414345D01*
X394976Y414382D01*
X394767Y414433D01*
X394574Y414500D01*
X394398Y414581D01*
X394239Y414677D01*
X394096Y414788D01*
X393971Y414914D01*
X393862Y415054D01*
X393769Y415209D01*
X393694Y415379D01*
X393635Y415564D01*
X393593Y415764D01*
X393568Y415978D01*
X393560Y416207D01*
X393573Y416612D01*
X393612Y417013D01*
X393678Y417409D01*
X393770Y417801D01*
X394935Y417801D01*
X394843Y417275D01*
X394812Y416890D01*
X394830Y416635D01*
X394881Y416420D01*
X394968Y416247D01*
X395088Y416115D01*
X395252Y416017D01*
X395466Y415947D01*
X395731Y415906D01*
X396047Y415892D01*
X402029Y415892D01*
X402029Y417643D01*
X403177Y417643D01*
X403177Y415892D01*
X405296Y415892D01*
X405296Y414841D01*
X403177Y414376D01*
X403177Y413220D01*
G37*
G36*
X403177Y448095D02*
X402029Y448095D01*
X402029Y449190D01*
X395706Y449190D01*
X395446Y449197D01*
X395203Y449220D01*
X394976Y449257D01*
X394767Y449308D01*
X394574Y449375D01*
X394398Y449456D01*
X394239Y449552D01*
X394096Y449663D01*
X393971Y449789D01*
X393862Y449929D01*
X393769Y450084D01*
X393694Y450254D01*
X393635Y450439D01*
X393593Y450639D01*
X393568Y450853D01*
X393560Y451082D01*
X393573Y451487D01*
X393612Y451888D01*
X393678Y452284D01*
X393770Y452676D01*
X394935Y452676D01*
X394843Y452150D01*
X394812Y451765D01*
X394830Y451510D01*
X394881Y451295D01*
X394968Y451122D01*
X395088Y450990D01*
X395252Y450892D01*
X395466Y450822D01*
X395731Y450781D01*
X396047Y450767D01*
X402029Y450767D01*
X402029Y452518D01*
X403177Y452518D01*
X403177Y450767D01*
X405296Y450767D01*
X405296Y449716D01*
X403177Y449251D01*
X403177Y448095D01*
G37*
G36*
X403177Y291546D02*
X402021Y291586D01*
X400970Y291599D01*
X393700Y291599D01*
X393700Y293175D01*
X398640Y293175D01*
X399023Y293183D01*
X399382Y293208D01*
X399719Y293248D01*
X400034Y293304D01*
X400325Y293377D01*
X400593Y293466D01*
X400839Y293571D01*
X401062Y293692D01*
X401260Y293828D01*
X401431Y293979D01*
X401577Y294145D01*
X401695Y294325D01*
X401788Y294519D01*
X401854Y294728D01*
X401894Y294952D01*
X401907Y295190D01*
X401885Y295663D01*
X401857Y295860D01*
X401819Y296031D01*
X403264Y296031D01*
X403330Y295709D01*
X403352Y295391D01*
X403345Y295174D01*
X403324Y294970D01*
X403289Y294778D01*
X403240Y294599D01*
X403177Y294432D01*
X403101Y294278D01*
X403010Y294136D01*
X402905Y294007D01*
X402782Y293886D01*
X402634Y293769D01*
X402266Y293545D01*
X401802Y293336D01*
X401241Y293140D01*
X401241Y293105D01*
X403177Y293035D01*
X403177Y291546D01*
G37*
G36*
X403177Y377265D02*
X402021Y377304D01*
X400970Y377317D01*
X393700Y377317D01*
X393700Y378894D01*
X398640Y378894D01*
X399023Y378902D01*
X399382Y378926D01*
X399719Y378967D01*
X400034Y379023D01*
X400325Y379096D01*
X400593Y379185D01*
X400839Y379290D01*
X401062Y379411D01*
X401260Y379547D01*
X401431Y379698D01*
X401577Y379864D01*
X401695Y380044D01*
X401788Y380238D01*
X401854Y380447D01*
X401894Y380670D01*
X401907Y380908D01*
X401885Y381381D01*
X401857Y381578D01*
X401819Y381749D01*
X403264Y381749D01*
X403330Y381427D01*
X403352Y381110D01*
X403345Y380893D01*
X403324Y380688D01*
X403289Y380497D01*
X403240Y380317D01*
X403177Y380151D01*
X403101Y379996D01*
X403010Y379855D01*
X402905Y379726D01*
X402782Y379605D01*
X402634Y379488D01*
X402266Y379264D01*
X401802Y379054D01*
X401241Y378859D01*
X401241Y378824D01*
X403177Y378754D01*
X403177Y377265D01*
G37*
G36*
X403177Y419109D02*
X402021Y419148D01*
X400970Y419161D01*
X393700Y419161D01*
X393700Y420738D01*
X398640Y420738D01*
X399023Y420746D01*
X399382Y420770D01*
X399719Y420810D01*
X400034Y420867D01*
X400325Y420940D01*
X400593Y421028D01*
X400839Y421133D01*
X401062Y421255D01*
X401260Y421391D01*
X401431Y421542D01*
X401577Y421707D01*
X401695Y421887D01*
X401788Y422082D01*
X401854Y422291D01*
X401894Y422514D01*
X401907Y422752D01*
X401885Y423225D01*
X401857Y423422D01*
X401819Y423593D01*
X403264Y423593D01*
X403330Y423271D01*
X403352Y422954D01*
X403345Y422737D01*
X403324Y422532D01*
X403289Y422340D01*
X403240Y422161D01*
X403177Y421994D01*
X403101Y421840D01*
X403010Y421699D01*
X402905Y421570D01*
X402782Y421449D01*
X402634Y421332D01*
X402266Y421108D01*
X401802Y420898D01*
X401241Y420703D01*
X401241Y420668D01*
X403177Y420598D01*
X403177Y419109D01*
G37*
G36*
X403177Y514859D02*
X402021Y514898D01*
X400970Y514911D01*
X393700Y514911D01*
X393700Y516488D01*
X398640Y516488D01*
X399023Y516496D01*
X399382Y516520D01*
X399719Y516560D01*
X400034Y516617D01*
X400325Y516690D01*
X400593Y516778D01*
X400839Y516883D01*
X401062Y517005D01*
X401260Y517141D01*
X401431Y517292D01*
X401577Y517457D01*
X401695Y517637D01*
X401788Y517832D01*
X401854Y518041D01*
X401894Y518264D01*
X401907Y518502D01*
X401885Y518975D01*
X401857Y519172D01*
X401819Y519343D01*
X403264Y519343D01*
X403330Y519021D01*
X403352Y518704D01*
X403345Y518487D01*
X403324Y518282D01*
X403289Y518090D01*
X403240Y517911D01*
X403177Y517744D01*
X403101Y517590D01*
X403010Y517449D01*
X402905Y517320D01*
X402782Y517199D01*
X402634Y517082D01*
X402266Y516858D01*
X401802Y516648D01*
X401241Y516453D01*
X401241Y516418D01*
X403177Y516348D01*
X403177Y514859D01*
G37*
G36*
X403177Y253680D02*
X393700Y253680D01*
X393700Y255256D01*
X403177Y255256D01*
X403177Y253680D01*
G37*
G36*
X403177Y401180D02*
X393700Y401180D01*
X393700Y402756D01*
X403177Y402756D01*
X403177Y401180D01*
G37*
G36*
X403177Y425086D02*
X393700Y425086D01*
X393700Y426663D01*
X403177Y426663D01*
X403177Y425086D01*
G37*
G36*
X403177Y454024D02*
X393700Y454024D01*
X393700Y455600D01*
X403177Y455600D01*
X403177Y454024D01*
G37*
G36*
X399165Y321058D02*
X397764Y321058D01*
X397764Y325438D01*
X399165Y325438D01*
X399165Y321058D01*
G37*
G36*
X395618Y558149D02*
X393700Y558149D01*
X393700Y559857D01*
X395618Y559857D01*
X395618Y558149D01*
G37*
G36*
X406698Y253680D02*
X405191Y253680D01*
X405191Y255256D01*
X406698Y255256D01*
X406698Y253680D01*
G37*
G36*
X406698Y401180D02*
X405191Y401180D01*
X405191Y402756D01*
X406698Y402756D01*
X406698Y401180D01*
G37*
G36*
X406698Y425086D02*
X405191Y425086D01*
X405191Y426663D01*
X406698Y426663D01*
X406698Y425086D01*
G37*
G36*
X406698Y454024D02*
X405191Y454024D01*
X405191Y455600D01*
X406698Y455600D01*
X406698Y454024D01*
G37*
G36*
X361775Y428438D02*
X361021Y428455D01*
X360313Y428505D01*
X359652Y428588D01*
X359038Y428705D01*
X358470Y428855D01*
X357948Y429039D01*
X357474Y429256D01*
X357045Y429506D01*
X356665Y429790D01*
X356336Y430107D01*
X356058Y430457D01*
X355830Y430840D01*
X355653Y431256D01*
X355526Y431705D01*
X355482Y431942D01*
X355450Y432188D01*
X355431Y432441D01*
X355425Y432703D01*
X355431Y432965D01*
X355450Y433219D01*
X355482Y433465D01*
X355527Y433703D01*
X355654Y434154D01*
X355832Y434572D01*
X356061Y434958D01*
X356341Y435312D01*
X356672Y435633D01*
X357054Y435922D01*
X357484Y436178D01*
X357960Y436399D01*
X358481Y436587D01*
X359049Y436740D01*
X359662Y436859D01*
X360320Y436944D01*
X361025Y436995D01*
X361775Y437013D01*
X362537Y436996D01*
X363251Y436948D01*
X363916Y436867D01*
X364534Y436753D01*
X365103Y436607D01*
X365624Y436429D01*
X366097Y436218D01*
X366522Y435975D01*
X366898Y435697D01*
X367223Y435384D01*
X367499Y435035D01*
X367724Y434651D01*
X367899Y434231D01*
X367968Y434007D01*
X368025Y433775D01*
X368068Y433534D01*
X368100Y433283D01*
X368118Y433024D01*
X368125Y432756D01*
X368119Y432480D01*
X368100Y432214D01*
X368069Y431957D01*
X368026Y431710D01*
X367970Y431472D01*
X367902Y431244D01*
X367728Y430815D01*
X367505Y430424D01*
X367233Y430070D01*
X366911Y429754D01*
X366539Y429476D01*
X366118Y429233D01*
X365647Y429022D01*
X365126Y428843D01*
X364556Y428697D01*
X363935Y428584D01*
X363265Y428503D01*
X362545Y428454D01*
X361775Y428438D01*
G37*
%LPC*%
G36*
X361775Y430032D02*
X362428Y430042D01*
X363033Y430072D01*
X363590Y430121D01*
X364100Y430191D01*
X364562Y430280D01*
X364977Y430389D01*
X365344Y430518D01*
X365664Y430667D01*
X365941Y430838D01*
X366181Y431036D01*
X366384Y431258D01*
X366550Y431507D01*
X366680Y431781D01*
X366772Y432080D01*
X366827Y432405D01*
X366846Y432756D01*
X366827Y433098D01*
X366771Y433415D01*
X366677Y433707D01*
X366546Y433974D01*
X366377Y434216D01*
X366171Y434433D01*
X365927Y434625D01*
X365646Y434792D01*
X365323Y434937D01*
X364954Y435062D01*
X364539Y435169D01*
X364078Y435255D01*
X363571Y435323D01*
X363018Y435371D01*
X362420Y435400D01*
X361775Y435410D01*
X361152Y435400D01*
X360570Y435369D01*
X360031Y435319D01*
X359533Y435248D01*
X359076Y435157D01*
X358661Y435045D01*
X358288Y434913D01*
X357956Y434762D01*
X357665Y434588D01*
X357412Y434391D01*
X357198Y434171D01*
X357023Y433927D01*
X356887Y433661D01*
X356790Y433371D01*
X356732Y433057D01*
X356712Y432721D01*
X356731Y432382D01*
X356788Y432067D01*
X356884Y431776D01*
X357017Y431509D01*
X357188Y431265D01*
X357397Y431045D01*
X357644Y430848D01*
X357930Y430676D01*
X358256Y430525D01*
X358627Y430394D01*
X359041Y430283D01*
X359500Y430193D01*
X360002Y430122D01*
X360549Y430072D01*
X361140Y430042D01*
X361775Y430032D01*
G37*
%LPD*%
G36*
X361775Y453344D02*
X361021Y453361D01*
X360313Y453411D01*
X359652Y453494D01*
X359038Y453611D01*
X358470Y453762D01*
X357948Y453945D01*
X357474Y454162D01*
X357045Y454413D01*
X356665Y454696D01*
X356336Y455013D01*
X356058Y455363D01*
X355830Y455746D01*
X355653Y456162D01*
X355526Y456612D01*
X355482Y456849D01*
X355450Y457094D01*
X355431Y457348D01*
X355425Y457610D01*
X355431Y457872D01*
X355450Y458125D01*
X355482Y458371D01*
X355527Y458609D01*
X355654Y459060D01*
X355832Y459478D01*
X356061Y459865D01*
X356341Y460218D01*
X356672Y460540D01*
X357054Y460828D01*
X357484Y461084D01*
X357960Y461305D01*
X358481Y461493D01*
X359049Y461646D01*
X359662Y461765D01*
X360320Y461851D01*
X361025Y461902D01*
X361775Y461919D01*
X362537Y461903D01*
X363251Y461854D01*
X363916Y461773D01*
X364534Y461659D01*
X365103Y461513D01*
X365624Y461335D01*
X366097Y461124D01*
X366522Y460881D01*
X366898Y460604D01*
X367223Y460290D01*
X367499Y459942D01*
X367724Y459557D01*
X367899Y459137D01*
X367968Y458914D01*
X368025Y458681D01*
X368068Y458440D01*
X368100Y458189D01*
X368118Y457930D01*
X368125Y457662D01*
X368119Y457387D01*
X368100Y457120D01*
X368069Y456864D01*
X368026Y456616D01*
X367970Y456378D01*
X367902Y456150D01*
X367728Y455721D01*
X367505Y455330D01*
X367233Y454976D01*
X366911Y454660D01*
X366539Y454382D01*
X366118Y454139D01*
X365647Y453928D01*
X365126Y453750D01*
X364556Y453604D01*
X363935Y453490D01*
X363265Y453409D01*
X362545Y453360D01*
X361775Y453344D01*
G37*
%LPC*%
G36*
X361775Y454938D02*
X362428Y454948D01*
X363033Y454978D01*
X363590Y455028D01*
X364100Y455097D01*
X364562Y455186D01*
X364977Y455295D01*
X365344Y455424D01*
X365664Y455573D01*
X365941Y455745D01*
X366181Y455942D01*
X366384Y456165D01*
X366550Y456413D01*
X366680Y456687D01*
X366772Y456986D01*
X366827Y457311D01*
X366846Y457662D01*
X366827Y458004D01*
X366771Y458321D01*
X366677Y458614D01*
X366546Y458881D01*
X366377Y459123D01*
X366171Y459340D01*
X365927Y459532D01*
X365646Y459698D01*
X365323Y459843D01*
X364954Y459969D01*
X364539Y460075D01*
X364078Y460162D01*
X363571Y460229D01*
X363018Y460277D01*
X362420Y460306D01*
X361775Y460316D01*
X361152Y460306D01*
X360570Y460275D01*
X360031Y460225D01*
X359533Y460154D01*
X359076Y460063D01*
X358661Y459951D01*
X358288Y459820D01*
X357956Y459668D01*
X357665Y459494D01*
X357412Y459297D01*
X357198Y459077D01*
X357023Y458834D01*
X356887Y458567D01*
X356790Y458277D01*
X356732Y457964D01*
X356712Y457627D01*
X356731Y457289D01*
X356788Y456974D01*
X356884Y456683D01*
X357017Y456415D01*
X357188Y456171D01*
X357397Y455951D01*
X357644Y455755D01*
X357930Y455582D01*
X358256Y455431D01*
X358627Y455300D01*
X359041Y455190D01*
X359500Y455099D01*
X360002Y455029D01*
X360549Y454978D01*
X361140Y454948D01*
X361775Y454938D01*
G37*
%LPD*%
G36*
X367941Y352427D02*
X355600Y352427D01*
X355600Y353916D01*
X363833Y353916D01*
X365488Y353881D01*
X366461Y353855D01*
X365497Y354144D01*
X364008Y354635D01*
X355600Y357866D01*
X355600Y359040D01*
X364008Y362228D01*
X364493Y362404D01*
X365064Y362592D01*
X366461Y362999D01*
X365173Y362940D01*
X363833Y362920D01*
X355600Y362920D01*
X355600Y364427D01*
X367941Y364427D01*
X367941Y362281D01*
X359384Y359058D01*
X359067Y358943D01*
X358486Y358755D01*
X357863Y358570D01*
X357422Y358462D01*
X358276Y358247D01*
X358848Y358082D01*
X359384Y357910D01*
X367941Y354626D01*
X367941Y352427D01*
G37*
G36*
X355600Y329085D02*
X355600Y330819D01*
X359209Y332238D01*
X359209Y337861D01*
X355600Y339271D01*
X355600Y340979D01*
X367941Y336022D01*
X367941Y334121D01*
X355600Y329085D01*
G37*
%LPC*%
G36*
X360514Y332746D02*
X364569Y334322D01*
X365604Y334699D01*
X366434Y334970D01*
X366680Y335049D01*
X365953Y335286D01*
X365230Y335531D01*
X364586Y335776D01*
X360514Y337362D01*
X360514Y332746D01*
G37*
%LPD*%
G36*
X358245Y366655D02*
X357925Y366667D01*
X357623Y366700D01*
X357339Y366756D01*
X357071Y366835D01*
X356822Y366936D01*
X356590Y367059D01*
X356375Y367205D01*
X356178Y367374D01*
X356002Y367564D01*
X355849Y367777D01*
X355719Y368012D01*
X355613Y368269D01*
X355531Y368549D01*
X355472Y368850D01*
X355437Y369174D01*
X355425Y369520D01*
X355432Y369801D01*
X355453Y370072D01*
X355488Y370331D01*
X355538Y370580D01*
X355601Y370819D01*
X355679Y371046D01*
X355770Y371263D01*
X355876Y371468D01*
X355999Y371666D01*
X356141Y371857D01*
X356303Y372042D01*
X356486Y372220D01*
X356688Y372393D01*
X356910Y372560D01*
X357413Y372874D01*
X357413Y372927D01*
X356955Y372974D01*
X356751Y373015D01*
X356562Y373066D01*
X356390Y373127D01*
X356235Y373200D01*
X356095Y373283D01*
X355972Y373378D01*
X355864Y373485D01*
X355771Y373607D01*
X355692Y373744D01*
X355627Y373895D01*
X355577Y374062D01*
X355541Y374244D01*
X355520Y374441D01*
X355512Y374652D01*
X355521Y374961D01*
X355547Y375267D01*
X355591Y375570D01*
X355653Y375869D01*
X356634Y375869D01*
X356588Y375596D01*
X356572Y375353D01*
X356594Y375115D01*
X356661Y374919D01*
X356772Y374765D01*
X356927Y374652D01*
X357126Y374572D01*
X357368Y374514D01*
X357654Y374480D01*
X357982Y374468D01*
X362064Y374468D01*
X362440Y374454D01*
X362793Y374412D01*
X363124Y374341D01*
X363431Y374243D01*
X363716Y374116D01*
X363978Y373961D01*
X364217Y373777D01*
X364433Y373566D01*
X364625Y373327D01*
X364791Y373060D01*
X364932Y372765D01*
X365047Y372443D01*
X365137Y372093D01*
X365201Y371715D01*
X365239Y371310D01*
X365252Y370877D01*
X365242Y370464D01*
X365212Y370074D01*
X365162Y369708D01*
X365092Y369365D01*
X365002Y369046D01*
X364892Y368750D01*
X364762Y368477D01*
X364613Y368228D01*
X364443Y368002D01*
X364253Y367799D01*
X364043Y367620D01*
X363813Y367465D01*
X363564Y367332D01*
X363294Y367223D01*
X363004Y367138D01*
X362694Y367076D01*
X362546Y368722D01*
X362736Y368753D01*
X362913Y368795D01*
X363076Y368849D01*
X363227Y368915D01*
X363363Y368993D01*
X363487Y369084D01*
X363596Y369186D01*
X363693Y369301D01*
X363777Y369430D01*
X363850Y369578D01*
X363912Y369743D01*
X363962Y369927D01*
X364001Y370128D01*
X364030Y370348D01*
X364052Y370842D01*
X364044Y371096D01*
X364021Y371333D01*
X363982Y371551D01*
X363927Y371753D01*
X363857Y371937D01*
X363771Y372103D01*
X363670Y372252D01*
X363553Y372384D01*
X363418Y372499D01*
X363262Y372598D01*
X363086Y372682D01*
X362889Y372751D01*
X362672Y372805D01*
X362434Y372843D01*
X362176Y372866D01*
X361897Y372874D01*
X361381Y372874D01*
X361346Y370746D01*
X361321Y370226D01*
X361273Y369743D01*
X361203Y369297D01*
X361109Y368888D01*
X360993Y368516D01*
X360853Y368181D01*
X360690Y367884D01*
X360505Y367623D01*
X360297Y367396D01*
X360068Y367200D01*
X359818Y367034D01*
X359546Y366897D01*
X359253Y366792D01*
X358938Y366716D01*
X358602Y366671D01*
X358245Y366655D01*
G37*
%LPC*%
G36*
X358219Y368276D02*
X358557Y368295D01*
X358860Y368352D01*
X359130Y368448D01*
X359366Y368582D01*
X359571Y368752D01*
X359747Y368956D01*
X359895Y369192D01*
X360014Y369463D01*
X360107Y369783D01*
X360176Y370171D01*
X360221Y370626D01*
X360242Y371149D01*
X360277Y372874D01*
X359498Y372874D01*
X359137Y372850D01*
X358780Y372777D01*
X358429Y372655D01*
X358083Y372484D01*
X357758Y372272D01*
X357469Y372023D01*
X357217Y371740D01*
X357001Y371420D01*
X356829Y371071D01*
X356706Y370698D01*
X356632Y370300D01*
X356613Y370092D01*
X356607Y369879D01*
X356614Y369691D01*
X356634Y369515D01*
X356666Y369350D01*
X356712Y369197D01*
X356771Y369054D01*
X356844Y368922D01*
X356929Y368801D01*
X357028Y368692D01*
X357138Y368594D01*
X357260Y368510D01*
X357392Y368438D01*
X357536Y368380D01*
X357690Y368334D01*
X357855Y368302D01*
X358032Y368282D01*
X358219Y368276D01*
G37*
%LPD*%
G36*
X359620Y473024D02*
X358394Y473024D01*
X358394Y478840D01*
X355600Y478840D01*
X355600Y480328D01*
X358394Y480328D01*
X358394Y482063D01*
X359638Y482063D01*
X359638Y480328D01*
X367941Y480328D01*
X367941Y478673D01*
X359620Y473024D01*
G37*
%LPC*%
G36*
X359638Y474478D02*
X359813Y474618D01*
X360461Y475091D01*
X365121Y478253D01*
X365699Y478594D01*
X366163Y478840D01*
X359638Y478840D01*
X359638Y474478D01*
G37*
%LPD*%
G36*
X368598Y386071D02*
X355600Y386071D01*
X355600Y387647D01*
X358972Y387647D01*
X359927Y388804D01*
X355600Y392009D01*
X355600Y393857D01*
X361004Y389811D01*
X365077Y393656D01*
X365077Y391808D01*
X360479Y387647D01*
X368598Y387647D01*
X368598Y386071D01*
G37*
G36*
X356712Y443577D02*
X355600Y443577D01*
X355600Y451749D01*
X356940Y451749D01*
X356940Y445311D01*
X357250Y445463D01*
X357565Y445657D01*
X357887Y445892D01*
X358214Y446169D01*
X358555Y446493D01*
X358916Y446868D01*
X359297Y447294D01*
X359699Y447772D01*
X360395Y448614D01*
X360993Y449307D01*
X361494Y449853D01*
X361897Y450251D01*
X362252Y450555D01*
X362607Y450819D01*
X362962Y451043D01*
X363316Y451227D01*
X363672Y451371D01*
X364028Y451474D01*
X364385Y451535D01*
X364744Y451556D01*
X365137Y451540D01*
X365508Y451493D01*
X365855Y451415D01*
X366179Y451305D01*
X366480Y451164D01*
X366758Y450992D01*
X367013Y450788D01*
X367244Y450553D01*
X367451Y450289D01*
X367630Y449998D01*
X367781Y449680D01*
X367905Y449334D01*
X368001Y448962D01*
X368070Y448563D01*
X368111Y448138D01*
X368125Y447685D01*
X368111Y447269D01*
X368070Y446874D01*
X368002Y446497D01*
X367906Y446140D01*
X367783Y445802D01*
X367632Y445483D01*
X367454Y445184D01*
X367249Y444904D01*
X367020Y444648D01*
X366773Y444420D01*
X366507Y444220D01*
X366222Y444049D01*
X365918Y443906D01*
X365595Y443791D01*
X365253Y443705D01*
X364893Y443647D01*
X364744Y445258D01*
X364984Y445295D01*
X365211Y445349D01*
X365424Y445420D01*
X365623Y445507D01*
X365808Y445611D01*
X365980Y445732D01*
X366137Y445870D01*
X366281Y446025D01*
X366409Y446194D01*
X366521Y446373D01*
X366615Y446564D01*
X366692Y446766D01*
X366751Y446979D01*
X366794Y447203D01*
X366820Y447438D01*
X366828Y447685D01*
X366820Y447942D01*
X366793Y448185D01*
X366750Y448414D01*
X366688Y448628D01*
X366609Y448828D01*
X366513Y449013D01*
X366399Y449184D01*
X366268Y449340D01*
X366121Y449480D01*
X365959Y449601D01*
X365783Y449703D01*
X365593Y449787D01*
X365389Y449852D01*
X365171Y449898D01*
X364938Y449926D01*
X364691Y449936D01*
X364325Y449914D01*
X363978Y449849D01*
X363650Y449741D01*
X363343Y449590D01*
X363048Y449403D01*
X362760Y449190D01*
X362479Y448950D01*
X362204Y448683D01*
X361661Y448089D01*
X361118Y447426D01*
X360552Y446727D01*
X359940Y446020D01*
X359613Y445670D01*
X359268Y445327D01*
X358904Y444993D01*
X358521Y444667D01*
X358114Y444358D01*
X357677Y444073D01*
X357210Y443813D01*
X356712Y443577D01*
G37*
G36*
X356712Y463546D02*
X355600Y463546D01*
X355600Y471717D01*
X356940Y471717D01*
X356940Y465280D01*
X357250Y465432D01*
X357565Y465626D01*
X357887Y465861D01*
X358214Y466138D01*
X358555Y466462D01*
X358916Y466837D01*
X359297Y467263D01*
X359699Y467741D01*
X360395Y468582D01*
X360993Y469276D01*
X361494Y469822D01*
X361897Y470220D01*
X362252Y470524D01*
X362607Y470788D01*
X362962Y471012D01*
X363316Y471196D01*
X363672Y471340D01*
X364028Y471443D01*
X364385Y471504D01*
X364744Y471525D01*
X365137Y471509D01*
X365508Y471462D01*
X365855Y471384D01*
X366179Y471274D01*
X366480Y471133D01*
X366758Y470961D01*
X367013Y470757D01*
X367244Y470522D01*
X367451Y470258D01*
X367630Y469966D01*
X367781Y469648D01*
X367905Y469303D01*
X368001Y468931D01*
X368070Y468532D01*
X368111Y468106D01*
X368125Y467653D01*
X368111Y467238D01*
X368070Y466842D01*
X368002Y466466D01*
X367906Y466109D01*
X367783Y465771D01*
X367632Y465452D01*
X367454Y465153D01*
X367249Y464873D01*
X367020Y464616D01*
X366773Y464388D01*
X366507Y464189D01*
X366222Y464017D01*
X365918Y463875D01*
X365595Y463760D01*
X365253Y463674D01*
X364893Y463616D01*
X364744Y465227D01*
X364984Y465264D01*
X365211Y465318D01*
X365424Y465388D01*
X365623Y465476D01*
X365808Y465580D01*
X365980Y465701D01*
X366137Y465839D01*
X366281Y465994D01*
X366409Y466162D01*
X366521Y466342D01*
X366615Y466533D01*
X366692Y466735D01*
X366751Y466948D01*
X366794Y467172D01*
X366820Y467407D01*
X366828Y467653D01*
X366820Y467911D01*
X366793Y468154D01*
X366750Y468383D01*
X366688Y468597D01*
X366609Y468797D01*
X366513Y468982D01*
X366399Y469153D01*
X366268Y469309D01*
X366121Y469448D01*
X365959Y469569D01*
X365783Y469672D01*
X365593Y469755D01*
X365389Y469821D01*
X365171Y469867D01*
X364938Y469895D01*
X364691Y469904D01*
X364325Y469883D01*
X363978Y469818D01*
X363650Y469710D01*
X363343Y469558D01*
X363048Y469372D01*
X362760Y469159D01*
X362479Y468919D01*
X362204Y468652D01*
X361661Y468057D01*
X361118Y467395D01*
X360552Y466695D01*
X359940Y465989D01*
X359613Y465639D01*
X359268Y465296D01*
X358904Y464962D01*
X358521Y464636D01*
X358114Y464326D01*
X357677Y464042D01*
X357210Y463781D01*
X356712Y463546D01*
G37*
G36*
X365077Y394996D02*
X358762Y394996D01*
X358331Y395007D01*
X357932Y395041D01*
X357564Y395097D01*
X357228Y395177D01*
X356924Y395278D01*
X356651Y395402D01*
X356410Y395549D01*
X356200Y395718D01*
X356018Y395912D01*
X355861Y396132D01*
X355728Y396378D01*
X355619Y396650D01*
X355534Y396948D01*
X355473Y397273D01*
X355437Y397623D01*
X355425Y398000D01*
X355431Y398260D01*
X355450Y398508D01*
X355482Y398746D01*
X355527Y398973D01*
X355584Y399190D01*
X355654Y399395D01*
X355737Y399590D01*
X355832Y399774D01*
X355943Y399949D01*
X356072Y400120D01*
X356218Y400285D01*
X356383Y400445D01*
X356766Y400748D01*
X357220Y401030D01*
X357220Y401057D01*
X356279Y401087D01*
X355836Y401109D01*
X355600Y401127D01*
X355600Y402616D01*
X355864Y402593D01*
X356290Y402576D01*
X357623Y402563D01*
X365077Y402563D01*
X365077Y400987D01*
X359585Y400987D01*
X359249Y400976D01*
X358931Y400946D01*
X358632Y400894D01*
X358352Y400822D01*
X358091Y400730D01*
X357849Y400617D01*
X357626Y400484D01*
X357422Y400330D01*
X357239Y400158D01*
X357081Y399971D01*
X356947Y399769D01*
X356837Y399552D01*
X356752Y399321D01*
X356691Y399074D01*
X356654Y398811D01*
X356642Y398534D01*
X356656Y398168D01*
X356699Y397849D01*
X356770Y397577D01*
X356870Y397352D01*
X357002Y397164D01*
X357170Y397004D01*
X357374Y396871D01*
X357614Y396765D01*
X357899Y396685D01*
X358236Y396627D01*
X358626Y396593D01*
X359068Y396581D01*
X365077Y396581D01*
X365077Y394996D01*
G37*
G36*
X357825Y376393D02*
X357526Y376475D01*
X357248Y376579D01*
X356990Y376704D01*
X356753Y376849D01*
X356536Y377016D01*
X356339Y377203D01*
X356163Y377412D01*
X356007Y377641D01*
X355871Y377893D01*
X355752Y378171D01*
X355652Y378474D01*
X355570Y378802D01*
X355507Y379156D01*
X355461Y379535D01*
X355434Y379939D01*
X355425Y380369D01*
X355436Y380812D01*
X355470Y381229D01*
X355527Y381621D01*
X355607Y381988D01*
X355709Y382330D01*
X355834Y382646D01*
X355981Y382937D01*
X356152Y383202D01*
X356343Y383440D01*
X356554Y383645D01*
X356783Y383819D01*
X357032Y383961D01*
X357300Y384072D01*
X357587Y384151D01*
X357893Y384198D01*
X358219Y384214D01*
X358483Y384203D01*
X358732Y384170D01*
X358967Y384116D01*
X359187Y384039D01*
X359393Y383942D01*
X359586Y383828D01*
X359767Y383695D01*
X359935Y383544D01*
X360094Y383370D01*
X360245Y383166D01*
X360390Y382934D01*
X360527Y382673D01*
X360663Y382353D01*
X360806Y381946D01*
X360954Y381451D01*
X361109Y380868D01*
X361398Y379774D01*
X361516Y379397D01*
X361617Y379134D01*
X361714Y378941D01*
X361821Y378773D01*
X361937Y378630D01*
X362064Y378512D01*
X362204Y378420D01*
X362362Y378355D01*
X362537Y378315D01*
X362729Y378302D01*
X362888Y378310D01*
X363037Y378334D01*
X363175Y378374D01*
X363303Y378429D01*
X363421Y378501D01*
X363528Y378588D01*
X363624Y378691D01*
X363710Y378810D01*
X363786Y378946D01*
X363852Y379099D01*
X363908Y379270D01*
X363953Y379458D01*
X364014Y379887D01*
X364034Y380387D01*
X364013Y380844D01*
X363950Y381253D01*
X363845Y381613D01*
X363697Y381924D01*
X363510Y382183D01*
X363287Y382387D01*
X363161Y382468D01*
X363026Y382535D01*
X362883Y382589D01*
X362729Y382629D01*
X362905Y384048D01*
X363199Y383976D01*
X363472Y383883D01*
X363724Y383768D01*
X363956Y383633D01*
X364166Y383476D01*
X364356Y383298D01*
X364526Y383099D01*
X364674Y382878D01*
X364803Y382637D01*
X364915Y382376D01*
X365010Y382095D01*
X365088Y381793D01*
X365148Y381472D01*
X365191Y381130D01*
X365217Y380768D01*
X365226Y380387D01*
X365215Y379958D01*
X365183Y379555D01*
X365130Y379179D01*
X365056Y378829D01*
X364960Y378505D01*
X364844Y378208D01*
X364706Y377938D01*
X364547Y377693D01*
X364368Y377477D01*
X364169Y377289D01*
X363951Y377130D01*
X363714Y377000D01*
X363457Y376899D01*
X363181Y376827D01*
X362886Y376784D01*
X362572Y376769D01*
X362235Y376790D01*
X361926Y376850D01*
X361644Y376952D01*
X361389Y377093D01*
X361158Y377271D01*
X360944Y377480D01*
X360748Y377720D01*
X360570Y377991D01*
X360401Y378327D01*
X360230Y378761D01*
X360057Y379293D01*
X359883Y379922D01*
X359585Y381052D01*
X359464Y381452D01*
X359327Y381792D01*
X359175Y382074D01*
X359007Y382296D01*
X358819Y382465D01*
X358604Y382585D01*
X358363Y382657D01*
X358096Y382681D01*
X357918Y382673D01*
X357751Y382647D01*
X357596Y382603D01*
X357452Y382542D01*
X357320Y382464D01*
X357200Y382368D01*
X357090Y382256D01*
X356993Y382125D01*
X356906Y381976D01*
X356832Y381807D01*
X356768Y381618D01*
X356717Y381408D01*
X356676Y381178D01*
X356648Y380929D01*
X356630Y380659D01*
X356625Y380369D01*
X356647Y379839D01*
X356713Y379371D01*
X356763Y379159D01*
X356824Y378963D01*
X356896Y378783D01*
X356979Y378617D01*
X357075Y378466D01*
X357182Y378329D01*
X357303Y378205D01*
X357436Y378094D01*
X357582Y377997D01*
X357741Y377913D01*
X357912Y377842D01*
X358096Y377785D01*
X357825Y376393D01*
G37*
G36*
X357825Y404299D02*
X357526Y404382D01*
X357248Y404485D01*
X356990Y404610D01*
X356753Y404755D01*
X356536Y404922D01*
X356339Y405109D01*
X356163Y405318D01*
X356007Y405547D01*
X355871Y405799D01*
X355752Y406077D01*
X355652Y406380D01*
X355570Y406709D01*
X355507Y407062D01*
X355461Y407441D01*
X355434Y407846D01*
X355425Y408275D01*
X355436Y408718D01*
X355470Y409136D01*
X355527Y409528D01*
X355607Y409895D01*
X355709Y410236D01*
X355834Y410552D01*
X355981Y410843D01*
X356152Y411109D01*
X356343Y411346D01*
X356554Y411551D01*
X356783Y411725D01*
X357032Y411867D01*
X357300Y411978D01*
X357587Y412057D01*
X357893Y412105D01*
X358219Y412120D01*
X358483Y412109D01*
X358732Y412077D01*
X358967Y412022D01*
X359187Y411945D01*
X359393Y411849D01*
X359586Y411734D01*
X359767Y411601D01*
X359935Y411450D01*
X360094Y411276D01*
X360245Y411073D01*
X360390Y410840D01*
X360527Y410579D01*
X360663Y410259D01*
X360806Y409852D01*
X360954Y409357D01*
X361109Y408775D01*
X361398Y407680D01*
X361516Y407303D01*
X361617Y407040D01*
X361714Y406847D01*
X361821Y406679D01*
X361937Y406536D01*
X362064Y406419D01*
X362204Y406327D01*
X362362Y406261D01*
X362537Y406221D01*
X362729Y406208D01*
X362888Y406216D01*
X363037Y406240D01*
X363175Y406280D01*
X363303Y406335D01*
X363421Y406407D01*
X363528Y406494D01*
X363624Y406597D01*
X363710Y406716D01*
X363786Y406852D01*
X363852Y407005D01*
X363908Y407176D01*
X363953Y407364D01*
X364014Y407794D01*
X364034Y408293D01*
X364013Y408750D01*
X363950Y409159D01*
X363845Y409519D01*
X363697Y409830D01*
X363510Y410089D01*
X363287Y410293D01*
X363161Y410374D01*
X363026Y410442D01*
X362883Y410495D01*
X362729Y410535D01*
X362905Y411954D01*
X363199Y411882D01*
X363472Y411789D01*
X363724Y411675D01*
X363956Y411539D01*
X364166Y411382D01*
X364356Y411204D01*
X364526Y411005D01*
X364674Y410785D01*
X364803Y410544D01*
X364915Y410282D01*
X365010Y410001D01*
X365088Y409700D01*
X365148Y409378D01*
X365191Y409037D01*
X365217Y408675D01*
X365226Y408293D01*
X365215Y407864D01*
X365183Y407461D01*
X365130Y407085D01*
X365056Y406735D01*
X364960Y406411D01*
X364844Y406114D01*
X364706Y405844D01*
X364547Y405600D01*
X364368Y405383D01*
X364169Y405195D01*
X363951Y405037D01*
X363714Y404907D01*
X363457Y404806D01*
X363181Y404733D01*
X362886Y404690D01*
X362572Y404676D01*
X362235Y404696D01*
X361926Y404757D01*
X361644Y404858D01*
X361389Y405000D01*
X361158Y405177D01*
X360944Y405386D01*
X360748Y405626D01*
X360570Y405897D01*
X360401Y406233D01*
X360230Y406667D01*
X360057Y407199D01*
X359883Y407829D01*
X359585Y408959D01*
X359464Y409358D01*
X359327Y409699D01*
X359175Y409980D01*
X359007Y410202D01*
X358819Y410371D01*
X358604Y410491D01*
X358363Y410564D01*
X358096Y410588D01*
X357918Y410579D01*
X357751Y410553D01*
X357596Y410509D01*
X357452Y410449D01*
X357320Y410370D01*
X357200Y410275D01*
X357090Y410162D01*
X356993Y410031D01*
X356906Y409882D01*
X356832Y409713D01*
X356768Y409524D01*
X356717Y409314D01*
X356676Y409085D01*
X356648Y408835D01*
X356630Y408565D01*
X356625Y408275D01*
X356647Y407745D01*
X356713Y407277D01*
X356763Y407066D01*
X356824Y406870D01*
X356896Y406689D01*
X356979Y406524D01*
X357075Y406373D01*
X357182Y406235D01*
X357303Y406111D01*
X357436Y406000D01*
X357582Y405903D01*
X357741Y405819D01*
X357912Y405749D01*
X358096Y405692D01*
X357825Y404299D01*
G37*
G36*
X356940Y419104D02*
X355600Y419104D01*
X355600Y426837D01*
X356940Y426837D01*
X356940Y423833D01*
X367941Y423833D01*
X367941Y422379D01*
X365935Y419463D01*
X364446Y419463D01*
X366434Y422248D01*
X356940Y422248D01*
X356940Y419104D01*
G37*
G36*
X355425Y437706D02*
X355425Y439125D01*
X368598Y442690D01*
X368598Y441306D01*
X355425Y437706D01*
G37*
G36*
X357518Y342625D02*
X355600Y342625D01*
X355600Y344333D01*
X357518Y344333D01*
X357518Y342625D01*
G37*
M02*
