G04 EAGLE Gerber RS-274X export*
G75*
%MOMM*%
%FSLAX34Y34*%
%LPD*%
%INSoldermask Bottom*%
%IPPOS*%
%AMOC8*
5,1,8,0,0,1.08239X$1,22.5*%
G01*
G04 Define Apertures*
%ADD10C,3.200400*%
%ADD11R,1.853200X1.853200*%
%ADD12C,1.853200*%
%ADD13C,2.153200*%
%ADD14C,1.727200*%
%ADD15C,1.854200*%
%ADD16R,1.854200X1.854200*%
%ADD17C,1.311200*%
%ADD18R,1.561200X1.561200*%
%ADD19C,1.561200*%
D10*
X50800Y736600D03*
X406400Y736600D03*
X50800Y101600D03*
X406400Y101600D03*
D11*
X286700Y36000D03*
D12*
X321700Y36000D03*
X356700Y36000D03*
D11*
X246700Y802200D03*
D12*
X211700Y802200D03*
X176700Y802200D03*
D13*
X24428Y626010D03*
X44428Y686010D03*
X44428Y566010D03*
X167428Y686010D03*
X167428Y566010D03*
D14*
X440634Y519232D03*
X440634Y493832D03*
X440634Y468432D03*
X440634Y443032D03*
X440634Y417632D03*
X440634Y392232D03*
X440634Y366832D03*
X440634Y341432D03*
X440634Y316032D03*
X440634Y290632D03*
X440634Y265232D03*
X440634Y239832D03*
X237434Y239832D03*
X237434Y265232D03*
X237434Y290632D03*
X237434Y316032D03*
X237434Y341432D03*
X237434Y366832D03*
X237434Y392232D03*
X237434Y417632D03*
X237434Y443032D03*
X237434Y468432D03*
X237434Y493832D03*
X237434Y519232D03*
X237434Y544632D03*
X237434Y570032D03*
X237434Y595432D03*
X237434Y620832D03*
D15*
X152400Y241300D03*
X127000Y241300D03*
D16*
X177800Y241300D03*
D17*
X44450Y506730D03*
X44450Y481330D03*
X44450Y494030D03*
D18*
X190220Y137160D03*
D19*
X155220Y137160D03*
D11*
X83500Y36000D03*
D12*
X118500Y36000D03*
D11*
X107000Y802200D03*
D12*
X72000Y802200D03*
D11*
X190180Y34730D03*
D12*
X225180Y34730D03*
D16*
X88900Y508000D03*
D15*
X165100Y508000D03*
M02*
